<?xml version="1.0" encoding="UTF-8"?>
<svg id="Layer_2" data-name="Layer 2" xmlns="http://www.w3.org/2000/svg" xmlns:xlink="http://www.w3.org/1999/xlink" viewBox="0 0 337.17 193.27">
  <defs>
    <style>
      .cls-1 {
        fill: #c77189;
      }

      .cls-2 {
        fill: none;
      }

      .cls-3 {
        fill: #385756;
      }

      .cls-4 {
        fill: #3b5f5e;
      }

      .cls-5 {
        fill: #271e24;
      }

      .cls-6 {
        fill: #2d3838;
      }

      .cls-7 {
        fill: #c98b6d;
      }

      .cls-8 {
        fill: #7a758c;
      }

      .cls-9 {
        fill: url(#linear-gradient-2);
      }

      .cls-10 {
        fill: #8d6f91;
      }

      .cls-11 {
        fill: #b15d98;
      }

      .cls-12 {
        fill: #c7ae3e;
      }

      .cls-13 {
        fill: #3a827e;
      }

      .cls-14 {
        fill: #c34f9d;
      }

      .cls-15 {
        fill: #597d84;
      }

      .cls-16 {
        fill: #303f3f;
      }

      .cls-17 {
        fill: #3a5f5e;
      }

      .cls-18 {
        fill: #385757;
      }

      .cls-19 {
        fill: url(#linear-gradient);
      }

      .cls-20 {
        fill: #3c6866;
      }

      .cls-21 {
        fill: #3c706e;
      }

      .cls-22 {
        fill: #b1b362;
      }

      .cls-23 {
        fill: #70788a;
      }

      .cls-24 {
        fill: #32242d;
      }

      .cls-25 {
        fill: #c87f7c;
      }

      .cls-26 {
        fill: #cc9e4e;
      }

      .cls-27 {
        fill: #c77883;
      }

      .cls-28 {
        fill: #966b93;
      }

      .cls-29 {
        fill: #c88575;
      }

      .cls-30 {
        fill: #3c7976;
      }

      .cls-31 {
        fill: #202022;
      }

      .cls-32 {
        fill: #657b87;
      }

      .cls-33 {
        fill: #c0af4a;
      }

      .cls-34 {
        fill: #c66a8e;
      }

      .cls-35 {
        fill: #364f4e;
      }

      .cls-36 {
        fill: #a86296;
      }

      .cls-37 {
        fill: #c56193;
      }

      .cls-38 {
        fill: #84728f;
      }

      .cls-39 {
        fill: #ba569a;
      }

      .cls-40 {
        fill: #374f4e;
      }

      .cls-41 {
        fill: #4b8081;
      }

      .cls-42 {
        fill: #293031;
      }

      .cls-43 {
        fill: #25282a;
      }

      .cls-44 {
        fill: #334747;
      }

      .cls-45 {
        fill: #cda540;
      }

      .cls-46 {
        fill: #cb985a;
      }

      .cls-47 {
        fill: #c45997;
      }

      .cls-48 {
        fill: #b8b156;
      }

      .cls-49 {
        fill: #ceac31;
      }

      .cls-50 {
        fill: #ca9265;
      }

      .cls-51 {
        fill: #9f6795;
      }
    </style>
    <linearGradient id="linear-gradient" x1="88.58" y1="178.52" x2="91.64" y2="14.48" gradientUnits="userSpaceOnUse">
      <stop offset=".41" stop-color="#3d5e61"/>
      <stop offset=".89" stop-color="#8f6881"/>
      <stop offset="1" stop-color="#b95a92"/>
    </linearGradient>
    <linearGradient id="linear-gradient-2" x1="246.86" y1="177.16" x2="246.86" y2="-13.88" gradientUnits="userSpaceOnUse">
      <stop offset=".41" stop-color="#3d5e61"/>
      <stop offset="1" stop-color="#8f6881"/>
    </linearGradient>
  </defs>
  <g id="Layer_3" data-name="Layer 3">
    <g>
      <path class="cls-19" d="M170.99,107.17c-6.56-7.87-16.8-13.42-30.72-16.66,9.16-3.06,16.12-7.23,20.88-12.51,7.14-7.91,10.7-17.4,10.7-28.47,0-13.19-4.2-25.24-15-33.19-12.08-8.89-24.34-13.4-43.01-13.4L.42.42l1.37,189.66h103.33c4.4,0,13.35-.85,26.82-2.55,10.13-1.28,17.71-3.32,22.73-6.13,8.1-4.51,14.49-10.64,19.16-18.38,4.67-7.74,7-16.47,7-26.17,0-11.91-3.28-21.81-9.84-29.68ZM62.18,40.86h26.43c9.07,0,15.44,1.53,19.09,4.6,3.65,3.06,5.48,7.32,5.48,12.77,0,1.18-.11,3.19-1.08,5.52-1.41,3.39-3.8,5.24-5.81,6.81-3.72,2.89-7.29,4-9.08,4.54-3.6,1.08-6.89,1.33-9.53,1.27h-25.51v-35.49ZM114.69,146.82c-1.24.56-3.8,1.6-8.75,2.39-3.19.51-7.71.97-13.24.66h-30.52v-37.91h30.39c5.79-.38,10.4.48,13.36,1.26,3.84,1.02,6.63,2.36,8.87,3.46,4.1,2,6.15,3,7.62,4.72,3.99,4.66,3.2,10.99,3.01,12.27-.14.93-.95,5.79-4.97,9.58-1.94,1.83-3.87,2.7-5.78,3.56Z"/>
      <path class="cls-9" d="M321.99,105.3c-2.18-1.59-4.35-3.1-6.59-4.56-9.14-5.95-16.87-9.68-20.5-11.33-7.75-3.53-13.9-5.46-26.21-9.34-6.66-2.1-9.76-3.15-15.95-5.26-.36-.12-4.08-1.4-8.94-3.32-3.92-1.55-5.97-2.49-8.05-3.6-2.61-1.4-4.13-2.22-5.9-3.84-1.54-1.41-3.32-3.08-4.25-5.89-.3-.92-.82-2.88-.46-5.31.5-3.39,2.39-5.55,3.21-6.46,2.25-2.51,4.78-3.48,7.64-4.53,2.35-.86,6.83-2.46,12.86-2.14,3.78.2,9.39.51,14.41,4.62,5.84,4.79,7.03,11.57,7.3,13.59,19.37-.52,38.74-1.04,58.11-1.56-2.5-19.28-10.34-33.34-23.51-42.18-13.18-8.84-32.31-13.26-57.41-13.26-20.45,0-36.19,3.58-47.93,8.44-11.75,4.86-20.91,10.4-26.76,18.9-5.85,8.5-8.78,17.53-8.78,27.09,0,14.55,5,28.25,18.02,35.26,14.69,7.91,26.08,13.16,53.1,20.21,16.07,4.19,26.85,9.47,31.31,13.28,4.47,3.81,6.12,5.28,6.12,10.11,0,5.07-.54,9.15-5.23,13-4.69,3.85-9.89,7.39-18.56,7.39-11.61,0-17.73-1.31-23-9.56-.42-.66-1.92-2.79-3.24-5.95-.98-2.36-2.21-6.08-2.51-10.9l-63.39.37c1.7,18.78,8.98,34.25,21.84,46.43,12.86,12.18,34.7,16.97,68.1,16.97,19.02,0,36.09-1.31,48.59-6.51,12.5-5.2,20.81-8.75,29.39-18.05,8.3-8.99,11.96-21.28,11.96-33.21,0-10.15-5.72-22.26-14.81-28.91Z"/>
      <g>
        <g>
          <path class="cls-24" d="M0,193.27h2.11c-.7-1.05-1.4-2.09-2.11-3.14v3.14Z"/>
          <g>
            <path class="cls-2" d="M111.97,52.28s-.03-.08-.05-.12c-.02-.04-.04-.07-.05-.11-.61-1.25-1.49-2.54-2.76-3.72-.2-.17-.4-.34-.61-.51-1.51-1.15-3.41-2.05-5.65-2.75-3.73-1.16-8.44-1.72-14.15-1.72h-26.23v29.63s0,0-.01,0v3.36c1.22.05,3.33-.1,4.35.05,2.87-.05,4.84.02,6.11,0,2.87-.05,6.34-.14,7.61-.06,0,0,0,0-.01,0,.5,0,.74.01.77.01h.04s4.13-.03,5.95-.07c2.09-.05,3.96-.1,5.96-.39,3.97-.58,6.96-1.91,8.15-2.49,2.38-1.15,5.61-2.71,8.28-6.21,1.07-1.41,3.4-4.47,3.51-8.93,0-.02,0-.04,0-.06.05-2.56-.65-4.64-1.21-5.91Z"/>
            <path class="cls-2" d="M139.74,138.71c.66.28,1.33.58,1.98.86-.66-.28-1.32-.57-1.98-.86Z"/>
            <path class="cls-2" d="M75.23,109.14c2.1,1.01,4.19,2.01,6.27,3-2.09-1-4.17-1.99-6.27-3Z"/>
            <path class="cls-2" d="M133.01,135.79c-.12-.05-.24-.11-.36-.16.09.04.18.08.27.12.03.01.06.03.09.04Z"/>
            <path class="cls-2" d="M47.31,106.1c-5.1-3.21-10.26-6.47-15.46-9.76,5.21,3.29,10.36,6.55,15.46,9.76Z"/>
            <path class="cls-2" d="M162.76,148.39c-1.67-.68-3.33-1.37-5.01-2.06v.03c1.67.68,3.35,1.35,5.01,2.03Z"/>
            <path class="cls-2" d="M97.25,95.47c7.68,2.32,15.29,4.61,22.84,6.87-7.54-2.26-15.16-4.55-22.84-6.87Z"/>
            <path class="cls-2" d="M54.6,99.09c2.52,1.24,5.03,2.47,7.53,3.69-2.5-1.22-5-2.45-7.53-3.69Z"/>
            <path class="cls-2" d="M64.96,104.17c2.35,1.15,4.69,2.27,7.02,3.4-2.33-1.13-4.67-2.26-7.02-3.4Z"/>
            <path class="cls-2" d="M62.46,149.92h29.26s4.23,0,4.23,0c1.08,0,2.15-.03,3.2-.06.18,0,.34-.03.52-.03.68-.03,1.35-.06,2.03-.12.95-.09,1.91-.18,2.8-.31.43-.03.8-.09,1.2-.15.77-.09,1.48-.21,2.18-.37.06-.03.12-.03.18-.03,2.06-.43,3.93-.98,5.65-1.63,7.19-2.77,11.43-7.62,11.83-14.72.03-.37.06-.74.06-1.14,0-11.22-9.99-16.69-29.32-16.69h-9.53s-.02,0-.03-.01h-24.27v35.26Z"/>
            <path class="cls-5" d="M0,190.13c.7,1.05,1.41,2.09,2.11,3.14h52.54C38.4,168.37,20.03,143.13,0,117.79v72.34Z"/>
            <path class="cls-31" d="M0,117.79c20.03,25.34,38.4,50.58,54.64,75.48h8.71C44.62,166.54,23.31,139.3,0,111.9v5.89Z"/>
            <path class="cls-43" d="M0,111.9c23.31,27.4,44.61,54.64,63.35,81.37h10.24C51.98,164.74,27.23,135.48,0,106.02v5.88Z"/>
            <path class="cls-42" d="M0,100.37v5.66c27.23,29.46,51.98,58.72,73.6,87.25h11.29c.24,0,.45,0,.69,0C60.68,163.06,31.87,131.82,0,100.37Z"/>
            <path class="cls-6" d="M0,94.9v5.47c31.87,31.45,60.68,62.7,85.58,92.9,5.08,0,9.73-.05,14.01-.14C70.95,161.39,37.41,128.2,0,94.9Z"/>
            <path class="cls-16" d="M0,91.38v3.52c37.41,33.3,70.95,66.5,99.6,98.23.97-.02,1.89-.05,2.83-.08C71.85,161.24,37.15,126.85,0,91.38Z"/>
            <path class="cls-44" d="M62.46,149.92v-9.43c-4.98-4.38-10.02-8.8-15.12-13.25C32.04,113.85,16.22,100.13,0,86.17v5.21c37.15,35.47,71.84,69.86,102.42,101.67,6.86-.19,12.81-.53,18.05-1.08-14.92-13.39-30.72-27.45-47.28-42.06h-10.72Z"/>
            <path class="cls-35" d="M91.72,149.92h0s-18.53,0-18.53,0c16.56,14.61,32.37,28.67,47.28,42.06,8.26-.86,14.9-2.25,21.2-4.35-15.76-11.77-32.42-24.4-49.96-37.7h.01Z"/>
            <path class="cls-35" d="M.5,85.95c20.66,17.78,41.33,35.75,61.46,53.43v-11.4c-4.42-3.36-8.86-6.95-13.36-10.72-15.43-11.64-31.46-23.64-48.1-35.93v4.62Z"/>
            <path class="cls-40" d="M62.46,140.48v-12.75c-4.56-3.46-9.19-6.95-13.86-10.48,4.5,3.77,8.94,7.37,13.36,10.72v11.4C41.83,121.69,21.16,103.72.5,85.95v-4.62c-.17-.12-.33-.25-.5-.37v5.22c16.22,13.96,32.04,27.68,47.34,41.05,5.1,4.46,10.14,8.88,15.12,13.25Z"/>
            <path class="cls-3" d="M113.71,147.22c-1.72.65-3.6,1.2-5.65,1.63-.06,0-.12,0-.18.03-.71.15-1.41.28-2.18.37-.4.06-.77.12-1.2.15-.89.12-1.84.22-2.8.31-.68.06-1.35.09-2.03.12-.18,0-.34.03-.52.03-1.04.03-2.12.06-3.2.06h-4.24c17.54,13.3,34.2,25.93,49.96,37.7,0,0,0,0,0,0,2.64-.89,5.26-1.91,7.87-3.07,2.89-1.26,5.78-2.7,8.85-4.33,2.06-1.11,4-2.27,5.84-3.5-16.01-8.94-32.76-18.78-50.22-29.32-.09-.06-.22-.12-.31-.18Z"/>
            <path class="cls-3" d="M.25,76.6v4.23c18.55,13.7,38.25,28.45,61.96,46.4v-11.48C42.37,103.33,21.58,90.14.25,76.6Z"/>
            <path class="cls-18" d="M.5,81.33c16.64,12.29,32.66,24.29,48.1,35.93,4.67,3.53,9.3,7.02,13.86,10.48v-12.12c-5-3.13-10.05-6.3-15.15-9.52-5.1-3.21-10.26-6.47-15.46-9.76C21.44,89.75,10.82,83.02,0,76.15v4.81c.17.12.33.25.5.37ZM62.21,127.23C38.5,109.28,18.8,94.53.25,80.83v-4.23c21.33,13.54,42.12,26.72,61.96,39.15v11.48Z"/>
            <path class="cls-17" d="M157.75,146.36v-.03c-5.28-2.18-10.63-4.43-16.03-6.75-.66-.28-1.32-.57-1.98-.86-2.23-.96-4.47-1.93-6.73-2.92-.03-.01-.06-.03-.09-.04-.09-.04-.18-.08-.27-.12-2.21-.97-4.42-1.94-6.65-2.92-.15-.09-.31-.15-.46-.22-.4,7.1-4.64,11.95-11.83,14.72.09.06.22.12.31.18,17.46,10.54,34.21,20.38,50.22,29.32,2.89-1.94,5.53-4.03,7.9-6.24.55-.55,1.11-1.08,1.63-1.63,3.75-3.81,6.76-8.02,9.07-12.51-6.59-2.52-13.28-5.18-20.06-7.96-1.66-.68-3.34-1.35-5.01-2.03Z"/>
            <path class="cls-17" d="M62.21,114.41h23.44C59.99,102.22,32.03,88.31.25,71.91v4.1c21.33,13.54,42.12,26.72,61.96,39.15v-.75Z"/>
            <path class="cls-4" d="M47.31,106.1c5.1,3.21,10.15,6.39,15.15,9.52v-.96h24.27c-.64-.3-1.27-.61-1.94-.94-1.09-.52-2.2-1.05-3.29-1.58-2.09-1-4.17-1.99-6.27-3-1.08-.52-2.17-1.05-3.25-1.57-2.33-1.13-4.67-2.26-7.02-3.4-.94-.46-1.89-.93-2.84-1.39-2.5-1.22-5-2.45-7.53-3.69-.38-.19-.76-.38-1.14-.57C36.12,89.97,18.32,80.95,0,71.5v4.65c10.82,6.87,21.44,13.6,31.85,20.19,5.21,3.29,10.36,6.55,15.46,9.76ZM.25,71.91c31.78,16.4,59.74,30.31,85.4,42.5h-23.44v.75C42.37,102.73,21.58,89.55.25,76.01v-4.1Z"/>
            <path class="cls-20" d="M97.25,95.47c-30.72-9.28-62.54-18.95-95.44-28.31-.61-.18-1.2-.34-1.81-.52v4.86c.61.31,1.23.61,1.81.92,17.69,9.14,34.89,17.84,51.64,26.11.38.19.77.38,1.14.57,2.52,1.24,5.03,2.47,7.53,3.69.94.46,1.89.93,2.84,1.39,2.35,1.15,4.69,2.27,7.02,3.4,1.08.52,2.17,1.05,3.25,1.57,2.1,1.01,4.19,2.01,6.27,3,1.09.52,2.2,1.06,3.29,1.58.67.33,1.3.64,1.94.94,0,0,.02,0,.03.01h9.53c19.33,0,29.32,5.47,29.32,16.69,0,.4-.03.77-.06,1.14.15.06.31.12.46.22,2.23.99,4.44,1.96,6.65,2.92.12.05.24.11.36.16,2.25.99,4.49,1.96,6.73,2.92.66.28,1.33.58,1.98.86,5.4,2.32,10.74,4.57,16.03,6.75,1.68.7,3.35,1.38,5.01,2.06,6.79,2.78,13.48,5.44,20.06,7.96,3.44-6.76,5.26-14.17,5.26-21.85,0-.31,0-.58-.03-.89,0-1.91-.15-3.75-.43-5.56-.31-2.3-.8-4.52-1.48-6.64-10.7-2.92-21.56-5.99-32.57-9.18-11.01-3.19-22.17-6.5-33.49-9.89-7.54-2.26-15.16-4.55-22.84-6.87Z"/>
            <path class="cls-21" d="M72.91,76.4c-1.27.02-3.24-.05-6.11,0-1.03-.15-3.14,0-4.36-.05v-3.36C41.93,69.69,21.14,66.27,0,62.7v-11.93,15.86c.61.18,1.2.34,1.81.52,32.9,9.36,64.72,19.03,95.44,28.31,7.68,2.32,15.29,4.61,22.84,6.87,11.32,3.39,22.48,6.7,33.49,9.89,11.01,3.19,21.86,6.26,32.57,9.18-4.7-15.21-18.13-26.06-40.17-31.81,2.18-.92,4.27-1.94,6.21-3.01-23.89-3.42-47.78-6.83-71.66-10.25-1.27-.08-4.74.01-7.61.06Z"/>
            <path class="cls-30" d="M111.97,52.28c.56,1.27,1.26,3.35,1.21,5.91.03-.99-.04-3.36-1.21-5.91Z"/>
            <path class="cls-30" d="M225.11,57.47c.04.43.05.77.01.93-9.42.05-29.46.11-50.38.16-.23,1.05-.5,2.09-.82,3.12-20.39.33-40.69.59-61.27.64.07-.52.32-1.02.38-1.59.07-.71.11-1.4.13-2.05,0-.03.02-.18.02-.42-.11,4.46-2.44,7.52-3.51,8.93-2.67,3.5-5.9,5.06-8.28,6.21-1.2.58-4.18,1.91-8.15,2.49-2,.29-3.87.34-5.96.39-1.82.05-5.93.07-5.95.07h-.04s-.27,0-.77-.01c0,0,0,0,.01,0,23.89,3.42,47.78,6.83,71.66,10.25,5.59-3.1,10.23-6.79,13.86-10.97,3.5-4.06,21.04-5.14,24-5.84,6.64-.91,13.32-1.84,20.03-2.8,6.63-.95,13.22-1.92,19.77-2.91-.31-.2-3.63-2.48-4.74-6.59Z"/>
            <path class="cls-30" d="M111.86,52.06s.03.07.05.11c-.02-.04-.04-.07-.05-.11Z"/>
            <path class="cls-30" d="M175.59,48.99c20.83,1.3,40.02,2.41,48.77,2.37-.06.43.16,1.87.38,3.35.02-4.78,3.22-7.75,3.75-8.22-17.68.19-35.36.39-53.03.58.02.25.03.5.05.75.02.39.06.78.09,1.17Z"/>
            <path class="cls-30" d="M62.46,61.82c-20.47-.54-41.24-1.54-62.46-3.25v4.13c21.13,3.56,41.93,6.99,62.45,10.28,0,0,0,0,.01,0v-11.17Z"/>
            <path class="cls-13" d="M113.03,60.72c-.05.57-.3,1.07-.38,1.59,20.59-.05,40.89-.31,61.27-.64.32-1.03.59-2.07.82-3.12-24.62.06-50.45.1-61.59.11-.02.65-.06,1.33-.13,2.05Z"/>
            <path class="cls-13" d="M62.46,61.82v-3.5c-19.96-.32-40.08-.87-60.51-1.89-.66-.03-1.29-.03-1.95-.05v2.19c21.22,1.7,41.99,2.71,62.46,3.25Z"/>
            <path class="cls-41" d="M224.36,51.36c-8.75.04-27.94-1.07-48.77-2.37.03.47.06.94.06,1.42,0,.02,0,.03,0,.05,0,.89-.04,1.77-.1,2.64-.06.89-.16,1.77-.29,2.65-20.7.09-41.4.22-62.19.22-.12-.96-.33-1.86-.62-2.7-.34-.98-.79-1.88-1.36-2.71-.55-.81-1.21-1.55-1.98-2.22,1.27,1.18,2.15,2.47,2.76,3.72.02.04.04.07.05.11.02.04.03.08.05.12,1.17,2.55,1.24,4.92,1.21,5.91,0,.02,0,.04,0,.06,0,.24-.02.39-.02.42,11.14-.01,36.97-.06,61.59-.11,20.91-.05,40.96-.11,50.38-.16.04-.17.03-.5-.01-.93-.07-.73-.22-1.76-.37-2.76-.22-1.48-.44-2.92-.38-3.35Z"/>
            <path class="cls-41" d="M62.46,58.33v-2.77c-18.68-.33-37.51-.88-56.6-1.82-1.99-.1-3.92-.12-5.86-.15v2.81c.65.03,1.29.02,1.95.05,20.43,1.02,40.56,1.57,60.51,1.89Z"/>
            <path class="cls-15" d="M113.07,55.97c20.79,0,41.49-.12,62.19-.22.12-.88.23-1.76.29-2.65-21,.08-42,.2-63.1.17.29.84.5,1.74.62,2.7Z"/>
            <path class="cls-15" d="M5.87,53.73c19.09.95,37.92,1.49,56.6,1.82v-2.77c-17.39-.34-34.92-.88-52.66-1.75-3.32-.17-6.57-.22-9.8-.26v2.8c1.95.04,3.88.05,5.86.15Z"/>
            <path class="cls-32" d="M111.09,50.55c.57.83,1.02,1.73,1.36,2.71,21.1.03,42.09-.09,63.1-.17.06-.88.1-1.76.1-2.64-21.49.07-42.97.17-64.56.1Z"/>
            <path class="cls-32" d="M62.46,52.78v-2.78c-16.1-.34-32.31-.86-48.69-1.66-4.67-.23-9.21-.27-13.77-.31v2.74c3.24.03,6.49.09,9.8.26,17.74.87,35.26,1.42,52.66,1.75Z"/>
            <path class="cls-23" d="M111.09,50.55c21.59.07,43.07-.03,64.56-.1,0-.02,0-.03,0-.05,0-.48-.03-.95-.06-1.42-.03-.39-.06-.78-.09-1.17-22.3.05-44.59.13-67.01,0,.21.16.41.33.61.51.77.67,1.43,1.41,1.98,2.22Z"/>
            <path class="cls-23" d="M62.46,50.01v-2.79c-14.79-.34-29.67-.82-44.7-1.55-6.02-.3-11.85-.26-17.76-.36v2.74c4.56.04,9.1.07,13.77.31,16.39.8,32.59,1.32,48.69,1.66Z"/>
            <path class="cls-8" d="M102.85,45.08c2.24.7,4.14,1.6,5.65,2.75,22.41.12,44.71.04,67.01,0-.02-.25-.03-.5-.05-.75-.04-.63-.08-1.27-.16-1.88-24.1.04-48.2.1-72.45-.11Z"/>
            <path class="cls-8" d="M62.46,47.21v-2.79c-13.48-.33-27.02-.77-40.69-1.43-6.41-.32-12.6-.26-18.91-.39-.95-.02-1.91-.04-2.87-.06v2.76c5.91.1,11.74.06,17.76.36,15.03.73,29.91,1.21,44.7,1.55Z"/>
            <path class="cls-38" d="M38.07,32.38c-6.4-.31-12.61-.29-18.94-.43,6.33.15,12.54.67,18.94.43Z"/>
            <path class="cls-38" d="M21.77,43c13.67.66,27.21,1.1,40.69,1.43v-1.07h26.23c5.72,0,10.42.56,14.15,1.72,24.25.2,48.35.15,72.45.11-.03-.23-.38-1.25-.87-2.63-49.09.05-98.14.2-148.61-2.22-6.41-.32-12.6-.27-18.92-.4-2.3-.05-4.6-.1-6.89-.15v2.76c.95.02,1.91.04,2.87.06,6.31.13,12.5.07,18.91.39Z"/>
            <path class="cls-10" d="M25.81,40.33c50.48,2.42,99.52,2.27,148.61,2.22.13,0,.27,0,.4,0-.18-.89-.38-1.77-.61-2.63-47.71,0-95.39.09-144.34-2.25-6.4-.31-12.6-.27-18.92-.41-3.65-.08-7.3-.16-10.95-.24v2.76c2.3.05,4.6.1,6.89.15,6.32.13,12.51.08,18.92.4Z"/>
            <path class="cls-28" d="M29.87,37.67c48.96,2.33,96.63,2.25,144.34,2.25-.24-.89-.5-1.77-.8-2.63-46.13-.03-92.22-.03-139.45-2.26-6.4-.31-12.61-.28-18.93-.42-5-.11-10.01-.22-15.03-.34v2.76c3.65.08,7.3.16,10.95.24,6.32.14,12.52.1,18.92.41Z"/>
            <path class="cls-51" d="M33.96,35.02c47.23,2.23,93.32,2.23,139.45,2.26-.32-.9-.7-1.77-1.08-2.63-18.09-.03-34.73-.21-52.88-.38-26.44-.25-54.46-.63-81.38-1.89-6.4.24-12.61-.29-18.94-.43-6.36-.15-12.74-.29-19.13-.44v2.76c5.02.11,10.02.22,15.03.34,6.32.14,12.53.11,18.93.42Z"/>
            <path class="cls-36" d="M38.07,32.38c26.93,1.26,54.94,1.65,81.38,1.89,18.15.17,34.79.35,52.88.38-.13-.3-.76-1.35-1.54-2.64-42.59-.1-85.17-.25-128.59-2.27-6.4-.3-12.62-.3-18.95-.45-7.73-.18-15.49-.37-23.26-.55v2.76c6.39.15,12.77.29,19.13.44,6.33.15,12.54.13,18.94.43Z"/>
            <path class="cls-11" d="M42.21,29.74c43.42,2.02,86,2.18,128.59,2.27.1,0,.2,0,.3,0-.48-.9-.99-1.78-1.53-2.64-40.83-.13-81.65-.35-123.2-2.27-6.39-.3-12.62-.31-18.96-.46-9.11-.22-18.25-.44-27.41-.66v2.76c7.77.18,15.53.37,23.26.55,6.33.15,12.55.14,18.95.45Z"/>
            <path class="cls-39" d="M46.37,27.12c41.54,1.91,82.36,2.13,123.2,2.27-.32-.51-.66-1.02-1.01-1.52-39.11-.49-78.42-1.5-118.5-4.2-6.31-.16-12.63-.32-18.97-.47-10.33-.26-20.69-.52-31.08-.78v3.58c9.16.22,18.3.44,27.41.66,6.33.15,12.57.16,18.96.46Z"/>
            <path class="cls-14" d="M50.06,23.66c40.08,2.7,79.39,3.71,118.5,4.2-.58-.83-1.17-1.66-1.81-2.46-37.14-.53-74.32-1.31-111.87-3.06-6.37-.3-12.6-.33-18.92-.5-11.94-.3-23.93-.61-35.97-.91v1.47c10.39.26,20.76.52,31.08.78,6.34.16,12.67.32,18.97.47Z"/>
            <path class="cls-47" d="M54.88,22.35c37.55,1.75,74.73,2.53,111.87,3.06-.42-.53-.89-1.04-1.34-1.55-35.24-.72-70.54-1.74-106.05-3.42-6.34-.3-12.57-.35-18.87-.53-13.43-.35-26.94-.69-40.49-1.04v2.07c12.03.3,24.03.61,35.97.91,6.32.17,12.55.2,18.92.5Z"/>
            <path class="cls-37" d="M59.36,20.43c35.52,1.68,70.81,2.69,106.05,3.42-.52-.59-1.03-1.18-1.58-1.75-33.25-.83-66.56-1.98-99.98-3.57-6.32-.3-12.54-.37-18.81-.55-14.92-.39-29.95-.79-45.04-1.18v2.07c13.56.35,27.07.7,40.49,1.04,6.3.17,12.52.22,18.87.53Z"/>
            <path class="cls-34" d="M63.86,18.53c33.43,1.6,66.73,2.74,99.98,3.57-.61-.64-1.27-1.24-1.93-1.85-31.13-.89-62.31-2.1-93.53-3.6-6.29-.3-12.51-.4-18.76-.58C33.19,15.6,16.63,15.12,0,14.65v2.14c15.09.4,30.12.79,45.04,1.18,6.28.18,12.5.25,18.81.55Z"/>
            <path class="cls-1" d="M68.38,16.65c31.22,1.5,62.4,2.71,93.53,3.6-.69-.64-1.36-1.29-2.09-1.9-28.94-.92-57.91-2.14-86.88-3.54-6.27-.3-12.48-.42-18.71-.61C36.3,13.67,18.19,13.13,0,12.6v2.05c16.63.47,33.19.95,49.62,1.42,6.25.18,12.47.28,18.76.58Z"/>
            <path class="cls-27" d="M72.95,14.81c28.96,1.4,57.94,2.62,86.88,3.54-.8-.67-1.66-1.3-2.51-1.94-26.59-.92-53.21-2.12-79.77-3.41-6.24-.3-12.45-.44-18.65-.63C39.43,11.76,19.77,11.17,0,10.57v2.03c18.19.53,36.3,1.06,54.24,1.6,6.22.18,12.44.3,18.71.61Z"/>
            <path class="cls-25" d="M77.54,12.99c26.56,1.29,53.18,2.49,79.77,3.41-.9-.67-1.82-1.31-2.77-1.94-24.15-.91-48.3-2.09-72.38-3.26-6.22-.3-12.42-.46-18.6-.66C42.58,9.88,21.36,9.22,0,8.56v2.01c19.77.59,39.43,1.19,58.89,1.79,6.2.19,12.41.33,18.65.63Z"/>
            <path class="cls-29" d="M82.16,11.21c24.08,1.17,48.23,2.35,72.38,3.26-1.05-.69-2.11-1.38-3.21-2.02-21.54-.87-43.07-1.96-64.52-3.01-6.19-.3-12.39-.48-18.54-.68C45.76,8.02,22.95,7.29,0,6.56v2c21.35.66,42.58,1.32,63.56,1.99,6.18.19,12.38.36,18.6.66Z"/>
            <path class="cls-7" d="M86.81,9.44c21.44,1.04,42.97,2.13,64.52,3.01-1.14-.66-2.29-1.31-3.49-1.92-18.8-.82-37.58-1.79-56.27-2.69-6.16-.29-12.36-.5-18.49-.71C49.01,6.32,24.59,5.51,0,4.72v1.84c22.95.72,45.76,1.46,68.27,2.19,6.15.2,12.35.39,18.54.68Z"/>
            <path class="cls-50" d="M91.57,7.84c18.69.9,37.47,1.87,56.27,2.69-1.18-.6-2.41-1.16-3.64-1.71-15.96-.74-31.88-1.58-47.73-2.34-6.13-.29-12.32-.52-18.43-.73C52.37,4.86,26.28,3.98,0,3.11v1.61c24.59.79,49.01,1.6,73.08,2.41,6.13.2,12.32.41,18.49.71Z"/>
            <path class="cls-46" d="M96.47,6.48c15.85.76,31.77,1.6,47.73,2.34-1.38-.61-2.79-1.19-4.23-1.73-12.9-.64-25.77-1.32-38.58-1.94-6.1-.28-12.29-.54-18.37-.76C55.75,3.42,27.99,2.47,0,1.53v1.59c26.28.87,52.37,1.74,78.04,2.63,6.1.21,12.29.44,18.43.73Z"/>
            <path class="cls-26" d="M101.4,5.14c12.81.62,25.68,1.31,38.58,1.94-1.73-.66-3.49-1.26-5.29-1.82-9.47-.48-18.91-.97-28.3-1.39-6.08-.29-12.25-.56-18.3-.78C59.17,2.06,29.71,1.02,0,0v1.52c27.98.94,55.75,1.9,83.03,2.86,6.08.21,12.26.48,18.37.76Z"/>
            <path class="cls-45" d="M106.38,3.88c9.4.42,18.84.91,28.3,1.39-3.06-.94-6.21-1.73-9.43-2.37-4.73-.26-9.43-.5-14.11-.69-6.06-.3-12.2-.54-18.25-.81-15.24-.46-30.65-.93-46.18-1.4H0c29.71,1.02,59.17,2.06,88.07,3.1,6.05.22,12.22.49,18.3.78Z"/>
            <path class="cls-49" d="M111.14,2.2c4.68.19,9.38.43,14.11.69-.91-.18-1.81-.39-2.74-.55-5.2-.91-11.96-1.54-20.25-1.93-1.16-.05-2.3-.1-3.45-.14-5.13-.18-10.77-.28-17.02-.28h-35.08c15.53.47,30.94.94,46.18,1.4,6.05.26,12.18.51,18.25.81Z"/>
          </g>
        </g>
        <g>
          <path class="cls-17" d="M292.6,187.29c-.89.28-1.81.52-2.74.77-2.34.68-4.76,1.26-7.28,1.78-10.26,2.15-21.79,3.26-34.45,3.26s-24.22-1.08-34.64-3.26c-17.36-3.53-31.47-10.05-41.37-19.36-1.04-.98-2.03-2-2.98-3.04,1.54.49,3.07.95,4.61,1.41,2.24.71,4.49,1.35,6.73,2,2.21.68,4.43,1.29,6.64,1.91,2.21.65,4.39,1.23,6.55,1.81,1.69.46,3.38.89,5.04,1.32.37.09.71.18,1.04.28,1.48.37,2.92.74,4.36,1.08,1.69.43,3.38.83,5.04,1.23,1.69.4,3.35.77,5.01,1.14l.46.09c1.54.37,3.04.68,4.55.98,2.06.46,4.12.86,6.18,1.26,2.06.43,4.09.8,6.12,1.14,1.94.37,3.87.68,5.81,1.01.25.03.46.06.71.09.92.15,1.81.31,2.74.43.89.15,1.81.28,2.7.4,1.66.25,3.26.46,4.89.68.58.09,1.17.15,1.75.22.18.03.34.03.52.06,1.51.22,2.98.37,4.49.52h.03c1.78.21,3.5.37,5.26.52,1.97.18,3.93.34,5.9.46.98.09,1.94.15,2.89.18.98.06,1.97.09,2.92.15,3.47-.06,9.65-.15,13-.18,1.63-.03,3.23-.09,4.79-.18.92-.03,1.84-.09,2.74-.15Z"/>
          <path class="cls-20" d="M336.8,142.48c-.55,4.7-1.75,9.13-3.56,13.25-5.59,12.85-17,22.68-33.25,29.01-2.37.92-4.83,1.78-7.38,2.55-.89.06-1.81.12-2.74.15-1.57.09-3.17.15-4.79.18-3.35.03-9.53.12-13,.18-1.94-.09-3.87-.18-5.81-.34-1.97-.12-3.93-.28-5.9-.46-1.75-.15-3.47-.31-5.26-.52-1.66-.18-3.35-.37-5.04-.58-.58-.06-1.17-.12-1.75-.22-1.63-.22-3.23-.43-4.89-.68-1.78-.25-3.63-.52-5.44-.83-.25-.03-.46-.06-.71-.09-1.94-.34-3.87-.65-5.81-1.01-2.03-.37-4.06-.74-6.12-1.14-2.06-.4-4.12-.83-6.18-1.26-1.66-.34-3.32-.71-5.01-1.08-1.66-.37-3.32-.74-5.01-1.14-1.66-.4-3.35-.8-5.04-1.23-1.44-.34-2.89-.71-4.36-1.08-2-.52-4.03-1.04-6.08-1.6-2.18-.58-4.36-1.17-6.55-1.81-2.21-.61-4.43-1.23-6.64-1.91-2.24-.65-4.49-1.32-6.73-2-1.54-.46-3.07-.92-4.61-1.41-5.47-6.02-9.34-13.03-11.4-21.08v-.03c-1.17-4.43-1.75-9.19-1.75-14.26v-4.03h7.5c8.3,1.97,16.47,3.84,24.56,5.56,12.14,2.58,24.09,4.89,35.8,6.79,4.21,8.14,12.63,13.03,23.94,13.03,8.3,0,15.67-2.98,20.1-7.62,3.41.28,6.82.55,10.17.74,3.9,0,9.65-.03,13.46-.06,15.52-.12,29.6-1.32,42.13-3.47,1.04-.15,2.09-.34,3.13-.52Z"/>
          <path class="cls-21" d="M337.17,136.06c0,2.21-.12,4.33-.37,6.42-1.04.18-2.09.37-3.13.52-12.54,2.15-26.61,3.35-42.13,3.47-3.81.03-9.56.06-13.46.06-3.35-.18-6.76-.46-10.17-.74,2.77-2.86,4.39-6.39,4.39-10.23,0-14.81-28.3-21.36-51.42-28.12-9.34-2.77-17.49-5.72-24.59-8.91,29.6,3.07,55.75,4.52,84.58,6.31,4.36.03,12.69,1.13,16.93,1.16,9,.06,17.64-.06,25.91-.31,4.55,4.03,7.78,8.21,9.9,12.69,2.55,5.38,3.56,11.19,3.56,17.67Z"/>
          <path class="cls-21" d="M223.86,140.39c-11.71-1.91-23.66-4.21-35.8-6.79-8.08-1.72-16.26-3.6-24.56-5.56h57.38c.09,4.64,1.14,8.79,2.98,12.35Z"/>
          <path class="cls-30" d="M323.71,105.7c0,.07-2.04.09-2.46.09-1.48.03-2.97.05-4.45.08-3.9.07-7.79.1-11.69.11-10.06.02-20.12-.22-30.17-.84-.66-.04-1.32-.08-1.98-.13-25.23-1.68-50.89-3.8-76.66-6.47-14.57-6.52-24.52-14.01-30.24-22.93-2.61-4.09-4.43-9.04-5.29-13.74,4.27-.03,9.11.01,13.38-.05,12.39-.06,24.09.28,36.61.45,4.21.06,9.14.22,14.41.36.52.01.85.02,1.52.03h.77c.51.03.62.03,1.04.04.25.25.5.5.77.74,5.96,5.59,18.41,9.87,37.49,15.86,28.73,8.97,46.47,17.24,56.95,26.4Z"/>
          <path class="cls-13" d="M228.49,62.7c-.63-.67-1.52-1.9-1.98-2.62-22.34-.62-44.27-1.38-66.26-1.4.1.91.34,2.31.51,3.2,22.36-.23,44.94.34,67.73.83Z"/>
          <path class="cls-41" d="M226.52,60.08c-.52-.81-.62-1.11-.91-2-21.97-.6-43.71-.81-65.35-.85.04.85-.09.61,0,1.44,21.99.03,43.92.79,66.26,1.4Z"/>
          <path class="cls-15" d="M280.16,57.94h-9.59c-.03-.18-.09-.34-.12-.52,2.89.15,5.75.28,8.67.46.34.03.68.06,1.04.06Z"/>
          <path class="cls-15" d="M225.6,58.08c-.27-.8-.42-1.64-.5-2.52-21.83-.59-43.45-.81-64.96-.85,0,.08,0,.15,0,.22,0,.78.08.85.12,1.61,21.64.04,43.38.94,65.35,1.53Z"/>
          <path class="cls-32" d="M335.11,57.94h-54.95c-.37,0-.71-.03-1.04-.06-2.92-.18-5.78-.31-8.67-.46-.22-.89-.43-1.75-.68-2.55,3.41.18,6.82.37,10.23.58,4.83.28,9.71.74,14.48.92,4.73.15,9.31.15,13.86.25,8.17.15,16.17.31,23.88.43.95.03,1.87.03,2.83.06.03.28.06.55.06.83Z"/>
          <path class="cls-32" d="M225.11,55.56c-.07-.48-.09-.87-.09-1.16,0-.23.01-.44.02-.55.02-.32.05-.6.07-.8-10.73-.28-21.58-.5-32.55-.63-10.81-.14-21.57-.2-32.32-.23-.06.83-.1,1.68-.1,2.52,21.51.04,43.13.26,64.96.85Z"/>
          <path class="cls-23" d="M335.05,57.11c-.95-.03-1.87-.03-2.83-.06-7.71-.12-15.7-.28-23.88-.43-4.55-.09-9.13-.09-13.86-.25-4.76-.18-9.65-.65-14.48-.92-3.41-.22-6.82-.4-10.23-.58-.25-.89-.55-1.72-.86-2.55,4,.22,7.99.43,12.02.68,4.79.31,9.68.77,14.44.92,4.67.18,9.19.18,13.71.28,7.87.12,15.52.31,22.96.43.98.03,1.94.03,2.92.06.03.8.09,1.6.09,2.43Z"/>
          <path class="cls-23" d="M225.82,50.59c-.13.32-.23.6-.3.8-.1.28-.15.43-.21.65-.01.05-.07.28-.13.59-.03.16-.05.31-.07.41h-.34c-16.5-.46-32.88-.68-49.2-.77-5.1-.06-10.23-.09-15.34-.09.06-.55.12-1.11.21-1.66,0-.31.06-.58.09-.86,5.04,0,10.05.03,15.09.09,16.66.09,33.34.37,50.19.83Z"/>
          <path class="cls-8" d="M334.95,54.68c-.98-.03-1.94-.03-2.92-.06-7.44-.12-15.09-.31-22.96-.43-4.52-.09-9.04-.09-13.71-.28-4.76-.15-9.65-.61-14.44-.92-4.03-.25-8.02-.46-12.02-.68-.37-.89-.77-1.75-1.2-2.55,4.7.25,9.4.49,14.14.8,4.79.31,9.65.77,14.41.92,4.61.15,9.13.18,13.58.28,7.53.12,14.84.31,21.97.43.98.03,1.97.03,2.92.06.09.8.15,1.6.22,2.43Z"/>
          <path class="cls-8" d="M227.24,48.13c-.58.77-1.04,1.6-1.41,2.46-16.84-.46-33.53-.74-50.19-.83-5.04-.06-10.05-.09-15.09-.09.09-.61.22-1.23.34-1.81.06-.25.09-.46.15-.71,4.79.03,9.62.06,14.44.09,17.15.12,34.39.4,51.75.89Z"/>
          <path class="cls-38" d="M334.74,52.25c-.95-.03-1.94-.03-2.92-.06-7.13-.12-14.44-.31-21.97-.43-4.46-.09-8.97-.12-13.58-.28-4.76-.15-9.62-.61-14.41-.92-4.73-.31-9.43-.55-14.14-.8-.49-.95-1.08-1.78-1.69-2.58,5.59.28,11.16.58,16.78.95,4.76.31,9.62.77,14.35.92,4.58.15,9.04.18,13.46.28,7.1.12,14.04.28,20.81.43,1.01.03,2.03.03,3.04.06.12.8.21,1.6.28,2.43Z"/>
          <path class="cls-38" d="M229.51,45.71c-.89.74-1.66,1.57-2.27,2.43-17.36-.49-34.6-.77-51.75-.89-4.83-.03-9.65-.06-14.44-.09.15-.65.31-1.32.49-1.97.06-.18.09-.34.15-.52,4.52.03,9.04.03,13.55.06,17.98.15,36.05.43,54.27.98Z"/>
          <path class="cls-10" d="M334.46,49.82c-1.01-.03-2.03-.03-3.04-.06-6.76-.15-13.71-.31-20.81-.43-4.43-.09-8.88-.12-13.46-.28-4.73-.15-9.59-.61-14.35-.92-5.62-.37-11.19-.68-16.78-.95-.74-.98-1.57-1.84-2.49-2.61,6.73.34,13.46.71,20.22,1.14,4.76.31,9.59.77,14.32.92,4.52.15,8.94.18,13.31.28,6.7.12,13.21.28,19.58.43,1.01.03,2.06.03,3.07.06.15.8.31,1.6.43,2.43Z"/>
          <path class="cls-10" d="M232.95,43.31c-1.29.71-2.43,1.51-3.44,2.4-18.22-.55-36.3-.83-54.27-.98-4.52-.03-9.04-.03-13.55-.06.25-.74.46-1.41.71-2.12.06-.12.09-.28.15-.4,4.06.03,8.14.06,12.23.09,19.27.15,38.63.46,58.18,1.08Z"/>
          <path class="cls-28" d="M334.03,47.4c-1.01-.03-2.06-.03-3.07-.06-6.36-.15-12.88-.31-19.58-.43-4.36-.09-8.79-.12-13.31-.28-4.73-.15-9.56-.61-14.32-.92-6.76-.43-13.49-.8-20.22-1.14-1.29-1.11-2.77-2-4.36-2.7,8.48.4,17,.86,25.57,1.41,4.73.31,9.56.8,14.26.92,4.49.12,8.85.18,13.18.28,6.27.12,12.39.28,18.35.4,1.01.03,2.03.03,3.01.06.18.8.34,1.63.49,2.46Z"/>
          <path class="cls-28" d="M238.67,41.03c-2.09.58-4,1.35-5.72,2.27-19.55-.61-38.91-.92-58.18-1.08-4.09-.03-8.17-.06-12.23-.09.31-.74.61-1.48.95-2.21.03-.09.09-.18.12-.28,3.5.03,7.01.03,10.54.09,21.36.15,42.81.52,64.51,1.29Z"/>
          <path class="cls-51" d="M333.54,44.94c-.98-.03-2-.03-3.01-.06-5.96-.12-12.08-.28-18.35-.4-4.33-.09-8.7-.15-13.18-.28-4.7-.12-9.53-.61-14.26-.92-8.57-.55-17.09-1.01-25.57-1.41-3.26-1.38-7.16-2-11.71-2-3.1,0-6.09.4-8.79,1.17-21.7-.77-43.15-1.14-64.51-1.29-3.53-.06-7.04-.06-10.54-.09.37-.8.77-1.6,1.2-2.37.03-.03.03-.09.06-.12,2.83.03,5.69.03,8.51.06,36.94.31,74.19,1.14,112.33,3.63,4.73.31,9.53.8,14.23.92,4.43.12,8.76.22,13.06.31,5.78.12,11.46.25,17.03.37.92.03,1.87.03,2.8.06.25.8.49,1.6.71,2.43Z"/>
          <path class="cls-36" d="M285.71,40.86c4.73.3,9.53.79,14.23.92,4.43.13,8.77.19,13.06.29,6.78.15,13.38.3,19.83.44-.25-.83-.52-1.64-.81-2.44-5.92-.13-11.99-.27-18.2-.41-4.25-.1-8.55-.18-12.93-.29-4.69-.13-9.48-.61-14.19-.92-40.87-2.71-80.76-3.49-120.34-3.77-.53.82-1.02,1.65-1.49,2.49,39.74.25,79.78,1.01,120.83,3.7Z"/>
          <path class="cls-11" d="M286.71,38.44c4.71.31,9.5.79,14.19.92,4.38.12,8.68.2,12.93.29,6.21.14,12.27.28,18.2.41-.3-.82-.6-1.65-.95-2.45-5.36-.12-10.82-.25-16.41-.38-4.2-.1-8.46-.19-12.79-.3-4.68-.12-9.45-.61-14.15-.92-40.62-2.71-80.27-3.53-119.64-3.84-.61.82-1.18,1.65-1.72,2.49,39.59.28,79.47,1.07,120.34,3.77Z"/>
          <path class="cls-39" d="M287.73,36.02c4.7.31,9.47.8,14.15.92,4.33.11,8.59.2,12.79.3,5.59.13,11.05.26,16.41.38-.48-1.09-1.01-2.15-1.57-3.19-8.7-.21-17.71-.43-27.01-.65-4.67-.11-9.36-.46-14.11-.92-40.22-1.42-79.81-1.68-119.35-1.93-.33.41-.63.83-.94,1.25,39.36.31,79.02,1.13,119.64,3.84Z"/>
          <path class="cls-14" d="M288.38,32.86c4.75.47,9.44.81,14.11.92,9.3.22,18.31.44,27.01.65-.24-.45-.51-.89-.77-1.33-8.64-.21-17.61-.43-26.9-.66-6.43-.5-13-1.13-19.06-1.34-37.66-1.32-74.87-1.86-111.95-2.29-.62.7-1.22,1.41-1.79,2.13,39.54.25,79.13.51,119.35,1.93Z"/>
          <path class="cls-47" d="M282.78,31.09c6.06.21,12.64.85,19.06,1.34,9.29.23,18.26.45,26.9.66-.37-.63-.76-1.26-1.16-1.87-8.54-.21-17.42-.44-26.66-.67-8.18-.88-16.58-1.68-24.03-1.77-35.1-.44-70.02-.78-104.93-1.23-.39.41-.77.83-1.14,1.25,37.08.44,74.29.97,111.95,2.29Z"/>
          <path class="cls-37" d="M276.89,28.78c7.45.09,15.84.89,24.03,1.77,9.23.23,18.12.46,26.66.67-.42-.64-.88-1.26-1.34-1.88-8.38-.22-17.12-.44-26.23-.68-9.95-1.27-20.17-2.25-29-2.2-32.54.15-65.07.04-97.65-.36-.48.48-.94.96-1.4,1.45,34.91.44,69.83.78,104.93,1.23Z"/>
          <path class="cls-34" d="M271.01,26.46c8.83-.04,19.06.94,29,2.2,9.11.24,17.85.46,26.23.68-.46-.62-.91-1.25-1.41-1.86-8.18-.22-16.76-.45-25.72-.68-11.71-1.66-23.78-2.84-33.99-2.64-29.93.57-59.95.64-90.04.32-.59.54-1.17,1.07-1.72,1.62,32.57.4,65.11.51,97.65.36Z"/>
          <path class="cls-1" d="M265.13,24.16c10.21-.19,22.28.99,33.99,2.64,8.96.24,17.54.47,25.72.68-.52-.63-1.1-1.23-1.67-1.84-7.9-.22-16.21-.44-24.93-.68-13.47-2.05-27.4-3.46-38.98-3.09-27.27.88-54.69,1.09-82.2.87-.68.57-1.33,1.14-1.97,1.73,30.1.32,60.12.25,90.04-.32Z"/>
          <path class="cls-27" d="M259.25,21.88c11.58-.37,25.51,1.04,38.98,3.09,8.72.24,17.04.47,24.93.68-.57-.61-1.15-1.22-1.76-1.82-7.57-.21-15.59-.44-24.03-.68-15.23-2.44-31.05-4.1-43.99-3.54-24.56,1.09-49.29,1.43-74.1,1.33-.76.59-1.5,1.19-2.23,1.8,27.51.22,54.93,0,82.2-.87Z"/>
          <path class="cls-25" d="M253.39,19.62c12.94-.57,28.76,1.1,43.99,3.54,8.44.24,16.46.46,24.03.68-.63-.61-1.26-1.21-1.94-1.8-7.18-.21-14.84-.43-22.94-.67-17-2.83-34.71-4.78-49-3.99-21.78,1.23-43.72,1.69-65.75,1.74-.85.6-1.68,1.22-2.5,1.85,24.82.1,49.55-.25,74.1-1.33Z"/>
          <path class="cls-29" d="M319.47,22.04c-7.19-.22-14.84-.43-22.93-.68-17-2.83-34.73-4.79-49.02-4-21.08,1.2-42.35,1.66-63.68,1.75h-2.06c.89-.65,1.84-1.29,2.8-1.87,1.01,0,2.03-.03,3.04-.03l.03-.03c18.1-.18,36.11-.83,54.03-2.06,15.61-1.04,35.25,1.23,54.03,4.46,7.65.25,14.84.46,21.54.65.31.25.58.49.89.74.34.25.68.52.98.8.12.09.22.18.34.28Z"/>
          <path class="cls-7" d="M317.25,20.23c-6.7-.18-13.89-.4-21.54-.65-18.78-3.23-38.42-5.5-54.03-4.46-17.92,1.23-35.93,1.87-54.03,2.06l-.03.03c-1.01,0-2.03.03-3.04.03.98-.65,2-1.29,3.04-1.91,1.29-.03,2.58-.06,3.87-.09,14.87-.34,29.69-1.01,44.38-2.21,16.93-1.35,38.54,1.29,59.07,4.92,7.22.22,13.92.43,20.13.65.77.52,1.48,1.08,2.18,1.63Z"/>
          <path class="cls-50" d="M315.07,18.6c-6.21-.22-12.91-.43-20.13-.65-20.53-3.63-42.13-6.27-59.07-4.92-14.69,1.2-29.5,1.87-44.38,2.21-1.29.03-2.58.06-3.87.09,1.04-.58,2.12-1.2,3.23-1.78,1.38-.03,2.77-.09,4.15-.15l.03-.03s.03.03.06,0t.06,0c11.71-.43,23.42-1.14,35.04-2.21,18.22-1.69,41.8,1.35,64.08,5.35,6.79.25,13.06.46,18.72.65.71.46,1.41.95,2.09,1.44Z"/>
          <path class="cls-46" d="M312.98,17.16c-5.65-.18-11.92-.4-18.72-.65-22.28-4-45.85-7.04-64.08-5.35-11.62,1.08-23.33,1.78-35.04,2.21t-.06,0s-.03.03-.06,0l-.03.03c-1.38.06-2.77.12-4.15.15,1.26-.68,2.55-1.32,3.9-1.94,1.48-.09,2.92-.15,4.39-.25.06,0,.09,0,.12-.03,8.42-.49,16.87-1.14,25.26-2.06,19.42-2.09,45.05,1.44,69.09,5.84,6.33.25,12.08.43,17.12.61.77.46,1.54.95,2.24,1.41Z"/>
          <path class="cls-26" d="M310.74,15.74c-5.04-.18-10.79-.37-17.12-.61-24.03-4.39-49.66-7.93-69.09-5.84-8.39.92-16.84,1.57-25.26,2.06-.03.03-.06.03-.12.03-1.48.09-2.92.15-4.39.25,1.63-.77,3.35-1.54,5.07-2.24,1.29-.09,2.61-.22,3.9-.34.03,0,.06-.03.06-.03,5.04-.4,10.08-.92,15.09-1.54,20.65-2.52,48.34,1.51,74.16,6.3,5.9.28,11.16.49,15.49.68.77.43,1.51.86,2.21,1.29Z"/>
          <path class="cls-45" d="M308.52,14.45c-4.33-.18-9.59-.4-15.49-.68-25.82-4.79-53.51-8.82-74.16-6.3-5.01.61-10.05,1.14-15.09,1.54,0,0-.03.03-.06.03-1.29.12-2.61.25-3.9.34,3.29-1.35,6.73-2.55,10.3-3.63.95-.15,1.94-.31,2.89-.49,1.04-.09,2.12-.18,3.2-.25.61-.03,1.23-.09,1.84-.09,1.94-.12,3.96-.18,5.99-.22h.25c20.5-.31,44.81,2.98,67.95,7.35,4.43.34,8.76.55,13.06.68,1.11.55,2.18,1.14,3.23,1.72Z"/>
          <path class="cls-49" d="M305.3,12.73c-4.3-.12-8.64-.34-13.06-.68-23.14-4.36-47.45-7.65-67.95-7.35h-.25c-2.03.03-4.06.09-5.99.22-.61,0-1.23.06-1.84.09-1.08.06-2.15.15-3.2.25-.95.18-1.94.34-2.89.49,2.43-.71,4.95-1.38,7.47-1.97,5.22-.49,10.82-.61,16.69-.4h.22c18.16.61,38.78,4.03,58.27,7.5,3.29.25,6.52.37,9.71.49.95.43,1.91.89,2.83,1.35Z"/>
          <path class="cls-12" d="M302.47,11.38c-3.2-.12-6.42-.25-9.71-.49-19.48-3.47-40.11-6.88-58.27-7.5h-.22c-5.87-.22-11.46-.09-16.69.4,3.23-.77,6.55-1.41,9.9-1.94,6.24-.09,12.88.28,19.73.92.15-.03.34,0,.49.03,14.72,1.32,30.39,3.96,45.36,6.48,1.81.12,3.53.18,5.29.28,1.44.58,2.8,1.2,4.12,1.81Z"/>
          <path class="cls-33" d="M298.35,9.56c-1.75-.09-3.47-.15-5.29-.28-14.97-2.52-30.64-5.16-45.36-6.48-.15-.03-.34-.06-.49-.03-6.85-.65-13.49-1.01-19.73-.92,3.63-.58,7.34-.98,11.09-1.26,8.88.49,18.29,1.57,27.75,2.92,9.07,1.26,18.19,2.77,27.08,4.18h.12c.06,0,.09.03.12.03.25.06.49.15.74.25,1.35.52,2.67,1.04,3.96,1.6Z"/>
          <path class="cls-48" d="M293.53,7.69h-.12c-8.88-1.41-18.01-2.92-27.08-4.18-9.47-1.35-18.87-2.43-27.75-2.92,3.5-.28,7.04-.43,10.6-.43,1.2,0,2.4.06,3.56.09,7.9.89,16.04,2.03,24.09,3.26,2.34.37,4.67.71,7.01,1.08,3.32.89,6.52,1.91,9.68,3.1Z"/>
          <path class="cls-22" d="M283.85,4.59c-2.34-.37-4.67-.71-7.01-1.08-8.05-1.23-16.2-2.37-24.09-3.26,9.56.22,18.44,1.32,26.8,3.26,1.44.34,2.89.68,4.3,1.08Z"/>
        </g>
      </g>
    </g>
  </g>
</svg>