<?xml version="1.0" encoding="UTF-8"?>
<svg id="Layer_2" data-name="Layer 2" xmlns="http://www.w3.org/2000/svg" viewBox="0 0 112.73 62.99">
  <defs>
    <style>
      .cls-1 {
        fill: #c77189;
      }

      .cls-2 {
        fill: none;
      }

      .cls-3 {
        fill: #385756;
      }

      .cls-4 {
        fill: #2d3838;
      }

      .cls-5 {
        fill: #c98b6d;
      }

      .cls-6 {
        fill: #7a758c;
      }

      .cls-7 {
        fill: #8d6f91;
      }

      .cls-8 {
        fill: #b15d98;
      }

      .cls-9 {
        fill: #c7ae3e;
      }

      .cls-10 {
        fill: #3a827e;
      }

      .cls-11 {
        fill: #c34f9d;
      }

      .cls-12 {
        fill: #597d84;
      }

      .cls-13 {
        fill: #303f3f;
      }

      .cls-14 {
        fill: #3a5f5e;
      }

      .cls-15 {
        fill: #3c6866;
      }

      .cls-16 {
        fill: #3c706e;
      }

      .cls-17 {
        fill: #b1b362;
      }

      .cls-18 {
        fill: #70788a;
      }

      .cls-19 {
        fill: #c87f7c;
      }

      .cls-20 {
        fill: #cc9e4e;
      }

      .cls-21 {
        fill: #c77883;
      }

      .cls-22 {
        fill: #966b93;
      }

      .cls-23 {
        fill: #c88575;
      }

      .cls-24 {
        fill: #3c7976;
      }

      .cls-25 {
        fill: #657b87;
      }

      .cls-26 {
        fill: #c0af4a;
      }

      .cls-27 {
        fill: #c66a8e;
      }

      .cls-28 {
        fill: #364f4e;
      }

      .cls-29 {
        fill: #a86296;
      }

      .cls-30 {
        fill: #c56193;
      }

      .cls-31 {
        fill: #84728f;
      }

      .cls-32 {
        fill: #ba569a;
      }

      .cls-33 {
        fill: #4b8081;
      }

      .cls-34 {
        fill: #293031;
      }

      .cls-35 {
        fill: #25282a;
      }

      .cls-36 {
        fill: #334747;
      }

      .cls-37 {
        fill: #cda540;
      }

      .cls-38 {
        fill: #cb985a;
      }

      .cls-39 {
        fill: #c45997;
      }

      .cls-40 {
        fill: #b8b156;
      }

      .cls-41 {
        fill: #ceac31;
      }

      .cls-42 {
        fill: #ca9265;
      }

      .cls-43 {
        fill: #9f6795;
      }
    </style>
  </defs>
  <g id="Layer_12" data-name="Layer 12">
    <g>
      <path class="cls-2" d="M55.82,22.04c-1.24,2.46-3.36,4.61-6.3,6.23-.64.35-1.31.68-2.02.98,7.17,1.87,11.54,5.4,13.07,10.35.2.64.35,1.31.46,2h-4.82c1.66.4,3.31.78,4.95,1.15,1.28.28,2.55.56,3.81.82,1.21.26,2.42.51,3.62.74,1.33.26,2.66.51,3.97.74,1.11.2,2.2.39,3.29.57,1.37,2.65,4.12,4.24,7.79,4.24,2.71,0,5.11-.97,6.55-2.48.9-.93,1.43-2.07,1.43-3.33,0-4.82-9.21-6.94-16.74-9.15-3.03-.9-5.68-1.86-7.99-2.89-6.05-2.7-9.65-5.94-11.07-9.97Z"/>
      <path class="cls-2" d="M34.74,22.71c.88-.51,1.58-1.33,1.88-2.32.11-.37.18-.77.2-1.2.02-.29,0-.6-.03-.88-.04-.31-.11-.61-.2-.88-.11-.32-.26-.61-.45-.88-.22-.33-.5-.63-.84-.89-.49-.37-1.11-.67-1.84-.89-1.49-.44-3.03-.56-4.6-.56h-8.54v9.77h8.42c2.06-.03,4.22-.19,6-1.27Z"/>
      <path class="cls-35" d="M0,36.51c7.58,8.91,14.51,17.78,20.61,26.48h3.34c-7.04-9.29-15.09-18.81-23.95-28.39v1.91Z"/>
      <path class="cls-34" d="M0,32.76v1.84c8.86,9.58,16.91,19.1,23.95,28.39h3.67c.08,0,.15,0,.23,0C19.74,53.16,10.37,42.99,0,32.76Z"/>
      <path class="cls-4" d="M0,30.98v1.78c10.37,10.23,19.74,20.4,27.85,30.22,1.65,0,3.16-.01,4.55-.04C23.08,52.61,12.17,41.81,0,30.98Z"/>
      <path class="cls-13" d="M0,29.83v1.15c12.17,10.83,23.08,21.63,32.4,31.96.32-.01.62-.02.92-.03-4.25-4.42-8.74-8.99-13.44-13.68-6.3-6.29-12.96-12.79-19.88-19.4Z"/>
      <path class="cls-36" d="M5.2,32.63c-.13-.12-.26-.23-.39-.34-.86-.74-1.72-1.49-2.59-2.24-.34-.29-.67-.58-1.01-.87-.4-.34-.81-.69-1.21-1.04v1.69c6.92,6.61,13.58,13.11,19.88,19.4,4.7,4.69,9.19,9.26,13.44,13.68,2.24-.06,4.17-.17,5.88-.35-4.86-4.35-10-8.93-15.39-13.68h-3.59v-3.16c-1.59-1.39-3.19-2.8-4.82-4.22-3.33-2.92-6.73-5.88-10.2-8.87Z"/>
      <path class="cls-28" d="M0,28.14c.4.35.81.7,1.21,1.04.34.29.67.58,1.01.87.87.75,1.73,1.5,2.59,2.24.13.11.26.22.39.34,3.47,2.99,6.87,5.95,10.2,8.87,1.63,1.42,3.23,2.83,4.82,4.22v-4.14c-6.41-4.84-13.15-9.92-20.22-15.14v1.7Z"/>
      <path class="cls-3" d="M0,26.44c7.07,5.22,13.81,10.3,20.22,15.14v-3.92c-6.47-4.06-13.22-8.33-20.22-12.78v1.56Z"/>
      <path class="cls-14" d="M0,24.88c7,4.45,13.75,8.72,20.22,12.78v-.25h8.01c-8.97-4.26-18.38-8.96-28.23-14.05v1.52Z"/>
      <path class="cls-16" d="M47.5,29.25c.71-.3,1.38-.63,2.02-.98-9.28-1.31-18.74-2.75-28.38-4.29h-.82v-.13s-.07-.01-.1-.02c-.83-.13-1.67-.26-2.5-.4-.82-.13-1.65-.27-2.48-.4-.41-.07-.83-.14-1.25-.21-1.25-.2-2.5-.4-3.75-.61-3.39-.56-6.8-1.13-10.24-1.71v1.28c21.63,6.14,41.83,12.71,60.57,17.82-1.53-4.95-5.9-8.48-13.07-10.35Z"/>
      <path class="cls-24" d="M13.99,22.82c.42.07.84.14,1.25.21.83.13,1.66.27,2.48.4.83.14,1.67.27,2.5.4.03.01.07.01.1.02v-3.64h-.1c-6.63-.17-13.35-.5-20.22-1.05v1.34c3.44.58,6.85,1.15,10.24,1.71,1.25.21,2.5.41,3.75.61Z"/>
      <path class="cls-10" d="M20.32,20.21v-1.13h-.1c-6.46-.11-12.97-.29-19.59-.62-.21-.01-.42-.01-.63-.01v.71c6.87.55,13.59.88,20.22,1.05h.1Z"/>
      <path class="cls-33" d="M20.22,19.08h.1v-.91h-.1c-6.05-.1-12.13-.28-18.31-.59-.65-.03-1.28-.04-1.91-.05v.92c.21,0,.42,0,.63.01,6.62.33,13.13.51,19.59.62Z"/>
      <path class="cls-12" d="M20.22,18.17h.1v-.9h-.1c-5.63-.11-11.29-.28-17.03-.57-1.08-.05-2.14-.07-3.19-.08v.91c.63.01,1.26.02,1.91.05,6.18.31,12.26.49,18.31.59Z"/>
      <path class="cls-25" d="M20.22,17.27h.1v-.9h-.1c-5.21-.11-10.44-.28-15.74-.54-1.52-.08-3-.09-4.48-.1v.89c1.05.01,2.11.03,3.19.08,5.74.29,11.4.46,17.03.57Z"/>
      <path class="cls-18" d="M20.22,16.37h.1v-.91h-.1c-4.78-.11-9.58-.26-14.44-.5-1.96-.1-3.86-.09-5.78-.12v.89c1.48,0,2.96.02,4.48.1,5.3.26,10.53.43,15.74.54Z"/>
      <path class="cls-6" d="M20.22,15.46h.1v-.91h-.1c-4.35-.1-8.72-.25-13.14-.46-2.08-.11-4.1-.09-6.15-.13-.31,0-.62-.01-.93-.02v.9c1.92.03,3.82.02,5.78.12,4.86.24,9.66.39,14.44.5Z"/>
      <path class="cls-31" d="M7.08,14.09c4.42.21,8.79.36,13.14.46h.1v-.34h8.54c1.57,0,3.11.12,4.6.56,7.38.06,14.72.04,22.07.03-.04.16-.08.32-.12.48.55,0,1.11,0,1.66.01,6.59.03,13.2.12,19.88.31.21-.28.46-.55.74-.79-6.95-.21-13.84-.3-20.7-.33-.45-.01-.91-.01-1.36-.01.05-.18.11-.36.17-.53-2.68,0-5.36,0-8.05,0-1.6,0-3.2,0-4.81-.01-3.53,0-7.08-.02-10.64-.06-2.18-.03-4.34-.05-6.52-.1-.94-.01-1.88-.03-2.83-.06-1.52-.03-3.05-.07-4.59-.12h-.01c-.45-.01-.91-.02-1.37-.04-.65-.02-1.3-.04-1.96-.07-.75-.02-1.5-.05-2.25-.08-1.45-.06-2.91-.12-4.37-.19-2.09-.1-4.1-.09-6.16-.13-.75-.01-1.49-.03-2.24-.05v.9c.31.01.62.02.93.02,2.05.04,4.07.02,6.15.13Z"/>
      <path class="cls-7" d="M8.4,13.22c1.46.07,2.92.13,4.37.19.75.03,1.5.06,2.25.08.66.03,1.31.05,1.96.07.46.02.92.03,1.37.04h.01c1.54.05,3.07.09,4.59.12.95.03,1.89.05,2.83.06,2.18.05,4.34.07,6.52.1,3.56.04,7.11.06,10.64.06,1.61.01,3.21.01,4.81.01,2.69,0,5.37,0,8.05,0-.06.17-.12.35-.17.53.45,0,.91,0,1.36.01,6.86.03,13.75.12,20.7.33.33-.29.71-.55,1.12-.78-7.39-.23-14.71-.33-21.99-.37-.3-.01-.61-.01-.91-.01.07-.19.15-.38.23-.56-2.8,0-5.59,0-8.39-.01-4.78,0-9.57-.02-14.38-.07-4.83-.05-9.69-.15-14.58-.3-3.01-.09-6.03-.21-9.07-.35-2.09-.11-4.1-.09-6.16-.14-1.19-.02-2.37-.05-3.56-.07v.89c.75.02,1.49.04,2.24.05,2.06.04,4.07.03,6.16.13Z"/>
      <path class="cls-22" d="M9.72,12.36c3.04.14,6.06.26,9.07.35,4.89.15,9.75.25,14.58.3,4.81.05,9.6.07,14.38.07,2.8.01,5.59.01,8.39.01-.08.18-.16.37-.23.56.3,0,.61,0,.91.01,7.28.04,14.6.14,21.99.37.56-.3,1.18-.55,1.86-.74-8.09-.29-16.1-.4-24.06-.45h-.36c.07-.15.14-.29.23-.44-.02-.06-.04-.11-.06-.17-15.01-.01-30.01-.01-45.37-.74-2.09-.1-4.11-.09-6.16-.13-1.63-.04-3.26-.08-4.89-.11v.9c1.19.02,2.37.05,3.56.07,2.06.05,4.07.03,6.16.14Z"/>
      <path class="cls-43" d="M11.05,11.49c15.36.73,30.36.73,45.37.74-.1-.29-.22-.57-.35-.86-14.46-.02-28.91-.04-43.68-.74-2.09-.1-4.11-.09-6.17-.14-2.07-.04-4.14-.09-6.22-.14v.9c1.63.03,3.26.07,4.89.11,2.05.04,4.07.03,6.16.13Z"/>
      <path class="cls-29" d="M12.39,10.63c14.77.7,29.22.72,43.68.74-.12-.29-.25-.57-.4-.85-13.89-.04-27.78-.08-41.94-.74-2.08-.1-4.1-.1-6.16-.15-2.52-.06-5.04-.12-7.57-.18v.9c2.08.05,4.15.1,6.22.14,2.06.05,4.08.04,6.17.14Z"/>
      <path class="cls-8" d="M13.73,9.78c14.16.66,28.05.7,41.94.74-.15-.3-.32-.58-.5-.86-13.28-.04-26.57-.12-40.08-.74-2.08-.1-4.11-.1-6.17-.15-2.97-.07-5.94-.14-8.92-.21v.89c2.53.06,5.05.12,7.57.18,2.06.05,4.08.05,6.16.15Z"/>
      <path class="cls-32" d="M15.09,8.92c13.51.62,26.8.7,40.08.74-.1-.17-.21-.33-.33-.5-12.72-.16-25.51-.48-38.55-1.36-2.06-.05-4.12-.11-6.18-.16-3.36-.08-6.73-.17-10.11-.25v1.17c2.98.07,5.95.14,8.92.21,2.06.05,4.09.05,6.17.15Z"/>
      <path class="cls-11" d="M16.29,7.8c13.04.88,25.83,1.2,38.55,1.36-.18-.27-.38-.54-.58-.8-12.09-.17-24.19-.42-36.4-.99-2.08-.1-4.1-.11-6.16-.16-3.88-.1-7.79-.2-11.7-.3v.48c3.38.08,6.75.17,10.11.25,2.06.05,4.12.11,6.18.16Z"/>
      <path class="cls-39" d="M17.86,7.37c12.21.57,24.31.82,36.4.99-.14-.17-.29-.33-.44-.5-11.47-.24-22.95-.57-34.51-1.11-2.06-.1-4.09-.12-6.14-.17-4.37-.12-8.76-.23-13.17-.34v.67c3.91.1,7.82.2,11.7.3,2.06.05,4.08.06,6.16.16Z"/>
      <path class="cls-30" d="M19.31,6.75c11.56.54,23.04.87,34.51,1.11-.17-.19-.33-.39-.51-.57-10.82-.27-21.66-.64-32.54-1.16-2.05-.1-4.07-.12-6.12-.18-4.85-.13-9.74-.26-14.65-.39v.68c4.41.11,8.8.22,13.17.34,2.05.05,4.08.07,6.14.17Z"/>
      <path class="cls-27" d="M20.77,6.13c10.88.52,21.72.89,32.54,1.16-.2-.21-.42-.41-.63-.6-10.13-.29-20.27-.69-30.43-1.17-2.05-.1-4.07-.13-6.11-.19-5.34-.16-10.73-.31-16.14-.46v.69c4.91.13,9.8.26,14.65.39,2.05.06,4.07.08,6.12.18Z"/>
      <path class="cls-1" d="M22.25,5.52c10.16.48,20.3.88,30.43,1.17-.22-.21-.44-.42-.68-.62-9.42-.3-18.84-.7-28.27-1.15-2.04-.1-4.06-.14-6.08-.2-5.84-.18-11.73-.35-17.65-.52v.67c5.41.15,10.8.3,16.14.46,2.04.06,4.06.09,6.11.19Z"/>
      <path class="cls-21" d="M23.73,4.92c9.43.45,18.85.85,28.27,1.15-.26-.22-.54-.43-.82-.63-8.65-.3-17.31-.69-25.95-1.11-2.03-.1-4.05-.15-6.07-.21-6.33-.19-12.73-.39-19.16-.58v.66c5.92.17,11.81.34,17.65.52,2.02.06,4.04.1,6.08.2Z"/>
      <path class="cls-19" d="M25.23,4.33c8.64.42,17.3.81,25.95,1.11-.29-.22-.59-.43-.9-.63-7.85-.3-15.71-.68-23.55-1.07-2.02-.09-4.04-.15-6.05-.21-6.83-.22-13.73-.43-20.68-.65v.66c6.43.19,12.83.39,19.16.58,2.02.06,4.04.11,6.07.21Z"/>
      <path class="cls-23" d="M26.73,3.74c7.84.39,15.7.77,23.55,1.07-.34-.23-.68-.45-1.04-.66-7.01-.29-14.02-.64-20.99-.98-2.02-.1-4.04-.16-6.04-.22-7.32-.24-14.74-.48-22.21-.72v.65c6.95.22,13.85.43,20.68.65,2.01.06,4.03.12,6.05.21Z"/>
      <path class="cls-5" d="M28.25,3.17c6.97.34,13.98.69,20.99.98-.37-.22-.75-.43-1.14-.63-6.12-.26-12.23-.58-18.31-.87-2-.1-4.02-.17-6.01-.23-7.84-.27-15.78-.53-23.78-.79v.6c7.47.24,14.89.48,22.21.72,2,.06,4.02.12,6.04.22Z"/>
      <path class="cls-42" d="M29.79,2.65c6.08.29,12.19.61,18.31.87-.38-.19-.78-.37-1.18-.55-5.19-.24-10.38-.52-15.53-.76-2-.1-4.01-.18-6-.24C17.04,1.68,8.55,1.39,0,1.11v.52c8,.26,15.94.52,23.78.79,1.99.06,4.01.13,6.01.23Z"/>
      <path class="cls-38" d="M31.39,2.21c5.15.24,10.34.52,15.53.76-.45-.2-.91-.39-1.38-.57-4.19-.2-8.38-.43-12.55-.63-1.98-.09-4-.17-5.97-.24C18.14,1.21,9.1.9,0,.59v.52c8.55.28,17.04.57,25.39.86,1.99.06,4,.14,6,.24Z"/>
      <path class="cls-20" d="M32.99,1.77c4.17.2,8.36.43,12.55.63-.56-.21-1.13-.41-1.72-.59-3.08-.15-6.15-.31-9.21-.45-1.98-.09-3.99-.18-5.95-.25C19.25.77,9.66.43,0,.1v.49c9.1.31,18.14.62,27.02.94,1.97.07,3.99.15,5.97.24Z"/>
      <path class="cls-37" d="M34.61,1.36c3.06.14,6.13.3,9.21.45-.99-.3-2.02-.56-3.07-.77-1.54-.08-3.07-.16-4.59-.22-1.97-.1-3.97-.18-5.94-.27-4.96-.15-9.97-.3-15.02-.45H0c9.66.33,19.25.67,28.66,1.01,1.96.07,3.97.16,5.95.25Z"/>
      <path class="cls-41" d="M36.16.82c1.52.06,3.05.14,4.59.22-.3-.06-.59-.13-.89-.18-1.69-.29-3.89-.5-6.59-.62h-.06c-.17,0-.35-.02-.52-.03-.18,0-.36-.01-.54-.02-1.67-.06-3.51-.09-5.54-.09h-11.41c5.05.15,10.06.3,15.02.45,1.97.09,3.97.17,5.94.27Z"/>
      <path class="cls-15" d="M93.5,47.62c-1.1-.06-2.21-.15-3.31-.24-1.44,1.51-3.84,2.48-6.55,2.48-3.67,0-6.42-1.59-7.79-4.24-1.09-.18-2.18-.37-3.29-.57-1.31-.23-2.64-.48-3.97-.74-1.2-.23-2.41-.48-3.62-.74-1.26-.26-2.53-.54-3.81-.82-1.64-.37-3.29-.75-4.95-1.15h4.82c-.11-.69-.26-1.36-.46-2C41.83,34.49,21.63,27.92,0,21.78v1.58c9.85,5.09,19.26,9.79,28.23,14.05,1.43.01,3.93-.05,5.31.09.03,0,.09-.01.11.01,2.32.24,5.09.7,6.49,2.77.41.58.62,1.27.69,1.96.01.01.01.03.01.05.01,0,.01.02,0,.04.04.27.04.6.01.88,1.37.61,2.74,1.21,4.1,1.8.51.22,1.01.43,1.5.64.5.22.99.43,1.49.64.28.12.57.24.85.36,2.04.86,4.05,1.69,6.04,2.48.63,1.75,1.56,3.33,2.74,4.75.16.19.32.37.48.55,12.32,3.84,23.48,6.16,33.5,6.62,1.12,0,3.13-.04,4.23-.06.83,0,1.65-.05,2.45-.11,8.4-2.54,13.54-7.57,14.37-14.58-4.33.8-9.24,1.27-14.73,1.31-1.23,0-3.1.01-4.37.01Z"/>
      <path class="cls-16" d="M112.62,42.21c-.36-2.98-1.59-5.52-4.28-7.87-2.69.07-5.5.11-8.42.1-1.39-.01-3.1-.02-4.53-.03-9.38-.58-18.88-1.41-28.5-2.4,2.31,1.03,4.96,1.99,7.99,2.89,7.53,2.21,16.74,4.33,16.74,9.15,0,1.26-.53,2.4-1.43,3.33,1.1.09,2.21.18,3.31.24,1.27,0,3.14-.01,4.37-.01,5.49-.04,10.4-.51,14.73-1.31.01-.07.02-.14.02-.21.07-.61.11-1.23.11-1.87,0-.69-.04-1.36-.11-2.01Z"/>
      <path class="cls-24" d="M56.56,20.25c-.4,0-.81.01-1.21.01,0-.02-.01-.05-.01-.07-6.21.09-12.44.18-18.72.2-.3.99-1,1.81-1.88,2.32-1.78,1.08-3.94,1.24-6,1.27h-7.6c9.64,1.54,19.1,2.98,28.38,4.29,2.94-1.62,5.06-3.77,6.3-6.23,1.42,4.03,5.02,7.27,11.07,9.97,9.62.99,19.12,1.82,28.5,2.4,1.43.01,3.14.02,4.53.03,2.92.01,5.73-.03,8.42-.1-3.41-2.99-9.18-5.68-18.52-8.6-6.48-2.03-10.61-3.45-12.46-5.4-7-.15-13.92-.15-20.8-.09Z"/>
      <path class="cls-10" d="M55.22,19.39c-.01-.09-.02-.18-.02-.28-6.12.04-12.24.07-18.38.08-.02.43-.09.83-.2,1.2,6.28-.02,12.51-.11,18.72-.2,0,.02.01.05.01.07.4,0,.81-.01,1.21-.01,6.88-.06,13.8-.06,20.8.09-.2-.22-.38-.44-.53-.68-6.74-.19-13.4-.25-20.03-.26-.53-.01-1.05-.01-1.58-.01Z"/>
      <path class="cls-33" d="M55.16,18.56c0-.1-.01-.21-.02-.31-6.1.03-12.22.06-18.35.06.03.28.05.59.03.88,6.14-.01,12.26-.04,18.38-.08,0,.1.01.19.02.28.53,0,1.05,0,1.58.01,6.63.01,13.29.07,20.03.26-.17-.26-.31-.53-.41-.82-6.54-.18-13.02-.26-19.46-.27-.6-.01-1.2-.01-1.8-.01Z"/>
      <path class="cls-12" d="M91.01,18.62c.02.06.03.11.04.18h3.12c-.11,0-.23-.02-.34-.03-.94-.06-1.88-.1-2.82-.15Z"/>
      <path class="cls-12" d="M55.13,17.74c0-.12,0-.23.01-.35-6.18.02-12.35.05-18.55.04.09.27.16.57.2.88,6.13,0,12.25-.03,18.35-.06.01.1.02.21.02.31.6,0,1.2,0,1.8.01,6.44.01,12.92.09,19.46.27-.08-.26-.13-.54-.16-.82-6.44-.17-12.82-.25-19.17-.27-.66-.01-1.31-.01-1.96-.01Z"/>
      <path class="cls-25" d="M98.84,18.28c-1.56-.06-3.15-.21-4.71-.3-1.12-.07-2.22-.13-3.33-.19.08.27.15.54.21.83.94.05,1.88.09,2.82.15.11.01.23.02.34.03h17.88c0-.1-.01-.18-.01-.28-2.81-.05-5.71-.1-8.7-.16-1.48-.02-2.96-.02-4.5-.08Z"/>
      <path class="cls-25" d="M55.16,16.92c.01-.13.02-.26.04-.39-6.34.02-12.68.04-19.06.02.19.27.34.56.45.88,6.2.01,12.37-.02,18.55-.04-.01.12-.01.23-.01.35.65,0,1.3,0,1.96.01,6.35.02,12.73.1,19.17.27-.01-.12-.03-.24-.03-.37,0-.15.02-.3.04-.44-6.43-.18-12.8-.26-19.13-.28-.66,0-1.32,0-1.98,0Z"/>
      <path class="cls-18" d="M99.12,17.49c-1.55-.06-3.13-.21-4.7-.3-1.31-.09-2.61-.15-3.91-.22.11.26.2.53.29.82,1.11.06,2.21.12,3.33.19,1.56.09,3.15.24,4.71.3,1.54.06,3.02.06,4.5.08,2.99.06,5.89.11,8.7.16-.01-.26-.02-.53-.04-.79-2.72-.05-5.52-.1-8.41-.16-1.47-.03-2.94-.03-4.47-.08Z"/>
      <path class="cls-18" d="M55.26,16.1c.02-.14.05-.29.08-.44-6.66.02-13.34.04-20.04,0,.34.26.62.56.84.89,6.38.02,12.72,0,19.06-.02-.02.13-.03.26-.04.39.66,0,1.32,0,1.98,0,6.33.02,12.7.1,19.13.28.04-.28.12-.55.22-.81-6.5-.18-12.95-.26-19.36-.29-.62,0-1.25,0-1.87,0Z"/>
      <path class="cls-6" d="M99.41,16.69c-1.54-.05-3.13-.2-4.68-.3-1.54-.09-3.07-.18-4.6-.26.14.26.26.54.38.84,1.3.07,2.6.13,3.91.22,1.57.09,3.15.24,4.7.3,1.53.05,3,.05,4.47.08,2.89.06,5.69.11,8.41.16,0-.26-.04-.53-.06-.79-2.62-.05-5.32-.1-8.11-.16-1.45-.03-2.91-.03-4.42-.09Z"/>
      <path class="cls-6" d="M55.41,15.28c.04-.16.08-.32.12-.48-7.35.01-14.69.03-22.07-.03.73.22,1.35.52,1.84.89,6.7.04,13.38.02,20.04,0-.03.15-.06.3-.08.44.62,0,1.25,0,1.87,0,6.41.03,12.86.11,19.36.29.12-.28.27-.55.46-.8-6.68-.19-13.29-.28-19.88-.31-.55-.01-1.11-.01-1.66-.01Z"/>
      <path class="cls-31" d="M99.71,15.9c-1.55-.05-3.12-.2-4.68-.3-1.82-.11-3.64-.22-5.45-.31.2.26.38.54.55.84,1.53.08,3.06.17,4.6.26,1.55.1,3.14.25,4.68.3,1.51.06,2.97.06,4.42.09,2.79.06,5.49.11,8.11.16-.03-.27-.06-.53-.1-.79-2.51-.05-5.09-.1-7.76-.16-1.43-.03-2.88-.04-4.37-.09Z"/>
      <path class="cls-7" d="M100,15.11c-1.53-.05-3.11-.2-4.65-.3-2.21-.14-4.4-.26-6.58-.37.29.25.56.53.81.85,1.81.09,3.63.2,5.45.31,1.56.1,3.13.25,4.68.3,1.49.05,2.94.06,4.37.09,2.67.06,5.25.11,7.76.16-.04-.27-.09-.53-.14-.79-2.38-.05-4.83-.1-7.36-.16-1.42-.03-2.86-.04-4.34-.09Z"/>
      <path class="cls-22" d="M100.31,14.32c-1.54-.04-3.1-.2-4.65-.3-2.79-.18-5.56-.32-8.32-.45.53.22,1,.51,1.43.87,2.18.11,4.37.23,6.58.37,1.54.1,3.12.25,4.65.3,1.48.05,2.92.06,4.34.09,2.53.06,4.98.11,7.36.16-.05-.27-.09-.54-.15-.79-2.26-.05-4.57-.1-6.95-.15-1.41-.03-2.83-.05-4.29-.1Z"/>
      <path class="cls-43" d="M56.61,12.84c7.96.05,15.97.16,24.06.45.89-.24,1.85-.38,2.86-.38,1.49,0,2.75.2,3.81.66,2.76.13,5.53.27,8.32.45,1.55.1,3.11.26,4.65.3,1.46.05,2.88.07,4.29.1,2.38.05,4.69.1,6.95.15-.07-.28-.15-.54-.23-.8-2.1-.05-4.25-.09-6.46-.14-1.39-.03-2.8-.05-4.25-.1-1.53-.04-3.09-.2-4.63-.29-13.36-.88-26.38-1.13-39.31-1.21-.07.12-.13.25-.19.37-.09.15-.16.29-.23.44h.36Z"/>
      <path class="cls-29" d="M100.61,13.53c1.45.05,2.86.07,4.25.1,2.21.05,4.36.09,6.46.14-.09-.27-.17-.53-.27-.79-1.92-.05-3.9-.09-5.92-.14-1.38-.03-2.78-.05-4.2-.09-1.53-.04-3.09-.2-4.62-.3-13.3-.88-26.28-1.14-39.16-1.23-.17.27-.33.54-.48.81,12.93.08,25.95.33,39.31,1.21,1.54.09,3.1.25,4.63.29Z"/>
      <path class="cls-8" d="M100.93,12.75c1.42.04,2.82.06,4.2.09,2.02.05,4,.09,5.92.14-.1-.27-.19-.54-.31-.8-1.74-.04-3.52-.08-5.33-.12-1.37-.03-2.76-.06-4.17-.1-1.52-.04-3.07-.2-4.6-.3-13.22-.88-26.12-1.15-38.93-1.25-.2.27-.38.54-.56.81,12.88.09,25.86.35,39.16,1.23,1.53.1,3.09.26,4.62.3Z"/>
      <path class="cls-32" d="M101.24,11.96c1.41.04,2.8.07,4.17.1,1.81.04,3.59.08,5.33.12-.15-.35-.32-.7-.51-1.04-2.83-.06-5.76-.14-8.79-.21-1.52-.03-3.04-.15-4.59-.3-13.09-.46-25.97-.54-38.83-.62-.11.13-.21.27-.31.4,12.81.1,25.71.37,38.93,1.25,1.53.1,3.08.26,4.6.3Z"/>
      <path class="cls-11" d="M101.44,10.93c3.03.07,5.96.15,8.79.21-.08-.14-.16-.29-.25-.43-2.81-.07-5.73-.14-8.75-.22-2.09-.16-4.23-.36-6.2-.43-12.26-.43-24.36-.61-36.43-.75-.2.23-.4.46-.58.7,12.86.08,25.74.16,38.83.62,1.55.15,3.07.27,4.59.3Z"/>
      <path class="cls-39" d="M101.23,10.49c3.02.08,5.94.15,8.75.22-.12-.21-.24-.41-.37-.61-2.78-.07-5.67-.14-8.68-.22-2.66-.29-5.39-.54-7.82-.57-11.42-.15-22.78-.26-34.14-.4-.13.13-.25.27-.37.4,12.07.14,24.17.32,36.43.75,1.97.07,4.11.27,6.2.43Z"/>
      <path class="cls-30" d="M100.93,9.88c3.01.08,5.9.15,8.68.22-.14-.21-.29-.41-.44-.61-2.73-.07-5.57-.14-8.54-.22-3.23-.41-6.56-.73-9.43-.72-10.59.05-21.18.01-31.78-.11-.15.15-.3.31-.45.47,11.36.14,22.72.25,34.14.4,2.43.03,5.16.28,7.82.57Z"/>
      <path class="cls-27" d="M91.2,8.55c2.87,0,6.2.31,9.43.72,2.97.08,5.81.15,8.54.22-.15-.2-.29-.41-.46-.6-2.66-.08-5.45-.15-8.37-.23-3.81-.54-7.73-.92-11.06-.86-9.73.19-19.5.21-29.3.11-.19.17-.38.35-.56.53,10.6.12,21.19.16,31.78.11Z"/>
      <path class="cls-1" d="M89.28,7.8c3.33-.06,7.25.32,11.06.86,2.92.08,5.71.15,8.37.23-.17-.21-.36-.4-.54-.6-2.57-.07-5.27-.15-8.11-.22-4.38-.67-8.92-1.13-12.69-1.01-8.87.29-17.79.36-26.74.29-.22.18-.44.37-.65.56,9.8.1,19.57.08,29.3-.11Z"/>
      <path class="cls-21" d="M87.37,7.06c3.77-.12,8.31.34,12.69,1.01,2.84.07,5.54.15,8.11.22-.18-.2-.37-.4-.57-.59-2.47-.07-5.08-.15-7.82-.22-4.96-.8-10.1-1.34-14.32-1.15-7.99.35-16.03.46-24.11.43-.25.19-.49.39-.72.59,8.95.07,17.87,0,26.74-.29Z"/>
      <path class="cls-19" d="M99.78,7.48c2.74.07,5.35.15,7.82.22-.21-.2-.41-.4-.63-.59-2.34-.07-4.83-.14-7.47-.22-5.53-.92-11.29-1.55-15.94-1.3-7.09.4-14.23.55-21.4.57-.27.19-.54.4-.81.6,8.08.03,16.12-.08,24.11-.43,4.22-.19,9.36.35,14.32,1.15Z"/>
      <path class="cls-23" d="M99.5,6.89c2.64.08,5.13.15,7.47.22-.23-.2-.48-.39-.72-.58-2.18-.07-4.53-.14-7.02-.22-6.1-1.05-12.5-1.79-17.58-1.44-6.15.42-12.35.62-18.58.68-.31.2-.61.4-.91.61,7.17-.02,14.31-.17,21.4-.57,4.65-.25,10.41.38,15.94,1.3Z"/>
      <path class="cls-5" d="M99.23,6.31c2.49.08,4.84.15,7.02.22-.23-.19-.47-.37-.71-.54-2.02-.07-4.21-.14-6.56-.21-6.68-1.18-13.7-2.04-19.21-1.6-5.21.42-10.45.65-15.7.76-.34.2-.68.4-1,.61,6.23-.06,12.43-.26,18.58-.68,5.08-.35,11.48.39,17.58,1.44Z"/>
      <path class="cls-42" d="M98.98,5.78c2.35.07,4.54.14,6.56.21-.22-.16-.45-.31-.68-.47-1.85-.06-3.89-.13-6.09-.2-7.25-1.31-14.93-2.3-20.85-1.75-4.25.4-8.52.64-12.81.79-.35.18-.7.38-1.04.58,5.25-.11,10.49-.34,15.7-.76,5.51-.44,12.53.42,19.21,1.6Z"/>
      <path class="cls-38" d="M98.77,5.32c2.2.07,4.24.14,6.09.2-.24-.15-.48-.3-.73-.45-1.64-.06-3.52-.13-5.57-.21-7.83-1.43-16.16-2.57-22.49-1.9-3.22.35-6.45.6-9.69.76-.43.21-.85.42-1.27.64,4.29-.15,8.56-.39,12.81-.79,5.92-.55,13.6.44,20.85,1.75Z"/>
      <path class="cls-20" d="M98.56,4.86c2.05.08,3.93.15,5.57.21-.24-.15-.47-.29-.72-.43-1.42-.06-3.12-.13-5.05-.21-8.4-1.56-17.41-2.88-24.13-2.06-2.06.26-4.13.46-6.19.62-.57.23-1.12.48-1.66.73,3.24-.16,6.47-.41,9.69-.76,6.33-.67,14.66.47,22.49,1.9Z"/>
      <path class="cls-37" d="M98.36,4.43c1.93.08,3.63.15,5.05.21-.34-.19-.7-.37-1.06-.56-1.39-.04-2.81-.11-4.24-.21-8.98-1.7-18.47-2.89-25.78-2.22-.31.06-.63.11-.95.17-1.15.34-2.27.74-3.34,1.17,2.06-.16,4.13-.36,6.19-.62,6.72-.82,15.73.5,24.13,2.06Z"/>
      <path class="cls-41" d="M98.11,3.87c1.43.1,2.85.17,4.24.21-.3-.15-.6-.29-.91-.44-1.05-.04-2.09-.08-3.17-.16-8.41-1.5-17.49-2.97-24.45-2.31-.83.19-1.64.41-2.44.65.32-.06.64-.11.95-.17,7.31-.67,16.8.52,25.78,2.22Z"/>
      <path class="cls-9" d="M98.27,3.48c1.08.08,2.12.12,3.17.16-.43-.2-.88-.4-1.34-.59-.58-.03-1.14-.04-1.72-.08-7.19-1.22-14.89-2.51-21.34-2.43-1.1.17-2.17.38-3.22.63,6.96-.66,16.04.81,24.45,2.31Z"/>
      <path class="cls-26" d="M100.1,3.05c-.42-.18-.85-.35-1.3-.52-.07-.03-.15-.05-.23-.08-.03,0-.06,0-.08-.01-5.92-.94-12.19-2-17.84-2.31-1.23.09-2.43.22-3.61.41,6.45-.08,14.15,1.21,21.34,2.43.58.04,1.14.05,1.72.08Z"/>
      <path class="cls-40" d="M98.57,2.45c-1.04-.38-2.1-.73-3.2-1.02-2.36-.37-4.76-.73-7.13-1.04-.77-.1-1.53-.2-2.29-.29h-.02c-.23-.03-.45-.06-.67-.08-.39-.01-.77-.02-1.17-.02-.99,0-1.97.03-2.93.1-.17,0-.34.02-.51.03,5.65.31,11.92,1.37,17.84,2.31.02.01.05.01.08.01Z"/>
      <path class="cls-17" d="M85.95.1c.76.09,1.52.19,2.29.29,2.37.31,4.77.67,7.13,1.04-2.59-.7-5.36-1.15-8.32-1.33-.59-.04-1.18-.07-1.79-.08.22.02.44.05.67.08h.02Z"/>
    </g>
  </g>
</svg>