<?xml version="1.0" encoding="UTF-8"?>
<svg id="Layer_2" data-name="Layer 2" xmlns="http://www.w3.org/2000/svg" viewBox="0 0 114.82 62.89">
  <defs>
    <style>
      .cls-1 {
        fill: #c77189;
      }

      .cls-2 {
        fill: none;
      }

      .cls-3 {
        fill: #385756;
      }

      .cls-4 {
        fill: #271e24;
      }

      .cls-5 {
        fill: #2d3838;
      }

      .cls-6 {
        fill: #c98b6d;
      }

      .cls-7 {
        fill: #7a758c;
      }

      .cls-8 {
        fill: #8d6f91;
      }

      .cls-9 {
        fill: #b15d98;
      }

      .cls-10 {
        fill: #c7ae3e;
      }

      .cls-11 {
        fill: #3a827e;
      }

      .cls-12 {
        fill: #c34f9d;
      }

      .cls-13 {
        fill: #597d84;
      }

      .cls-14 {
        fill: #303f3f;
      }

      .cls-15 {
        fill: #3a5f5e;
      }

      .cls-16 {
        fill: #3c6866;
      }

      .cls-17 {
        fill: #3c706e;
      }

      .cls-18 {
        fill: #b1b362;
      }

      .cls-19 {
        fill: #70788a;
      }

      .cls-20 {
        fill: #32242d;
      }

      .cls-21 {
        fill: #c87f7c;
      }

      .cls-22 {
        fill: #cc9e4e;
      }

      .cls-23 {
        fill: #c77883;
      }

      .cls-24 {
        fill: #966b93;
      }

      .cls-25 {
        fill: #c88575;
      }

      .cls-26 {
        fill: #3c7976;
      }

      .cls-27 {
        fill: #202022;
      }

      .cls-28 {
        fill: #657b87;
      }

      .cls-29 {
        fill: #c0af4a;
      }

      .cls-30 {
        fill: #c66a8e;
      }

      .cls-31 {
        fill: #364f4e;
      }

      .cls-32 {
        fill: #a86296;
      }

      .cls-33 {
        fill: #c56193;
      }

      .cls-34 {
        fill: #84728f;
      }

      .cls-35 {
        fill: #ba569a;
      }

      .cls-36 {
        fill: #4b8081;
      }

      .cls-37 {
        fill: #293031;
      }

      .cls-38 {
        fill: #25282a;
      }

      .cls-39 {
        fill: #334747;
      }

      .cls-40 {
        fill: #cda540;
      }

      .cls-41 {
        fill: #cb985a;
      }

      .cls-42 {
        fill: #c45997;
      }

      .cls-43 {
        fill: #b8b156;
      }

      .cls-44 {
        fill: #ceac31;
      }

      .cls-45 {
        fill: #ca9265;
      }

      .cls-46 {
        fill: #9f6795;
      }
    </style>
  </defs>
  <g id="Layer_7" data-name="Layer 7">
    <g>
      <path class="cls-2" d="M20.32,48.78h10.89c2.29,0,4.24-.29,5.79-.88,2.34-.89,3.72-2.48,3.85-4.78,0-.12.02-.24.02-.37,0-3.65-3.26-5.44-9.54-5.44h-11v11.47Z"/>
      <path class="cls-2" d="M28.75,23.88c4.46,0,7.14-1.22,7.87-3.59.11-.37.18-.77.2-1.2,0-.08.01-.15.01-.23,0-.23-.02-.45-.04-.66-.04-.31-.11-.6-.2-.88-.11-.32-.26-.61-.44-.88-.23-.33-.5-.63-.84-.89-.49-.37-1.11-.67-1.84-.89-1.21-.38-2.75-.56-4.61-.56h-8.53v9.77h8.42Z"/>
      <path class="cls-20" d="M0,62.89h.69c-.23-.34-.46-.68-.69-1.02v1.02Z"/>
      <path class="cls-4" d="M0,38.33v23.54c.23.34.46.68.69,1.02h17.1C12.49,54.79,6.52,46.57,0,38.33Z"/>
      <path class="cls-27" d="M0,36.41v1.92c6.52,8.25,12.49,16.46,17.78,24.56h2.83C14.52,54.19,7.59,45.33,0,36.41Z"/>
      <path class="cls-38" d="M0,34.5v1.91c7.59,8.91,14.52,17.78,20.61,26.48h3.33c-7.04-9.28-15.09-18.8-23.95-28.39Z"/>
      <path class="cls-37" d="M0,32.66v1.84c8.86,9.59,16.91,19.11,23.95,28.39h3.67c.08,0,.15,0,.22,0C19.74,53.06,10.37,42.89,0,32.66Z"/>
      <path class="cls-5" d="M0,30.88v1.78c10.37,10.23,19.74,20.4,27.85,30.23,1.65,0,3.17-.02,4.56-.05C23.09,52.52,12.17,41.71,0,30.88Z"/>
      <path class="cls-14" d="M0,29.73v1.14c12.17,10.84,23.09,21.64,32.41,31.96.32,0,.62-.02.92-.02C23.38,52.47,12.09,41.28,0,29.73Z"/>
      <path class="cls-39" d="M23.81,48.78h-3.49v-3.07c-6.48-5.7-13.29-11.62-20.32-17.67v1.69c12.09,11.54,23.38,22.73,33.33,33.08,2.23-.06,4.17-.17,5.87-.35-4.85-4.36-10-8.93-15.39-13.69Z"/>
      <path class="cls-31" d="M29.84,48.78h-6.03c5.39,4.75,10.53,9.33,15.39,13.69,2.69-.28,4.85-.73,6.91-1.42-5.14-3.83-10.55-7.93-16.26-12.27Z"/>
      <path class="cls-31" d="M20.32,45.71v-4.15c-6.44-4.88-13.21-9.97-20.32-15.22v1.7c7.04,6.06,13.84,11.97,20.32,17.67Z"/>
      <path class="cls-3" d="M37,47.9c-1.54.59-3.5.88-5.79.88h-1.37c5.71,4.33,11.12,8.44,16.26,12.27,1.81-.6,3.53-1.39,5.44-2.41.67-.35,1.3-.74,1.9-1.14-5.24-2.93-10.72-6.15-16.44-9.6Z"/>
      <path class="cls-3" d="M20.32,41.56v-3.94c-6.51-4.07-13.28-8.37-20.32-12.84v1.56c7.11,5.25,13.89,10.35,20.32,15.22Z"/>
      <path class="cls-15" d="M40.85,43.11c-.13,2.31-1.51,3.89-3.85,4.78,5.72,3.46,11.2,6.67,16.44,9.6,2.71-1.81,4.75-4.08,6.05-6.63-5.97-2.29-12.18-4.89-18.64-7.76Z"/>
      <path class="cls-15" d="M20.32,37.62v-.31h7.91c-8.97-4.26-18.38-8.96-28.23-14.04v1.51c7.04,4.47,13.82,8.77,20.32,12.84Z"/>
      <path class="cls-16" d="M60.57,39.5C41.83,34.39,21.63,27.82,0,21.68v1.58c9.85,5.08,19.26,9.79,28.23,14.04h3.1c6.29,0,9.54,1.78,9.54,5.44,0,.13-.01.25-.02.37,6.46,2.87,12.67,5.47,18.64,7.76,1.12-2.2,1.71-4.61,1.71-7.11,0-1.52-.22-2.94-.63-4.27Z"/>
      <path class="cls-17" d="M60.57,39.5c-1.53-4.95-5.9-8.47-13.07-10.35.71-.3,1.39-.63,2.03-.98-9.28-1.3-18.74-2.75-28.38-4.29h-.82v-.13c-6.68-1.07-13.45-2.19-20.32-3.35v1.28c21.63,6.14,41.83,12.7,60.57,17.81Z"/>
      <path class="cls-26" d="M36.62,20.29c-.73,2.37-3.42,3.59-7.87,3.59h-7.6c9.64,1.54,19.09,2.98,28.38,4.29,3.65-2.02,6.05-4.85,7.07-8.1-6.63.11-13.27.21-19.97.22Z"/>
      <path class="cls-26" d="M20.32,23.75v-3.63c-6.66-.18-13.42-.5-20.32-1.06v1.34c6.88,1.16,13.65,2.28,20.32,3.35Z"/>
      <path class="cls-11" d="M36.82,19.09c-.02.43-.08.83-.2,1.2,6.7-.02,13.34-.12,19.97-.22.11-.35.2-.71.28-1.07-6.67.04-13.35.08-20.05.09Z"/>
      <path class="cls-11" d="M20.32,20.12v-1.14c-6.49-.1-13.04-.28-19.69-.61-.21-.01-.42,0-.63-.02v.71c6.91.55,13.66.88,20.32,1.06Z"/>
      <path class="cls-36" d="M36.79,18.21c.03.21.04.43.04.66,0,.08,0,.15-.01.23,6.7,0,13.38-.05,20.05-.09.06-.29.11-.57.16-.86-6.74.03-13.47.07-20.24.07Z"/>
      <path class="cls-36" d="M20.32,18.98v-.9c-6.08-.11-12.2-.29-18.42-.59-.65-.03-1.27-.04-1.91-.05v.91c.21,0,.42,0,.63.02,6.65.33,13.2.51,19.69.61Z"/>
      <path class="cls-13" d="M36.59,17.33c.09.27.16.57.2.88,6.77,0,13.5-.04,20.24-.07.04-.29.07-.57.09-.86-6.83.03-13.67.07-20.53.05Z"/>
      <path class="cls-13" d="M20.32,18.08v-.9c-5.66-.11-11.36-.29-17.13-.57-1.08-.05-2.14-.07-3.19-.08v.91c.63.01,1.26.02,1.91.05,6.21.31,12.34.49,18.42.59Z"/>
      <path class="cls-28" d="M36.15,16.45c.18.27.33.56.44.88,6.87.01,13.7-.03,20.53-.05.02-.28.03-.57.03-.86-6.99.02-13.98.05-21.01.03Z"/>
      <path class="cls-28" d="M3.19,16.61c5.77.28,11.47.46,17.13.57v-.9c-5.24-.11-10.51-.28-15.84-.54-1.52-.08-3-.09-4.48-.1v.89c1.05.01,2.11.03,3.19.08Z"/>
      <path class="cls-19" d="M35.3,15.56c.34.26.62.56.84.89,7.03.02,14.02,0,21.01-.03,0,0,0-.01,0-.02,0-.29-.03-.56-.05-.84-7.26.02-14.51.04-21.8,0Z"/>
      <path class="cls-19" d="M4.48,15.73c5.33.26,10.61.43,15.84.54v-.91c-4.81-.11-9.65-.27-14.55-.5-1.96-.1-3.85-.09-5.78-.12v.89c1.48.01,2.96.02,4.48.1Z"/>
      <path class="cls-7" d="M33.46,14.67c.73.23,1.35.52,1.84.89,7.29.04,14.55.01,21.8,0-.02-.29-.03-.58-.07-.86-7.84.01-15.68.03-23.58-.03Z"/>
      <path class="cls-7" d="M5.78,14.86c4.89.24,9.73.39,14.55.5v-.91c-4.39-.11-8.79-.25-13.24-.47-2.09-.1-4.1-.08-6.15-.13-.31,0-.62-.01-.93-.02v.9c1.92.03,3.82.02,5.78.12Z"/>
      <path class="cls-34" d="M.93,13.86c2.05.04,4.07.02,6.15.13,4.45.22,8.85.36,13.24.47v-.35h8.53c1.86,0,3.39.18,4.61.56,7.89.07,15.73.05,23.58.03-.04-.29-.1-.57-.15-.86-16.02.01-32.02.07-48.49-.72-2.09-.1-4.1-.09-6.16-.13-.75-.02-1.5-.03-2.24-.05v.9c.31,0,.62.01.93.02Z"/>
      <path class="cls-8" d="M8.4,13.12c16.47.79,32.47.74,48.49.72-.06-.29-.12-.58-.2-.86-15.53,0-31.04.03-46.97-.73-2.08-.1-4.1-.09-6.16-.13-1.19-.03-2.37-.05-3.56-.08v.9c.75.02,1.5.03,2.24.05,2.06.04,4.07.03,6.16.13Z"/>
      <path class="cls-24" d="M3.56,12.12c2.06.04,4.07.03,6.16.13,15.93.76,31.44.73,46.97.73-.08-.29-.16-.58-.26-.86-15.01,0-30.01,0-45.38-.74-2.08-.1-4.1-.09-6.16-.14-1.63-.04-3.26-.07-4.89-.11v.9c1.19.03,2.38.05,3.56.08Z"/>
      <path class="cls-46" d="M4.89,11.26c2.06.05,4.08.04,6.16.14,15.37.73,30.37.73,45.38.74-.1-.29-.23-.57-.35-.86-14.46-.02-28.91-.05-43.69-.74-2.08-.1-4.1-.09-6.16-.14-2.07-.05-4.15-.1-6.22-.14v.9c1.63.04,3.26.07,4.89.11Z"/>
      <path class="cls-32" d="M6.22,10.39c2.06.05,4.08.04,6.16.14,14.77.69,29.23.72,43.69.74-.13-.29-.25-.58-.4-.86-13.89-.03-27.78-.08-41.94-.74-2.08-.1-4.11-.1-6.17-.15-2.52-.06-5.04-.12-7.57-.18v.9c2.08.05,4.15.1,6.22.14Z"/>
      <path class="cls-9" d="M7.57,9.53c2.06.05,4.08.05,6.17.15,14.16.66,28.05.71,41.94.74-.15-.29-.32-.58-.5-.86-13.29-.04-26.57-.11-40.09-.74-2.08-.1-4.11-.1-6.17-.15-2.96-.07-5.94-.14-8.92-.22v.9c2.53.06,5.05.12,7.57.18Z"/>
      <path class="cls-35" d="M15.09,8.82c13.52.62,26.8.69,40.09.74-.11-.17-.22-.33-.33-.49-12.73-.16-25.52-.49-38.56-1.37-2.05-.05-4.11-.1-6.17-.15-3.36-.08-6.73-.17-10.11-.25v1.17c2.98.07,5.96.14,8.92.22,2.06.05,4.09.05,6.17.15Z"/>
      <path class="cls-12" d="M10.11,7.54c2.06.05,4.12.1,6.17.15,13.04.88,25.83,1.21,38.56,1.37-.19-.27-.38-.54-.59-.8-12.08-.17-24.18-.43-36.4-.99-2.07-.1-4.1-.11-6.16-.16-3.88-.1-7.79-.2-11.7-.3v.48c3.38.08,6.75.17,10.11.25Z"/>
      <path class="cls-42" d="M11.7,7.11c2.06.05,4.08.06,6.16.16,12.22.57,24.32.82,36.4.99-.14-.17-.29-.34-.44-.51-11.47-.24-22.95-.57-34.51-1.11-2.06-.1-4.09-.11-6.14-.17-4.37-.11-8.77-.23-13.18-.34v.67c3.91.1,7.82.2,11.7.3Z"/>
      <path class="cls-33" d="M13.18,6.48c2.05.06,4.08.07,6.14.17,11.56.55,23.04.88,34.51,1.11-.17-.19-.33-.38-.51-.57-10.82-.27-21.66-.64-32.53-1.16-2.06-.1-4.08-.12-6.12-.18-4.86-.13-9.75-.26-14.66-.38v.67c4.41.11,8.81.23,13.18.34Z"/>
      <path class="cls-30" d="M14.66,5.85c2.04.06,4.07.08,6.12.18,10.88.52,21.71.89,32.53,1.16-.2-.21-.41-.4-.63-.6-10.13-.29-20.27-.68-30.43-1.17-2.05-.1-4.07-.13-6.1-.19-5.35-.15-10.73-.31-16.15-.46v.7c4.91.13,9.8.26,14.66.38Z"/>
      <path class="cls-1" d="M16.15,5.23c2.03.06,4.06.09,6.1.19,10.16.49,20.3.88,30.43,1.17-.22-.21-.44-.42-.68-.62-9.42-.3-18.84-.7-28.27-1.15-2.04-.1-4.06-.14-6.09-.2-5.84-.17-11.73-.35-17.65-.52v.67c5.41.15,10.8.31,16.15.46Z"/>
      <path class="cls-23" d="M17.65,4.62c2.03.06,4.05.1,6.09.2,9.42.46,18.85.85,28.27,1.15-.26-.22-.54-.42-.82-.63-8.65-.3-17.31-.69-25.96-1.11-2.03-.1-4.05-.14-6.07-.21-6.33-.19-12.73-.39-19.16-.58v.66c5.92.17,11.81.35,17.65.52Z"/>
      <path class="cls-21" d="M19.16,4.02c2.02.06,4.04.11,6.07.21,8.64.42,17.3.81,25.96,1.11-.29-.22-.59-.43-.9-.63-7.86-.3-15.72-.68-23.55-1.06-2.02-.1-4.04-.15-6.05-.21-6.83-.22-13.73-.43-20.68-.65v.65c6.43.19,12.83.39,19.16.58Z"/>
      <path class="cls-25" d="M20.68,3.43c2.01.06,4.03.12,6.05.21,7.83.38,15.69.76,23.55,1.06-.34-.23-.69-.45-1.05-.66-7.01-.28-14.02-.64-20.99-.98-2.01-.1-4.03-.16-6.03-.22-7.33-.24-14.75-.48-22.21-.71v.65c6.95.21,13.86.43,20.68.65Z"/>
      <path class="cls-6" d="M22.21,2.85c2,.07,4.02.13,6.03.22,6.98.34,13.98.69,20.99.98-.37-.22-.75-.43-1.13-.63-6.12-.27-12.23-.58-18.31-.87-2.01-.1-4.02-.16-6.01-.23-7.83-.26-15.78-.52-23.78-.78v.6c7.47.24,14.89.47,22.21.71Z"/>
      <path class="cls-45" d="M23.78,2.32c1.99.07,4.01.14,6.01.23,6.08.29,12.19.61,18.31.87-.38-.2-.78-.38-1.18-.56-5.19-.24-10.37-.52-15.53-.76-2-.09-4.01-.17-6-.24C17.04,1.58,8.55,1.29,0,1.01v.52c8,.26,15.95.52,23.78.78Z"/>
      <path class="cls-41" d="M25.39,1.87c1.99.07,4,.14,6,.24,5.16.25,10.34.52,15.53.76-.45-.2-.91-.39-1.37-.56-4.2-.21-8.38-.43-12.55-.63-1.99-.09-4-.18-5.98-.25C18.14,1.11,9.11.8,0,.5v.52c8.55.28,17.04.57,25.39.86Z"/>
      <path class="cls-22" d="M27.02,1.43c1.98.07,3.99.16,5.98.25,4.17.2,8.36.43,12.55.63-.56-.21-1.14-.41-1.72-.59-3.08-.16-6.15-.31-9.21-.45-1.98-.09-3.99-.18-5.96-.25C19.25.67,9.67.33,0,0v.49c9.11.31,18.14.62,27.02.93Z"/>
      <path class="cls-40" d="M28.66,1.01c1.97.07,3.98.16,5.96.25,3.06.14,6.13.3,9.21.45-1-.31-2.02-.56-3.07-.77-1.54-.09-3.07-.16-4.59-.23-1.97-.1-3.97-.18-5.94-.26-4.96-.15-9.97-.3-15.03-.46H0c9.67.33,19.25.67,28.66,1.01Z"/>
      <path class="cls-44" d="M30.23.46c1.97.09,3.96.17,5.94.26,1.52.06,3.05.14,4.59.23-.3-.06-.59-.13-.89-.18-1.69-.3-3.89-.5-6.59-.63-.38-.02-.75-.03-1.12-.05-1.67-.06-3.51-.09-5.54-.09h-11.41c5.05.15,10.07.3,15.03.46Z"/>
      <path class="cls-10" d="M33.28.14c-.37-.02-.74-.03-1.12-.05.37.02.75.03,1.12.05Z"/>
      <g>
        <path class="cls-15" d="M97.87,61.05c-1.09.02-3.11.04-4.23.06-10.02-.46-21.18-2.78-33.49-6.62,4.99,5.5,14.06,8.35,25.7,8.35,5.52,0,10.38-.65,14.47-1.89-.8.05-1.61.09-2.45.11Z"/>
        <path class="cls-16" d="M114.7,46.36c-4.33.8-9.25,1.27-14.73,1.31-1.24,0-3.1.01-4.38.02-1.09-.06-2.2-.15-3.31-.24-1.44,1.51-3.84,2.47-6.55,2.47-3.68,0-6.42-1.59-7.79-4.24-6.35-1.04-12.89-2.4-19.64-4.02h-2.44v1.31c0,4.63,1.52,8.48,4.28,11.52,12.32,3.85,23.48,6.16,33.49,6.62,1.13-.02,3.14-.04,4.23-.06.83-.02,1.65-.05,2.45-.11,8.41-2.54,13.54-7.58,14.38-14.59Z"/>
        <path class="cls-17" d="M95.59,47.68c1.27,0,3.14-.01,4.38-.02,5.48-.04,10.4-.51,14.73-1.31.08-.68.12-1.37.12-2.08,0-3.88-1.11-7.02-4.38-9.88-2.69.08-5.5.11-8.43.1-1.38,0-3.1-.02-4.52-.03-9.38-.58-18.88-1.41-28.51-2.4,2.31,1.03,4.96,2,8,2.89,7.52,2.21,16.73,4.33,16.73,9.16,0,1.25-.53,2.39-1.43,3.33,1.1.09,2.21.18,3.31.24Z"/>
        <path class="cls-17" d="M77.95,45.68c-.6-1.15-.93-2.51-.97-4.02h-18.67c6.75,1.61,13.3,2.98,19.64,4.02Z"/>
        <path class="cls-26" d="M97.49,34.47c1.42,0,3.14.02,4.52.03,2.92.01,5.73-.02,8.43-.1-3.41-2.99-9.18-5.67-18.52-8.59-6.48-2.04-10.61-3.46-12.46-5.4-7.42-.16-14.73-.15-22.01-.07.9,4.88,4.63,8.65,11.53,11.74,9.62.99,19.12,1.82,28.51,2.4Z"/>
        <path class="cls-11" d="M79.46,20.4c-.21-.22-.39-.44-.53-.67-7.27-.2-14.46-.27-21.61-.28.03.3.09.59.14.88,7.28-.08,14.59-.08,22.01.07Z"/>
        <path class="cls-36" d="M78.92,19.72c-.17-.26-.31-.54-.4-.83-7.15-.19-14.22-.26-21.26-.28.01.28.03.55.06.82,7.15,0,14.34.08,21.61.28Z"/>
        <path class="cls-13" d="M93.11,18.68c.01.06.03.12.04.18h3.12c-.11,0-.23-.02-.34-.02-.94-.06-1.88-.1-2.82-.15Z"/>
        <path class="cls-13" d="M78.52,18.9c-.09-.26-.14-.53-.16-.82-7.1-.19-14.14-.26-21.14-.28,0,.02,0,.05,0,.07,0,.25.02.5.04.75,7.04.01,14.11.08,21.26.28Z"/>
        <path class="cls-28" d="M100.93,18.34c-1.56-.06-3.15-.21-4.71-.3-1.11-.07-2.22-.12-3.33-.18.08.26.15.54.21.82.94.05,1.88.1,2.82.15.11,0,.23.02.34.02h17.88c0-.09-.01-.18-.01-.27-2.81-.05-5.71-.11-8.7-.16-1.48-.03-2.97-.03-4.5-.08Z"/>
        <path class="cls-28" d="M78.36,18.08c-.01-.12-.03-.24-.03-.37,0-.15.01-.3.03-.44-7.09-.19-14.12-.27-21.11-.29-.02.27-.03.55-.03.82,7,.01,14.03.09,21.14.28Z"/>
        <path class="cls-19" d="M101.22,17.55c-1.55-.06-3.14-.21-4.7-.3-1.31-.08-2.61-.15-3.91-.22.1.26.2.54.29.83,1.11.06,2.21.12,3.33.18,1.57.09,3.16.24,4.71.3,1.54.06,3.02.06,4.5.08,2.99.06,5.89.11,8.7.16,0-.27-.02-.53-.04-.79-2.72-.05-5.52-.11-8.42-.16-1.47-.03-2.94-.03-4.46-.09Z"/>
        <path class="cls-19" d="M78.36,17.27c.04-.28.12-.55.23-.81-7.14-.2-14.2-.28-21.24-.3-.04.27-.08.54-.1.82,6.99.02,14.01.09,21.11.29Z"/>
        <path class="cls-7" d="M101.51,16.75c-1.55-.05-3.13-.2-4.69-.3-1.54-.1-3.07-.18-4.6-.26.14.26.27.54.38.83,1.3.07,2.6.14,3.91.22,1.56.1,3.15.25,4.7.3,1.52.05,3,.06,4.46.09,2.89.06,5.7.11,8.42.16-.02-.27-.04-.53-.06-.79-2.62-.05-5.32-.1-8.11-.16-1.45-.03-2.91-.04-4.42-.09Z"/>
        <path class="cls-7" d="M78.59,16.46c.12-.28.27-.55.46-.8-7.24-.21-14.4-.29-21.54-.32-.06.27-.11.54-.16.82,7.04.02,14.1.1,21.24.3Z"/>
        <path class="cls-34" d="M106.18,16.05c-1.44-.03-2.89-.04-4.38-.09-1.54-.05-3.12-.2-4.67-.3-1.83-.12-3.64-.22-5.46-.31.2.26.38.54.55.84,1.53.08,3.06.16,4.6.26,1.56.1,3.14.25,4.69.3,1.51.05,2.97.06,4.42.09,2.79.05,5.48.11,8.11.16-.03-.27-.06-.53-.09-.79-2.51-.05-5.09-.1-7.76-.16Z"/>
        <path class="cls-34" d="M79.05,15.66c.21-.28.46-.55.74-.79-7.42-.22-14.75-.31-22.06-.34-.08.27-.15.54-.22.82,7.13.03,14.3.11,21.54.32Z"/>
        <path class="cls-8" d="M106.44,15.26c-1.42-.03-2.86-.04-4.34-.09-1.54-.05-3.11-.2-4.66-.3-2.2-.14-4.39-.26-6.58-.37.29.25.56.53.81.85,1.81.09,3.63.2,5.46.31,1.55.1,3.13.25,4.67.3,1.49.05,2.94.06,4.38.09,2.66.05,5.25.11,7.76.16-.04-.27-.09-.53-.14-.79-2.39-.05-4.84-.1-7.36-.15Z"/>
        <path class="cls-8" d="M79.79,14.87c.33-.28.71-.54,1.12-.77-7.7-.25-15.32-.34-22.91-.38-.1.27-.2.54-.28.81,7.31.03,14.65.12,22.06.34Z"/>
        <path class="cls-24" d="M106.7,14.48c-1.41-.03-2.83-.05-4.29-.09-1.53-.05-3.1-.2-4.65-.3-2.79-.18-5.56-.33-8.32-.46.53.23,1,.52,1.43.87,2.18.11,4.37.23,6.58.37,1.55.1,3.12.25,4.66.3,1.47.05,2.91.06,4.34.09,2.53.05,4.98.1,7.36.15-.05-.27-.1-.54-.16-.79-2.25-.05-4.57-.1-6.95-.15Z"/>
        <path class="cls-24" d="M80.91,14.09c.56-.3,1.18-.56,1.86-.74-8.21-.29-16.34-.4-24.42-.45-.12.27-.24.54-.34.81,7.59.04,15.2.13,22.91.38Z"/>
        <path class="cls-46" d="M82.77,13.35c.89-.24,1.85-.38,2.86-.38,1.48,0,2.75.2,3.81.66,2.76.13,5.53.28,8.32.46,1.54.1,3.11.25,4.65.3,1.46.04,2.88.06,4.29.09,2.38.05,4.69.1,6.95.15-.07-.27-.15-.53-.23-.79-2.1-.05-4.25-.09-6.45-.14-1.4-.03-2.81-.05-4.25-.09-1.53-.04-3.09-.2-4.63-.3-13.36-.88-26.39-1.12-39.32-1.21-.15.27-.28.54-.41.81,8.08.04,16.2.16,24.42.45Z"/>
        <path class="cls-32" d="M98.08,13.3c1.54.1,3.1.26,4.63.3,1.44.04,2.85.06,4.25.09,2.21.05,4.35.1,6.45.14-.08-.27-.17-.53-.26-.79-1.93-.04-3.9-.09-5.92-.13-1.38-.03-2.78-.06-4.21-.1-1.53-.04-3.08-.2-4.62-.3-13.3-.88-26.28-1.14-39.16-1.23-.17.27-.33.54-.48.81,12.93.08,25.96.33,39.32,1.21Z"/>
        <path class="cls-9" d="M98.4,12.51c1.53.1,3.09.26,4.62.3,1.43.04,2.82.06,4.21.1,2.02.05,3.99.09,5.92.13-.1-.27-.2-.54-.31-.8-1.74-.04-3.52-.08-5.34-.12-1.37-.03-2.75-.06-4.16-.1-1.52-.04-3.08-.2-4.6-.3-13.22-.88-26.12-1.15-38.93-1.25-.2.27-.38.54-.56.81,12.88.09,25.86.35,39.16,1.23Z"/>
        <path class="cls-35" d="M98.73,11.72c1.53.1,3.08.26,4.6.3,1.41.04,2.8.07,4.16.1,1.82.04,3.6.08,5.34.12-.15-.36-.33-.7-.51-1.04-2.83-.07-5.76-.14-8.79-.21-1.52-.04-3.05-.15-4.59-.3-13.09-.46-25.97-.55-38.84-.63-.11.13-.21.27-.31.41,12.81.1,25.71.37,38.93,1.25Z"/>
        <path class="cls-12" d="M98.95,10.69c1.55.15,3.07.26,4.59.3,3.03.07,5.96.14,8.79.21-.08-.15-.16-.29-.25-.43-2.81-.07-5.73-.14-8.75-.21-2.09-.16-4.23-.37-6.2-.44-12.26-.43-24.36-.6-36.43-.75-.2.23-.4.46-.58.69,12.87.08,25.75.17,38.84.63Z"/>
        <path class="cls-42" d="M97.12,10.12c1.97.07,4.11.28,6.2.44,3.02.07,5.94.15,8.75.21-.12-.21-.25-.41-.38-.61-2.78-.07-5.67-.14-8.67-.22-2.66-.29-5.4-.55-7.82-.58-11.42-.14-22.79-.26-34.14-.4-.13.13-.25.27-.37.41,12.07.14,24.17.32,36.43.75Z"/>
        <path class="cls-33" d="M95.21,9.37c2.42.03,5.16.29,7.82.58,3,.08,5.89.15,8.67.22-.14-.21-.29-.41-.44-.61-2.73-.07-5.57-.14-8.54-.22-3.24-.41-6.56-.73-9.44-.72-10.59.05-21.17.01-31.77-.12-.16.15-.31.31-.45.47,11.36.14,22.72.25,34.14.4Z"/>
        <path class="cls-30" d="M93.29,8.61c2.87-.01,6.2.3,9.44.72,2.97.08,5.81.15,8.54.22-.15-.2-.29-.41-.46-.6-2.66-.07-5.45-.14-8.37-.22-3.81-.54-7.74-.92-11.06-.86-9.74.19-19.51.21-29.3.11-.19.17-.38.35-.56.53,10.6.13,21.19.16,31.77.12Z"/>
        <path class="cls-1" d="M91.38,7.86c3.32-.06,7.25.32,11.06.86,2.92.08,5.71.15,8.37.22-.17-.2-.36-.4-.54-.6-2.57-.07-5.28-.14-8.11-.22-4.38-.67-8.92-1.12-12.68-1-8.87.29-17.8.35-26.75.28-.22.18-.43.37-.64.56,9.79.1,19.56.08,29.3-.11Z"/>
        <path class="cls-23" d="M89.47,7.12c3.77-.12,8.3.34,12.68,1,2.84.08,5.54.15,8.11.22-.19-.2-.38-.4-.57-.59-2.46-.07-5.07-.14-7.82-.22-4.96-.79-10.1-1.34-14.31-1.15-7.99.35-16.04.47-24.11.43-.25.19-.49.39-.73.59,8.95.07,17.87,0,26.75-.28Z"/>
        <path class="cls-21" d="M87.56,6.39c4.21-.18,9.36.36,14.31,1.15,2.75.08,5.36.15,7.82.22-.2-.2-.41-.4-.63-.59-2.34-.07-4.83-.14-7.46-.22-5.53-.92-11.29-1.56-15.94-1.3-7.09.4-14.23.55-21.39.56-.28.2-.55.4-.81.6,8.07.03,16.12-.08,24.11-.43Z"/>
        <path class="cls-25" d="M85.65,5.65c4.65-.26,10.41.38,15.94,1.3,2.63.08,5.13.15,7.46.22-.23-.2-.47-.39-.72-.58-2.18-.07-4.53-.14-7.02-.21-6.1-1.05-12.5-1.79-17.58-1.45-6.16.42-12.36.62-18.58.68-.31.2-.61.4-.91.61,7.17-.01,14.31-.17,21.39-.56Z"/>
        <path class="cls-6" d="M83.75,4.92c5.08-.34,11.47.4,17.58,1.45,2.49.08,4.84.15,7.02.21-.23-.18-.47-.36-.71-.54-2.02-.06-4.21-.13-6.55-.21-6.68-1.18-13.71-2.04-19.21-1.6-5.21.42-10.44.65-15.7.76-.34.2-.67.4-1,.61,6.22-.06,12.43-.26,18.58-.68Z"/>
        <path class="cls-45" d="M81.86,4.24c5.51-.44,12.54.42,19.21,1.6,2.35.08,4.54.14,6.55.21-.22-.16-.45-.31-.68-.47-1.84-.06-3.88-.13-6.09-.21-7.25-1.3-14.93-2.3-20.85-1.75-4.25.4-8.52.65-12.8.79-.36.19-.71.38-1.05.58,5.26-.1,10.5-.34,15.7-.76Z"/>
        <path class="cls-41" d="M80.01,3.63c5.92-.55,13.6.44,20.85,1.75,2.2.08,4.24.14,6.09.21-.24-.16-.48-.31-.73-.46-1.64-.06-3.51-.13-5.57-.2-7.83-1.43-16.16-2.57-22.49-1.9-3.22.35-6.45.59-9.69.76-.43.2-.85.41-1.27.63,4.28-.14,8.56-.39,12.8-.79Z"/>
        <path class="cls-22" d="M78.17,3.02c6.33-.67,14.66.47,22.49,1.9,2.05.08,3.93.15,5.57.2-.24-.14-.47-.29-.72-.43-1.42-.06-3.12-.13-5.05-.21-8.4-1.56-17.41-2.87-24.13-2.05-2.06.25-4.13.46-6.2.62-.57.23-1.12.48-1.66.73,3.24-.17,6.47-.42,9.69-.76Z"/>
        <path class="cls-40" d="M76.33,2.43c6.72-.82,15.73.49,24.13,2.05,1.93.09,3.63.16,5.05.21-.34-.19-.7-.37-1.06-.56-1.39-.04-2.81-.11-4.25-.22-8.98-1.69-18.46-2.88-25.78-2.21-.31.06-.63.11-.95.16-1.16.35-2.28.74-3.35,1.18,2.07-.16,4.13-.37,6.2-.62Z"/>
        <path class="cls-44" d="M74.43,1.71c7.31-.67,16.8.52,25.78,2.21,1.44.11,2.85.17,4.25.22-.3-.15-.6-.3-.91-.44-1.05-.04-2.09-.08-3.17-.16-8.41-1.51-17.49-2.97-24.45-2.32-.83.19-1.64.41-2.44.65.32-.06.63-.1.95-.16Z"/>
        <path class="cls-10" d="M100.37,3.54c1.07.08,2.12.12,3.17.16-.43-.2-.88-.4-1.34-.59-.58-.03-1.14-.04-1.72-.08-7.19-1.22-14.89-2.5-21.34-2.43-1.09.17-2.17.38-3.22.63,6.96-.66,16.04.81,24.45,2.32Z"/>
        <path class="cls-29" d="M100.48,3.03c.58.04,1.14.05,1.72.08-.42-.18-.85-.35-1.3-.52-.08-.03-.16-.05-.23-.08-.03,0-.05,0-.08,0-5.91-.94-12.19-2-17.84-2.31-1.22.09-2.43.23-3.61.41,6.45-.07,14.15,1.21,21.34,2.43Z"/>
        <path class="cls-43" d="M100.58,2.5s.05,0,.08,0c-1.04-.38-2.1-.72-3.19-1.02-3.37-.52-6.79-1.04-10.11-1.41-.39,0-.77-.02-1.17-.02-1.16,0-2.31.05-3.45.13,5.65.31,11.93,1.37,17.84,2.31Z"/>
        <path class="cls-18" d="M97.47,1.49c-3.12-.84-6.47-1.32-10.11-1.41,3.32.37,6.75.89,10.11,1.41Z"/>
      </g>
    </g>
  </g>
</svg>