<?xml version="1.0" encoding="UTF-8"?>
<svg id="Layer_2" data-name="Layer 2" xmlns="http://www.w3.org/2000/svg" viewBox="0 0 148.22 140.05">
  <defs>
    <style>
      .cls-1 {
        fill: #c77189;
      }

      .cls-2 {
        fill: none;
      }

      .cls-3 {
        fill: #385756;
      }

      .cls-4 {
        fill: #271e24;
      }

      .cls-5 {
        fill: #2d3838;
      }

      .cls-6 {
        fill: #c98b6d;
      }

      .cls-7 {
        fill: #7a758c;
      }

      .cls-8 {
        fill: #8d6f91;
      }

      .cls-9 {
        fill: #b15d98;
      }

      .cls-10 {
        fill: #c7ae3e;
      }

      .cls-11 {
        fill: #3a827e;
      }

      .cls-12 {
        fill: #c34f9d;
      }

      .cls-13 {
        fill: #597d84;
      }

      .cls-14 {
        fill: #303f3f;
      }

      .cls-15 {
        fill: #3a5f5e;
      }

      .cls-16 {
        fill: #d46a6a;
      }

      .cls-17 {
        fill: #3c6866;
      }

      .cls-18 {
        fill: #3c706e;
      }

      .cls-19 {
        fill: #b1b362;
      }

      .cls-20 {
        fill: #70788a;
      }

      .cls-21 {
        fill: #32242d;
      }

      .cls-22 {
        fill: #c87f7c;
      }

      .cls-23 {
        fill: #cc9e4e;
      }

      .cls-24 {
        fill: #c77883;
      }

      .cls-25 {
        fill: #966b93;
      }

      .cls-26 {
        fill: #c88575;
      }

      .cls-27 {
        fill: #3c7976;
      }

      .cls-28 {
        fill: #202022;
      }

      .cls-29 {
        fill: #657b87;
      }

      .cls-30 {
        fill: #c0af4a;
      }

      .cls-31 {
        fill: #c66a8e;
      }

      .cls-32 {
        fill: #364f4e;
      }

      .cls-33 {
        fill: #a86296;
      }

      .cls-34 {
        fill: #c56193;
      }

      .cls-35 {
        fill: #84728f;
      }

      .cls-36 {
        fill: #ba569a;
      }

      .cls-37 {
        fill: #4b8081;
      }

      .cls-38 {
        fill: #293031;
      }

      .cls-39 {
        fill: #25282a;
      }

      .cls-40 {
        fill: #334747;
      }

      .cls-41 {
        fill: #cda540;
      }

      .cls-42 {
        fill: #cb985a;
      }

      .cls-43 {
        fill: #c45997;
      }

      .cls-44 {
        fill: #b8b156;
      }

      .cls-45 {
        fill: #ceac31;
      }

      .cls-46 {
        fill: #ca9265;
      }

      .cls-47 {
        fill: #9f6795;
      }
    </style>
  </defs>
  <g id="Layer_1-2" data-name="Layer 1">
    <g>
      <path class="cls-16" d="M48.96,98.55s-.02,0-.03.01h0s.02,0,.03-.01Z"/>
      <path class="cls-16" d="M.08,139.56c-.03-.12-.05-.24-.08-.36v.85h.17c0-.08-.02-.15-.04-.22-.01-.09-.03-.18-.05-.27Z"/>
      <path class="cls-16" d="M49.11,98.77c.04.05.09.1.13.16.28-.3.55-.62.81-.93,0,0,0,0,0,0-.26.31-.53.63-.81.92-.04-.05-.09-.1-.13-.15Z"/>
      <path class="cls-16" d="M109.02,31.87c.76.35,1.53.75,2.31,1.19-.78-.45-1.55-.85-2.31-1.19Z"/>
      <path class="cls-15" d="M15.38,1.79c5.94-.19,12.07-.38,18.45-.48,1.82-.03,3.66-.04,5.49-.09.97-.37,1.9-.78,2.81-1.22H4.04c2.21.54,4.5,1.17,6.85,1.87,1.54.03,3.01-.03,4.49-.08Z"/>
      <path class="cls-17" d="M30.49,17.03c6.35.37,12.81.76,19.4,1.24,1.88.13,3.77.28,5.65.4,2.6-.88,4.91-2.08,7.22-3.31.27-.17.53-.34.8-.51,1.16-.75,2.24-1.61,3.17-2.72,1.12-14.51,20.32-10.81,36.24,2.58L118.61,0H42.13c-.91.44-1.84.85-2.81,1.22-1.83.05-3.67.06-5.49.09-6.38.1-12.51.29-18.45.48-1.48.05-2.95.11-4.49.08-2.35-.7-4.64-1.33-6.85-1.87H0v9.66c6.53.43,15.7,3.01,25.67,7.02,1.67.18,3.24.26,4.82.35Z"/>
      <path class="cls-17" d="M133.19,0l-21.9,20.61-.35.33c.76.52,1.54,1.08,2.33,1.67,1.58.39,3.1.66,4.55.78,6.71.59,13.2,1.13,19.39,1.67l11.01-10.36V0h-15.03Z"/>
      <path class="cls-18" d="M10.66,20.03c.39.07.78.15,1.19.23,1.71.36,3.55.83,5.49,1.42.32.09.64.19.97.3.35.11.71.22,1.08.35.38.12.76.25,1.16.39.14.04.29.09.45.15v-2.26h62c.67-.58,1.43-1.04,2.27-1.38.23-.1.46-.19.7-.27,0,0,.02,0,.04-.01.2-.06.4-.12.61-.18.51-.12,1.05-.22,1.61-.28.21-.02.42-.04.63-.06.27-.01.56-.02.85-.02s.58.01.88.03c.27,0,.55.04.83.07.14.01.28.02.43.05.24.02.49.06.74.1.04.01.09.02.13.02.22.04.44.08.66.13.68.14,1.38.31,2.09.52.26.07.52.15.79.24.01.01.03.01.04.02.28.09.57.18.86.29.07.03.15.05.23.08l5.58-5.25c-15.92-13.39-35.12-17.09-36.24-2.58-.93,1.11-2.01,1.97-3.17,2.72-.27.17-.53.34-.8.51-2.31,1.23-4.62,2.43-7.22,3.31-1.88-.12-3.77-.27-5.65-.4-6.59-.48-13.05-.87-19.4-1.24-1.58-.09-3.15-.17-4.82-.35C15.7,12.67,6.53,10.09,0,9.66v8.67c2.66.09,5.8.6,9.29,1.47.45.07.9.14,1.37.23Z"/>
      <path class="cls-18" d="M113.27,22.61c-.79-.59-1.57-1.15-2.33-1.67l-4.07,3.83c5.45,3.14,11.11,7.77,16.22,13.58l4.13-3.89,9.99-9.4c-6.19-.54-12.68-1.08-19.39-1.67-1.45-.12-2.97-.39-4.55-.78Z"/>
      <path class="cls-18" d="M132.17,45.28c5.53,1.09,10.89,2.14,16.05,3.15v-20l-17.56,16.51c.51.13,1.01.24,1.51.34Z"/>
      <path class="cls-27" d="M130.66,44.94l-.87.82c.1.1.2.21.29.31,1.2,1.09,2.41,2.28,3.62,3.57,1.69.71,3.32,1.18,4.92,1.6,3.26.8,6.46,1.6,9.6,2.38v-5.19c-5.16-1.01-10.52-2.06-16.05-3.15-.5-.1-1-.21-1.51-.34Z"/>
      <path class="cls-27" d="M19.39,22.33c-.37-.13-.73-.24-1.08-.35-.33-.11-.65-.21-.97-.3-1.94-.59-3.78-1.06-5.49-1.42-.41-.08-.8-.16-1.19-.23-.47-.09-.92-.16-1.37-.23.46.12.93.24,1.41.37.4.11.8.22,1.21.34.28.08.55.16.84.24.05.02.11.03.16.05.07.02.15.05.23.07.16.05.32.1.48.15.5.15,1.01.31,1.51.48.42.13.84.27,1.27.42.47.16.95.33,1.44.5.48.17.97.35,1.46.53.56.21,1.13.42,1.7.64v-.72c-.16-.06-.31-.11-.45-.15-.4-.14-.78-.27-1.16-.39Z"/>
      <path class="cls-27" d="M96.3,19.59s-.03-.01-.04-.02c-.27-.09-.53-.17-.79-.24-.71-.21-1.41-.38-2.09-.52-.22-.05-.44-.09-.66-.13-.04,0-.09-.01-.13-.02-.25-.04-.5-.08-.74-.1-.15-.03-.29-.04-.43-.05-.28-.03-.56-.06-.83-.07-.3-.02-.59-.03-.88-.03s-.58.01-.85.02c-.21.02-.42.04-.63.06-.56.06-1.1.16-1.61.28-.21.06-.41.12-.61.18-.02.01-.03.01-.04.01-.24.08-.47.17-.7.27-.84.34-1.6.8-2.27,1.38h5.83c.22-.07.45-.13.68-.18.07-.02.15-.04.23-.05.23-.05.48-.09.72-.13.16-.02.32-.04.49-.06.19-.02.37-.04.56-.05.32-.02.64-.03.97-.03.3,0,.61.01.92.03.05,0,.1,0,.15.01.1,0,.2.01.3.02.22.01.44.04.66.06.02,0,.03,0,.05.01.24.03.48.06.72.1.12.02.25.04.37.06.35.06.7.12,1.05.21l.69-.65c-.08-.03-.16-.05-.23-.08-.29-.11-.58-.2-.86-.29Z"/>
      <path class="cls-11" d="M2.13,22.97c.24.02.49.04.74.07.44.04.89.09,1.36.16,4.68.62,10.46,2.24,16.77,4.71v-4.32c-.57-.22-1.14-.43-1.7-.64-.49-.18-.98-.36-1.46-.53-.49-.17-.97-.34-1.44-.5-.43-.15-.85-.29-1.27-.42-.5-.17-1.01-.33-1.51-.48-.16-.05-.32-.1-.48-.15-.08-.02-.16-.05-.23-.07-.05-.02-.11-.03-.16-.05-.29-.08-.56-.16-.84-.24-.41-.12-.81-.23-1.21-.34-.48-.13-.95-.25-1.41-.37-3.49-.87-6.63-1.38-9.29-1.47v4.57c.4-.01.82,0,1.26.02.29.02.57.03.87.05Z"/>
      <path class="cls-11" d="M95.28,20.34c-.24-.04-.48-.07-.72-.1-.02-.01-.03-.01-.05-.01-.22-.02-.44-.05-.66-.06-.1-.01-.2-.02-.3-.02-.05-.01-.1-.01-.15-.01-.31-.02-.62-.03-.92-.03-.33,0-.65.01-.97.03-.19.01-.37.03-.56.05-.17.02-.33.04-.49.06-.24.04-.49.08-.72.13-.08.01-.16.03-.23.05-.23.05-.46.11-.68.18h7.87c-.35-.09-.7-.15-1.05-.21-.12-.02-.25-.04-.37-.06Z"/>
      <path class="cls-11" d="M106.87,24.77l-4.27,4.02c.68.28,1.37.58,2.06.91,1.07.51,2.16,1.08,3.24,1.67.37.15.75.32,1.12.5.76.34,1.53.74,2.31,1.19.39.22.79.45,1.18.7.05.03.1.06.15.09.34.21.69.43,1.04.67.4.26.8.54,1.2.82.35.25.7.51,1.05.77.11.08.22.17.33.25.34.26.69.53,1.03.81.38.31.76.62,1.14.95.24.2.47.4.71.61.59.53,1.19,1.08,1.78,1.64l2.15-2.02c-5.11-5.81-10.77-10.44-16.22-13.58Z"/>
      <path class="cls-11" d="M133.7,49.64c-1.21-1.29-2.42-2.48-3.62-3.57-.09-.1-.19-.21-.29-.31l-2.06,1.94c1.04,1.01,2.08,2.05,3.13,3.22,1.25,1.19,2.51,2.5,3.77,3.93.91.49,1.8.92,2.68,1.34.83.26,1.66.51,2.48.73,2.86.77,5.67,1.53,8.43,2.28v-5.58c-3.14-.78-6.34-1.58-9.6-2.38-1.6-.42-3.23-.89-4.92-1.6Z"/>
      <path class="cls-37" d="M21,32.9v-4.99c-6.31-2.47-12.09-4.09-16.77-4.71-.47-.07-.92-.12-1.36-.16-.25-.03-.5-.05-.74-.07-.3-.02-.58-.03-.87-.05-.44-.02-.86-.03-1.26-.02v5.52c4.74-.59,12.31,1.07,21,4.48Z"/>
      <path class="cls-37" d="M118.45,38.12c-.38-.33-.76-.64-1.14-.95-.34-.28-.69-.55-1.03-.81-.11-.08-.22-.17-.33-.25-.35-.26-.7-.52-1.05-.77-.4-.28-.8-.56-1.2-.82-.35-.24-.7-.46-1.04-.67-.05-.03-.1-.06-.15-.09-.39-.25-.79-.48-1.18-.7-.78-.44-1.55-.84-2.31-1.19-.37-.18-.75-.35-1.12-.5-1.08-.59-2.17-1.16-3.24-1.67-.69-.33-1.38-.63-2.06-.91l-5.8,5.45c.62.09,1.25.2,1.89.34,1.1.31,2.22.68,3.35,1.11,1.13.42,2.26.9,3.4,1.43,1.11.52,2.23,1.08,3.32,1.65,2.75.55,5.9,2.07,9.16,4.43l3.02-2.83c-.59-.56-1.19-1.11-1.78-1.64-.24-.21-.47-.41-.71-.61Z"/>
      <path class="cls-37" d="M137.31,56.19c-.88-.42-1.77-.85-2.68-1.34-1.26-1.43-2.52-2.74-3.77-3.93-1.05-1.17-2.09-2.21-3.13-3.22l-.51.48v3.86c.12.14.24.29.36.43,1.42,1.37,2.82,2.77,4.23,4.39,1.3,1.3,2.6,2.73,3.88,4.3.93.61,1.84,1.19,2.74,1.76.87.28,1.74.54,2.6.78,2.43.69,4.83,1.37,7.19,2.05v-6.55c-2.76-.75-5.57-1.51-8.43-2.28-.82-.22-1.65-.47-2.48-.73Z"/>
      <path class="cls-13" d="M21,38.42v-5.52c-8.69-3.41-16.26-5.07-21-4.48v7.44c.63-.63,1.45-1.09,2.5-1.36,4.28-.5,10.89.96,18.5,3.92Z"/>
      <path class="cls-13" d="M105.44,37.12c-1.14-.53-2.27-1.01-3.4-1.43-1.13-.43-2.25-.8-3.35-1.11-.64-.14-1.27-.25-1.89-.34l-8.8,8.28c3.5-.59,7.37-.53,11.52.26,1.13.33,2.27.72,3.43,1.16,1.15.44,2.31.93,3.47,1.47,1.13.52,2.26,1.08,3.37,1.63,1.09-.07,2.29.09,3.57.46l4.56-4.3c-3.26-2.36-6.41-3.88-9.16-4.43-1.09-.57-2.21-1.13-3.32-1.65Z"/>
      <path class="cls-13" d="M138.43,62.92c-.9-.57-1.81-1.15-2.74-1.76-1.28-1.57-2.58-3-3.88-4.3-1.41-1.62-2.81-3.02-4.23-4.39-.12-.14-.24-.29-.36-.43v5.53c.41.46.82.94,1.23,1.43,1.46,1.43,2.9,2.92,4.34,4.65,1.33,1.41,2.65,2.97,3.94,4.67.94.75,1.86,1.47,2.76,2.19.9.31,1.8.6,2.68.86,2.04.61,4.06,1.22,6.05,1.82v-7.44c-2.36-.68-4.76-1.36-7.19-2.05-.86-.24-1.73-.5-2.6-.78Z"/>
      <path class="cls-29" d="M1.78,47.69c-.17-2.34.42-3.98,1.56-5.14.74-.74,1.7-1.28,2.97-1.54,3.74-.07,8.87,1.15,14.69,3.37v-5.96c-7.61-2.96-14.22-4.42-18.5-3.92-1.05.27-1.87.73-2.5,1.36v11.82c.65.06,1.25.07,1.78.01Z"/>
      <path class="cls-29" d="M109.79,47.04c-1.11-.55-2.24-1.11-3.37-1.63-1.16-.54-2.32-1.03-3.47-1.47-1.16-.44-2.3-.83-3.43-1.16-4.15-.79-8.02-.85-11.52-.26l-9.82,9.24c1.87.08,4,.46,6.04.11.96-.17,1.93-.32,2.91-.46,4.1-.57,8.53-.59,13.26.2,1.15.36,2.32.77,3.49,1.22.87.34,1.75.71,2.63,1.11l6.85-6.44c-1.28-.37-2.48-.53-3.57-.46Z"/>
      <path class="cls-29" d="M139.49,70.51c-.9-.72-1.82-1.44-2.76-2.19-1.29-1.7-2.61-3.26-3.94-4.67-1.44-1.73-2.88-3.22-4.34-4.65-.41-.49-.82-.97-1.23-1.43v6.24c.69.73,1.37,1.5,2.05,2.32,1.49,1.48,2.96,3.07,4.41,4.91,1.34,1.52,2.66,3.21,3.94,5.06.93.88,1.84,1.75,2.73,2.63.93.32,1.84.63,2.75.92,1.73.55,3.43,1.09,5.12,1.63v-8.09c-1.99-.6-4.01-1.21-6.05-1.82-.88-.26-1.78-.55-2.68-.86Z"/>
      <path class="cls-20" d="M4.93,53.71c.13-2.08.93-3.5,2.18-4.49.8-.63,1.77-1.09,3.03-1.27,3.02.24,6.74,1.2,10.86,2.75v-6.32c-5.82-2.22-10.95-3.44-14.69-3.37-1.27.26-2.23.8-2.97,1.54-1.14,1.16-1.73,2.8-1.56,5.14-.53.06-1.13.05-1.78-.01v5.27c.15.04.3.08.45.12,1.74.48,3.25.72,4.48.64Z"/>
      <path class="cls-20" d="M100.39,51.61c-4.73-.79-9.16-.77-13.26-.2-.98.14-1.95.29-2.91.46-2.04.35-4.17-.03-6.04-.11l-9.4,8.84c.51-.18,1.03-.35,1.56-.49,1.22-.33,2.46-.64,3.71-1.01,2.73-.46,6.68,1.82,10.32,1.57,1.04-.07,2.09-.14,3.13-.21,3.8-.27,7.76-.3,11.9.17l7.11-6.69c-.88-.4-1.76-.77-2.63-1.11-1.17-.45-2.34-.86-3.49-1.22Z"/>
      <path class="cls-20" d="M140.35,78.73c-.89-.88-1.8-1.75-2.73-2.63-1.28-1.85-2.6-3.54-3.94-5.06-1.45-1.84-2.92-3.43-4.41-4.91-.68-.82-1.36-1.59-2.05-2.32v6.79c.91.91,1.82,1.92,2.71,3,1.5,1.54,2.98,3.22,4.43,5.18,1.33,1.63,2.63,3.45,3.88,5.44.91,1.01,1.8,2.03,2.66,3.07.94.34,1.88.67,2.81.98,1.52.51,3.02,1.02,4.51,1.51v-8.5c-1.69-.54-3.39-1.08-5.12-1.63-.91-.29-1.82-.6-2.75-.92Z"/>
      <path class="cls-7" d="M7.89,59.87c.42-1.78,1.41-2.97,2.77-3.79.85-.52,1.84-.88,3.08-.98,2.19.39,4.63,1.1,7.26,2.07v-6.47c-4.12-1.55-7.84-2.51-10.86-2.75-1.26.18-2.23.64-3.03,1.27-1.25.99-2.05,2.41-2.18,4.49-1.23.08-2.74-.16-4.48-.64-.15-.04-.3-.08-.45-.12v5.05c1.27.45,2.49.83,3.67,1.17,1.61.47,3.03.74,4.22.7Z"/>
      <path class="cls-7" d="M87.5,60.46c-1.04.07-2.09.14-3.13.21-3.64.25-7.59-2.03-10.32-1.57-1.25.37-2.49.68-3.71,1.01-.53.14-1.05.31-1.56.49l-9.61,9.05s.07-.01.11-.01c1.17-.07,2.34-.14,3.54-.18,2.07-1.05,4.11-2.17,6.51-2.68,1.17-.25,2.39-.45,3.64-.66,3.1.13,7.4,3.4,11.35,3.49,1.1.02,2.21.04,3.31.03.73,0,1.46-.01,2.2-.01l9.57-9c-4.14-.47-8.1-.44-11.9-.17Z"/>
      <path class="cls-7" d="M140.9,87.29c-.86-1.04-1.75-2.06-2.66-3.07-1.25-1.99-2.55-3.81-3.88-5.44-1.45-1.96-2.93-3.64-4.43-5.18-.89-1.08-1.8-2.09-2.71-3v7.14c1.05.99,2.09,2.13,3.12,3.39,1.5,1.6,2.98,3.38,4.41,5.45,1.31,1.74,2.58,3.69,3.78,5.82.88,1.14,1.73,2.31,2.55,3.5.95.37,1.9.72,2.85,1.05,1.44.51,2.87,1.02,4.29,1.52v-8.69c-1.49-.49-2.99-1-4.51-1.51-.93-.31-1.87-.64-2.81-.98Z"/>
      <path class="cls-35" d="M10.48,65.95c.68-1.48,1.85-2.42,3.31-3.06.89-.39,1.9-.66,3.12-.67,1.3.37,2.67.83,4.09,1.36v-6.41c-2.63-.97-5.07-1.68-7.26-2.07-1.24.1-2.23.46-3.08.98-1.36.82-2.35,2.01-2.77,3.79-1.19.04-2.61-.23-4.22-.7-1.18-.34-2.4-.72-3.67-1.17v4.86c2.32.93,4.47,1.69,6.5,2.32,1.49.46,2.83.75,3.98.77Z"/>
      <path class="cls-35" d="M84.32,69.61c-3.95-.09-8.25-3.36-11.35-3.49-1.25.21-2.47.41-3.64.66-2.4.51-4.44,1.63-6.51,2.68-1.2.04-2.37.11-3.54.18-.04,0-.07,0-.11.01l-7.82,7.35c2.66,0,5.04-.41,7.47-.77,1.04-.15,2.09-.31,3.16-.42,1.92-1.1,3.84-2.18,6.17-2.54,1.13-.18,2.32-.27,3.58-.31,2.71.59,6.14,3.38,9.53,4.74l8.57-8.07c-.74,0-1.47.01-2.2.01-1.1.01-2.21-.01-3.31-.03Z"/>
      <path class="cls-35" d="M141.08,95.9c-.82-1.19-1.67-2.36-2.55-3.5-1.2-2.13-2.47-4.08-3.78-5.82-1.43-2.07-2.91-3.85-4.41-5.45-1.03-1.26-2.07-2.4-3.12-3.39v7.21c1.09,1.01,2.17,2.19,3.24,3.51,1.5,1.65,2.97,3.52,4.37,5.7,1.28,1.85,2.51,3.92,3.64,6.19.84,1.28,1.64,2.59,2.4,3.94.97.38,1.93.75,2.88,1.1,1.51.56,3,1.12,4.47,1.67v-8.59c-1.42-.5-2.85-1.01-4.29-1.52-.95-.33-1.9-.68-2.85-1.05Z"/>
      <path class="cls-8" d="M12.57,71.67c.92-1.15,2.24-1.84,3.78-2.28.93-.27,1.95-.44,3.16-.37.49.19.99.39,1.49.61v-6.05c-1.42-.53-2.79-.99-4.09-1.36-1.22.01-2.23.28-3.12.67-1.46.64-2.63,1.58-3.31,3.06-1.15-.02-2.49-.31-3.98-.77-2.03-.63-4.18-1.39-6.5-2.32v4.58c3.2,1.42,6.08,2.53,8.81,3.41,1.38.44,2.64.74,3.76.82Z"/>
      <path class="cls-8" d="M68.15,73.27c-2.33.36-4.25,1.44-6.17,2.54-1.07.11-2.12.27-3.16.42-2.43.36-4.81.77-7.47.77h-.01l-6.34,5.97c.38.13.76.24,1.13.33.54.14,1.05.24,1.56.31,4.07.61,7.17-.37,10.36-1.23.93-.25,1.85-.49,2.81-.69,1.77-1.15,3.59-2.19,5.85-2.4,1.1-.1,2.27-.08,3.52.06,1.68.62,3.59,2.03,5.58,3.47l5.45-5.12c-3.39-1.36-6.82-4.15-9.53-4.74-1.26.04-2.45.13-3.58.31Z"/>
      <path class="cls-8" d="M140.87,104.29c-.76-1.35-1.56-2.66-2.4-3.94-1.13-2.27-2.36-4.34-3.64-6.19-1.4-2.18-2.87-4.05-4.37-5.7-1.07-1.32-2.15-2.5-3.24-3.51v6.98c1.03.97,2.06,2.09,3.07,3.35,1.49,1.7,2.95,3.66,4.32,5.95,1.25,1.96,2.43,4.15,3.49,6.55.79,1.4,1.53,2.86,2.22,4.36.98.4,1.95.78,2.92,1.16,1.68.65,3.34,1.29,4.98,1.93v-8.17c-1.47-.55-2.96-1.11-4.47-1.67-.95-.35-1.91-.72-2.88-1.1Z"/>
      <path class="cls-25" d="M14.03,76.75c1.13-.81,2.59-1.23,4.22-1.47.84-.12,1.74-.19,2.75-.09v-5.56c-.5-.22-1-.42-1.49-.61-1.21-.07-2.23.1-3.16.37-1.54.44-2.86,1.13-3.78,2.28-1.12-.08-2.38-.38-3.76-.82-2.73-.88-5.61-1.99-8.81-3.41v4.21c3.82,1.77,7.25,3.15,10.48,4.23,1.28.43,2.47.74,3.55.87Z"/>
      <path class="cls-25" d="M66.71,79.29c-2.26.21-4.08,1.25-5.85,2.4-.96.2-1.88.44-2.81.69-3.19.86-6.29,1.84-10.36,1.23-.51-.07-1.02-.17-1.56-.31-.37-.09-.75-.2-1.13-.33l-4.05,3.81c1.27.83,2.51,1.61,3.72,2.35.51.18,1.01.34,1.5.46.5.13.97.21,1.44.27,3.75.47,6.48-.87,9.3-2.05.82-.35,1.64-.69,2.5-.97,1.64-1.19,3.35-2.2,5.55-2.25,1.06-.03,2.2.1,3.45.4.94.47,1.93,1.17,2.96,2l4.44-4.17c-1.99-1.44-3.9-2.85-5.58-3.47-1.25-.14-2.42-.16-3.52-.06Z"/>
      <path class="cls-25" d="M140.32,112.14c-.69-1.5-1.43-2.96-2.22-4.36-1.06-2.4-2.24-4.59-3.49-6.55-1.37-2.29-2.83-4.25-4.32-5.95-1.01-1.26-2.04-2.38-3.07-3.35v6.46c.89.85,1.78,1.83,2.65,2.92,1.5,1.75,2.95,3.8,4.29,6.19,1.21,2.06,2.34,4.37,3.34,6.9.73,1.53,1.41,3.12,2.03,4.77.99.42,1.97.82,2.95,1.21,1.94.78,3.86,1.55,5.74,2.31v-7.46c-1.64-.64-3.3-1.28-4.98-1.93-.97-.38-1.94-.76-2.92-1.16Z"/>
      <path class="cls-47" d="M3.02,76.7c1.48.66,2.91,1.25,4.31,1.8.47.18.93.36,1.39.53.92.35,1.82.67,2.71.97,1.19.41,2.32.72,3.37.9,1.33-.45,2.91-.6,4.61-.62.31-.01.63-.01.96.01.2.01.42.02.63.04v-5.14c-1.01-.1-1.91-.03-2.75.09-1.63.24-3.09.66-4.22,1.47-1.08-.13-2.27-.44-3.55-.87-3.23-1.08-6.66-2.46-10.48-4.23v3.67s.02.02.04.02c1.01.48,2.01.94,2.98,1.36Z"/>
      <path class="cls-47" d="M64.96,84.59c-2.2.05-3.91,1.06-5.55,2.25-.86.28-1.68.62-2.5.97-2.82,1.18-5.55,2.52-9.3,2.05-.47-.06-.94-.14-1.44-.27-.49-.12-.99-.28-1.5-.46-1.21-.74-2.45-1.52-3.72-2.35l-3.52,3.31c1.14.76,2.27,1.5,3.37,2.22,1.21.79,2.37,1.5,3.5,2.15.48.17.94.32,1.39.43.46.12.91.18,1.33.23,3.48.33,5.88-1.38,8.35-2.9.72-.45,1.45-.88,2.22-1.25,1.5-1.24,3.12-2.21,5.26-2.11,1.03.05,2.15.29,3.39.76.44.27.89.59,1.34.94l3.79-3.57c-1.03-.83-2.02-1.53-2.96-2-1.25-.3-2.39-.43-3.45-.4Z"/>
      <path class="cls-47" d="M139.53,119.17c-.62-1.65-1.3-3.24-2.03-4.77-1-2.53-2.13-4.84-3.34-6.9-1.34-2.39-2.79-4.44-4.29-6.19-.87-1.09-1.76-2.07-2.65-2.92v5.57c.34.34.68.7,1.03,1.09.34.38.69.79,1.03,1.22,1.51,1.79,2.96,3.92,4.28,6.41,1.19,2.16,2.28,4.58,3.22,7.23.68,1.66,1.3,3.39,1.84,5.19.84.36,1.67.71,2.5,1.05.66-.1,1.31-.16,1.95-.18,1.77.08,3.5.52,5.15,1.33v-4.61c-1.88-.76-3.8-1.53-5.74-2.31-.98-.39-1.96-.79-2.95-1.21Z"/>
      <path class="cls-33" d="M14.82,83.85c1.51-.09,3.2.02,4.97.22.4.05.8.1,1.21.17v-3.91c-.21-.02-.43-.03-.63-.04-.33-.02-.65-.02-.96-.01-1.7.02-3.28.17-4.61.62-1.05-.18-2.18-.49-3.37-.9-.89-.3-1.79-.62-2.71-.97-.46-.17-.92-.35-1.39-.53-1.4-.55-2.83-1.14-4.31-1.8-.97-.42-1.97-.88-2.98-1.36-.02,0-.03-.01-.04-.02v3.01c4.07,1.83,7.88,3.31,11.6,4.59,1.11.38,2.19.7,3.22.93Z"/>
      <path class="cls-33" d="M62.85,88.86c-2.14-.1-3.76.87-5.26,2.11-.77.37-1.5.8-2.22,1.25-2.47,1.52-4.87,3.23-8.35,2.9-.42-.05-.87-.11-1.33-.23-.45-.11-.91-.26-1.39-.43-1.13-.65-2.29-1.36-3.5-2.15-1.1-.72-2.23-1.46-3.37-2.22l-2.73,2.57c3.18,1.12,6.4,2.29,9.63,3.49,1.27.46,2.55.96,3.9,1.64.23.25.47.51.7.77.01,0,.02,0,.03-.01.38-.16.74-.34,1.09-.55h0s0,0,0,0c.31-.37.61-.74.92-1.1.54-.65,1.09-1.28,1.68-1.82.96-1.03,2.05-1.79,3.44-1.91,1.19-.94,2.53-1.54,4.26-1.33.99.12,2.1.47,3.35,1.12.24.17.49.36.73.56l3.15-2.96c-.45-.35-.9-.67-1.34-.94-1.24-.47-2.36-.71-3.39-.76Z"/>
      <path class="cls-33" d="M128.62,109.86c1.53,1.84,3,4.05,4.31,6.63,1.18,2.26,2.25,4.79,3.15,7.57.49,1.37.92,2.8,1.32,4.27.5-.49,1.01-1.04,1.53-1.66.74-.24,1.47-.4,2.19-.52-.83-.34-1.66-.69-2.5-1.05-.54-1.8-1.16-3.53-1.84-5.19-.94-2.65-2.03-5.07-3.22-7.23-1.32-2.49-2.77-4.62-4.28-6.41-.34-.43-.69-.84-1.03-1.22-.35-.39-.69-.75-1.03-1.09v4.33c.24.24.47.49.7.76.24.26.47.53.7.81Z"/>
      <path class="cls-9" d="M14,85.31c1.69.27,3.5.65,5.35,1.08.54.12,1.09.25,1.65.4v-2.55c-.41-.07-.81-.12-1.21-.17-1.77-.2-3.46-.31-4.97-.22-1.03-.23-2.11-.55-3.22-.93-3.72-1.28-7.53-2.76-11.6-4.59v2.06c3.66,1.44,7.28,2.74,10.91,3.96,1.04.35,2.07.68,3.09.96Z"/>
      <path class="cls-9" d="M49.11,98.77c.04.05.09.1.13.15.28-.3.54-.61.81-.92h0c-.35.21-.71.38-1.09.54-.01,0-.02.01-.03.02.06.07.12.14.18.21Z"/>
      <path class="cls-9" d="M60.35,91.84c-1.73-.21-3.07.39-4.26,1.33.41-.03.84-.01,1.31.08.98.19,2.08.65,3.33,1.47.42.33.83.7,1.26,1.1l2.44-2.3c-.24-.2-.49-.39-.73-.56-1.25-.65-2.36-1-3.35-1.12Z"/>
      <path class="cls-9" d="M132.38,118.66c1.2,2.36,2.27,5,3.15,7.9.28.88.54,1.8.79,2.72.36-.28.72-.6,1.08-.95-.4-1.47-.83-2.9-1.32-4.27-.9-2.78-1.97-5.31-3.15-7.57-1.31-2.58-2.78-4.79-4.31-6.63-.23-.28-.46-.55-.7-.81-.23-.27-.46-.52-.7-.76v2.7c.25.27.5.54.74.83,1.58,1.88,3.08,4.17,4.42,6.84Z"/>
      <path class="cls-36" d="M57.4,93.25c-.47-.09-.9-.11-1.31-.08-1.39.12-2.48.88-3.44,1.91-.59.54-1.14,1.17-1.68,1.82-.31.36-.61.73-.92,1.1-.26.31-.53.63-.81.93.65.75,1.28,1.53,1.9,2.34,1.36-1.74,2.82-3.19,4.99-3.01.09,0,.18.01.27.03.11.01.22.03.34.06.24.05.5.12.76.22.1.03.2.07.3.11.24.09.5.21.76.36h.01l3.42-3.22c-.43-.4-.84-.77-1.26-1.1-1.25-.82-2.35-1.28-3.33-1.47Z"/>
      <path class="cls-36" d="M21,86.79c-.56-.15-1.11-.28-1.65-.4-1.85-.43-3.66-.81-5.35-1.08-1.02-.28-2.05-.61-3.09-.96-3.63-1.22-7.25-2.52-10.91-3.96v.72c6.49,2.03,13.58,4.31,21,6.81v-1.13Z"/>
      <path class="cls-36" d="M128.43,116.88c.21.25.42.5.62.76.21.26.41.53.61.81.2.27.4.56.59.85.21.31.42.63.62.96.17.28.34.57.51.87.12.21.24.42.36.63.01.02.02.04.03.06.14.26.28.52.42.79.16.31.33.64.48.97.24.49.48,1,.7,1.52.23.52.45,1.05.66,1.59.21.53.42,1.08.61,1.63.01.02.02.05.02.07.2.55.39,1.1.57,1.67.36-.23.72-.48,1.09-.78-.25-.92-.51-1.84-.79-2.72-.88-2.9-1.95-5.54-3.15-7.9-1.34-2.67-2.84-4.96-4.42-6.84-.24-.29-.49-.56-.74-.83v4.59c.4.39.8.82,1.19,1.27,0,.01,0,.02.02.03Z"/>
      <path class="cls-12" d="M12.04,88.22c2.79.94,5.65,1.92,8.57,2.95.13.05.26.09.39.14v-3.39c-7.42-2.5-14.51-4.78-21-6.81v3.13c2.46.79,5.02,1.63,7.65,2.5,1.44.48,2.9.97,4.39,1.48Z"/>
      <path class="cls-12" d="M37.2,103.14c.68.49,1.34.95,1.99,1.35,1.41.88,2.74,1.57,3.96,1.9,3.97,1.08,5.85-2.38,7.99-5.12-.62-.81-1.25-1.59-1.9-2.34-.04-.05-.09-.1-.13-.16-.06-.07-.12-.14-.18-.21h0c-.23-.26-.47-.52-.7-.77-1.35-.68-2.63-1.18-3.9-1.64-3.23-1.2-6.45-2.37-9.63-3.49l-5.07,4.77c1.53,1.29,2.96,2.42,4.33,3.44,1.12.84,2.2,1.59,3.24,2.27Z"/>
      <path class="cls-12" d="M141.12,126.15c-.72.12-1.45.28-2.19.52-.52.62-1.03,1.17-1.53,1.66-.36.35-.72.67-1.08.95-.37.3-.73.55-1.09.78.85,2.64,1.56,5.46,2.08,8.41,1.06.49,2.12.97,3.16,1.43.11.05.23.1.34.15h7.41v-12.75c-1.65-.81-3.38-1.25-5.15-1.33-.64.02-1.29.08-1.95.18Z"/>
      <path class="cls-12" d="M88.16,120.12c2.44.26,4.86.14,7.32-.13,1.23.43,2.46.85,3.69,1.27,1.22.43,2.45.86,3.67,1.31,1.21.44,2.42.9,3.63,1.12.75-1.63,1.51-3.05,2.28-4.25h-24.82c.24.06.48.11.72.16,1.17.23,2.34.4,3.51.52Z"/>
      <path class="cls-43" d="M21,91.83v-.52c-.13-.05-.26-.09-.39-.14-2.92-1.03-5.78-2.01-8.57-2.95-1.49-.51-2.95-1-4.39-1.48-2.63-.87-5.19-1.71-7.65-2.5v3.15c5.76,1.92,12.11,4.1,18.81,6.5l2.19-2.06Z"/>
      <path class="cls-43" d="M57.5,98.57c-.26-.1-.52-.17-.76-.22-.12-.03-.23-.05-.34-.06-.09-.02-.18-.03-.27-.03-2.17-.18-3.63,1.27-4.99,3.01-2.14,2.74-4.02,6.2-7.99,5.12-1.22-.33-2.55-1.02-3.96-1.9-.65-.4-1.31-.86-1.99-1.35-1.04-.68-2.12-1.43-3.24-2.27-1.37-1.02-2.8-2.15-4.33-3.44l-1.23,1.16c2.79,2.46,5.29,4.52,7.62,6.26,1.09.81,2.14,1.56,3.16,2.24.67.53,1.32,1.03,1.96,1.48,1.39.99,2.71,1.78,3.94,2.22.26.09.52.17.76.22l12.72-11.97c-.26-.15-.52-.27-.76-.36-.1-.04-.2-.08-.3-.11Z"/>
      <path class="cls-43" d="M81.14,122.63c1.67.63,3.33,1.11,4.99,1.48,1.15.25,2.3.45,3.46.61,2.39.33,4.79.15,7.22-.22,1.2.33,2.39.65,3.58.98,1.2.32,2.4.66,3.59,1.04,1.19.37,2.37.79,3.56,1.02.82-1.46,1.63-2.69,2.46-3.67.67-.83,1.35-1.54,2.04-2.17.97-.89,1.96-1.65,2.98-2.26h-6.27c-.77,1.2-1.53,2.62-2.28,4.25-1.21-.22-2.42-.68-3.63-1.12-1.22-.45-2.45-.88-3.67-1.31-1.23-.42-2.46-.84-3.69-1.27-2.46.27-4.88.39-7.32.13-1.17-.12-2.34-.29-3.51-.52-.24-.05-.48-.1-.72-.16h-8.86c.68.56,1.37,1.02,2.07,1.37,1.35.66,2.68,1.33,4,1.82Z"/>
      <path class="cls-43" d="M137.31,138.47c-.52-2.95-1.23-5.77-2.08-8.41-.18-.57-.37-1.12-.57-1.67,0-.02-.01-.05-.02-.07-.19-.55-.4-1.1-.61-1.63-.21-.54-.43-1.07-.66-1.59-.22-.52-.46-1.03-.7-1.52-.15-.33-.32-.66-.48-.97-.14-.27-.28-.53-.42-.79-.01-.02-.02-.04-.03-.06-.12-.21-.24-.42-.36-.63-.17-.3-.34-.59-.51-.87-.2-.33-.41-.65-.62-.96-.19-.29-.39-.58-.59-.85-.2-.28-.4-.55-.61-.81-.2-.26-.41-.51-.62-.76-.01,0-.01-.02-.02-.03-.39-.45-.79-.88-1.19-1.27v3.86h-.57c.36.24.72.51,1.08.8,4.29,3.65,7.47,11.36,9.34,19.81h3.74c-.11-.05-.23-.1-.34-.15-1.04-.46-2.1-.94-3.16-1.43Z"/>
      <path class="cls-34" d="M18.81,93.89c-6.7-2.4-13.05-4.58-18.81-6.5v3.15c4.96,1.72,10.43,3.65,16.23,5.78l2.58-2.43Z"/>
      <path class="cls-34" d="M41.14,108.57c-.64-.45-1.29-.95-1.96-1.48-1.02-.68-2.07-1.43-3.16-2.24-2.33-1.74-4.83-3.8-7.62-6.26l-1.74,1.64c.66.25,1.32.53,2.01.85,3.46,3.15,6.49,5.66,9.32,7.77,1.05.78,2.07,1.53,3.08,2.21.65.58,1.29,1.12,1.92,1.62.2.16.39.31.59.46l2.26-2.13c-.24-.05-.5-.13-.76-.22-1.23-.44-2.55-1.23-3.94-2.22Z"/>
      <path class="cls-34" d="M127.73,120.24c-.36-.29-.72-.56-1.08-.8h-11.63c-1.02.61-2.01,1.37-2.98,2.26-.69.63-1.37,1.34-2.04,2.17-.83.98-1.64,2.21-2.46,3.67-1.19-.23-2.37-.65-3.56-1.02-1.19-.38-2.39-.72-3.59-1.04-1.19-.33-2.38-.65-3.58-.98-2.43.37-4.83.55-7.22.22-1.16-.16-2.31-.36-3.46-.61-1.66-.37-3.32-.85-4.99-1.48-1.32-.49-2.65-1.16-4-1.82-.7-.35-1.39-.81-2.07-1.37h-2.66c2.05,2.51,4.11,4.72,6.29,5.81,1.31.66,2.61,1.32,3.9,1.83,1.63.64,3.26,1.14,4.88,1.54,1.14.28,2.27.5,3.41.7,2.36.41,4.73.16,7.14-.31,1.17.24,2.33.45,3.5.68,1.17.22,2.35.47,3.52.78,1.16.3,2.32.67,3.5.92.86-1.29,1.73-2.33,2.59-3.09.69-.63,1.38-1.16,2.09-1.62,4.96-3.31,10.6-5.01,15.57-1.12,3.33,2.77,5.69,8.31,7.37,14.49h.9c-1.87-8.45-5.05-16.16-9.34-19.81Z"/>
      <path class="cls-31" d="M16.23,96.32c-5.8-2.13-11.27-4.06-16.23-5.78v3.16c4.19,1.51,8.79,3.18,13.68,5.02l2.55-2.4Z"/>
      <path class="cls-31" d="M41.07,111.06c-1.01-.68-2.03-1.43-3.08-2.21-2.83-2.11-5.86-4.62-9.32-7.77-.69-.32-1.35-.6-2.01-.85l-2.61,2.45c1.21.47,2.44.95,3.67,1.44,1.03.41,2.07.82,3.14,1.33,3.29,2.98,6.22,5.37,8.98,7.42.77.57,1.53,1.12,2.27,1.65l1.47-1.38c-.2-.15-.39-.3-.59-.46-.63-.5-1.27-1.04-1.92-1.62Z"/>
      <path class="cls-31" d="M55.4,119.44h-3.92l-1,.94c1.85.43,3.43-.09,4.92-.94Z"/>
      <path class="cls-31" d="M128.8,125.56c-4.97-3.89-10.61-2.19-15.57,1.12-.71.46-1.4.99-2.09,1.62-.86.76-1.73,1.8-2.59,3.09-1.18-.25-2.34-.62-3.5-.92-1.17-.31-2.35-.56-3.52-.78-1.17-.23-2.33-.44-3.5-.68-2.41.47-4.78.72-7.14.31-1.14-.2-2.27-.42-3.41-.7-1.62-.4-3.25-.9-4.88-1.54-1.29-.51-2.59-1.17-3.9-1.83-2.18-1.09-4.24-3.3-6.29-5.81h-2.15c3.27,3.95,6.39,8.48,9.87,10.27,1.28.65,2.54,1.3,3.79,1.81,1.6.65,3.19,1.18,4.78,1.62,1.12.3,2.23.55,3.35.78,2.32.49,4.67.17,7.07-.4,1.15.14,2.29.24,3.44.37,1.15.13,2.31.28,3.46.52,1.15.23,2.29.55,3.45.83.91-1.12,1.8-1.97,2.69-2.52.69-.43,1.39-.77,2.1-1.07,4.93-2.11,10.62-4.34,15.43-.78,2.32,1.87,4,5.24,5.32,9.18h1.16c-1.68-6.18-4.04-11.72-7.37-14.49Z"/>
      <path class="cls-1" d="M13.68,98.72c-4.89-1.84-9.49-3.51-13.68-5.02v3.21c3.43,1.27,7.17,2.67,11.15,4.19l2.53-2.38Z"/>
      <path class="cls-1" d="M30.86,105.45c-1.07-.51-2.11-.92-3.14-1.33-1.23-.49-2.46-.97-3.67-1.44l-2.6,2.45c2.72,1.08,5.51,2.2,8.35,3.37,1.01.42,2.03.84,3.09,1.35,2.7,2.43,5.18,4.44,7.56,6.23l1.66-1.56c-.74-.53-1.5-1.08-2.27-1.65-2.76-2.05-5.69-4.44-8.98-7.42Z"/>
      <path class="cls-1" d="M129.69,130.87c-4.81-3.56-10.5-1.33-15.43.78-.71.3-1.41.64-2.1,1.07-.89.55-1.78,1.4-2.69,2.52-1.16-.28-2.3-.6-3.45-.83-1.15-.24-2.31-.39-3.46-.52-1.15-.13-2.29-.23-3.44-.37-2.4.57-4.75.89-7.07.4-1.12-.23-2.23-.48-3.35-.78-1.59-.44-3.18-.97-4.78-1.62-1.25-.51-2.51-1.16-3.79-1.81-3.48-1.79-6.6-6.32-9.87-10.27h-14.86c-1.49.85-3.07,1.37-4.92.94l-2.36,2.22c.67.58,1.33,1.08,1.97,1.49,7.33,4.71,11.22-5.29,18.56-2.95,1.01.76,2.05,1.89,3.09,3.13,3.19,3.76,6.21,8.09,9.65,9.88,1.25.65,2.47,1.29,3.7,1.81,1.56.66,3.11,1.22,4.67,1.68,1.09.33,2.19.6,3.28.87,2.28.57,4.62.18,7.01-.5,1.13.05,2.26.05,3.39.08,1.15.03,2.29.09,3.43.26,1.14.16,2.27.43,3.41.73.94-.95,1.86-1.61,2.75-1.94.68-.23,1.37-.39,2.06-.53,4.83-.93,10.6-3.67,15.29-.44,1.17.92,2.14,2.26,2.95,3.88h1.68c-1.32-3.94-3-7.31-5.32-9.18Z"/>
      <path class="cls-24" d="M11.15,101.1c-3.98-1.52-7.72-2.92-11.15-4.19v3.24c2.66,1.01,5.55,2.13,8.62,3.33l2.53-2.38Z"/>
      <path class="cls-24" d="M29.8,108.5c-2.84-1.17-5.63-2.29-8.35-3.37l-.45.42-2.15,2.02c4.11,1.67,8.42,3.45,12.85,5.34,1,.42,2.01.86,3.04,1.37,1.4,1.22,2.74,2.34,4.04,3.37l1.67-1.57c-2.38-1.79-4.86-3.8-7.56-6.23-1.06-.51-2.08-.93-3.09-1.35Z"/>
      <path class="cls-24" d="M130.38,136.17c-4.69-3.23-10.46-.49-15.29.44-.69.14-1.38.3-2.06.53-.89.33-1.81.99-2.75,1.94-1.14-.3-2.27-.57-3.41-.73-1.14-.17-2.28-.23-3.43-.26-1.13-.03-2.26-.03-3.39-.08-2.39.68-4.73,1.07-7.01.5-1.09-.27-2.19-.54-3.28-.87-1.56-.46-3.11-1.02-4.67-1.68-1.23-.52-2.45-1.16-3.7-1.81-3.44-1.79-6.46-6.12-9.65-9.88-1.04-1.24-2.08-2.37-3.09-3.13-7.34-2.34-11.23,7.66-18.56,2.95-.64-.41-1.3-.91-1.97-1.49l-1.39,1.31c.35.41.69.8,1.03,1.17,1.28,1.4,2.5,2.59,3.67,3.46,7.14,5.34,11.73-3.32,18.84-2.04.97.68,1.96,1.72,2.94,2.86,3.05,3.5,5.94,7.47,9.28,9.23.96.51,1.9,1.01,2.85,1.46h47.99c-.81-1.62-1.78-2.96-2.95-3.88Z"/>
      <path class="cls-22" d="M8.62,103.48c-3.07-1.2-5.96-2.32-8.62-3.33v3.27c1.9.75,3.95,1.56,6.1,2.43l2.52-2.37Z"/>
      <path class="cls-22" d="M31.7,112.91c-4.43-1.89-8.74-3.67-12.85-5.34l-2.58,2.43c5.36,2.22,11.15,4.69,17.17,7.34.99.43,1.98.87,2.99,1.38.22.18.43.37.64.54l1.71-1.61c-1.3-1.03-2.64-2.15-4.04-3.37-1.03-.51-2.04-.95-3.04-1.37Z"/>
      <path class="cls-22" d="M73.21,129.36c-.98-1.14-1.97-2.18-2.94-2.86-7.11-1.28-11.7,7.38-18.84,2.04-1.17-.87-2.39-2.06-3.67-3.46-.34-.37-.68-.76-1.03-1.17l-1.61,1.51c.75.54,1.5,1.1,2.24,1.64.58.77,1.14,1.49,1.7,2.17,1.23,1.5,2.41,2.79,3.55,3.76,6.9,5.96,12.07-1.34,19.03-1.12.95.58,1.89,1.54,2.83,2.58,1.71,1.89,3.38,3.91,5.11,5.6h5.76c-.95-.45-1.89-.95-2.85-1.46-3.34-1.76-6.23-5.73-9.28-9.23Z"/>
      <path class="cls-26" d="M6.1,105.85c-2.15-.87-4.2-1.68-6.1-2.43v3.3c1.14.47,2.35.96,3.61,1.47l2.49-2.34Z"/>
      <path class="cls-26" d="M33.44,117.34c-6.02-2.65-11.81-5.12-17.17-7.34l-2.56,2.41c6.34,2.69,13.43,5.78,20.88,9.18l2.29-2.15.19-.18c-.21-.17-.42-.36-.64-.54-1.01-.51-2-.95-2.99-1.38Z"/>
      <path class="cls-26" d="M71.64,131.87c-6.96-.22-12.13,7.08-19.03,1.12-1.14-.97-2.32-2.26-3.55-3.76-.56-.68-1.12-1.4-1.7-2.17-.74-.54-1.49-1.1-2.24-1.64l-1.89,1.78c.88.64,1.76,1.26,2.63,1.88.91.65,1.82,1.33,2.73,2,.55.81,1.09,1.58,1.62,2.3,1.18,1.6,2.31,2.98,3.41,4.05,1.36,1.35,2.68,2.17,3.97,2.62h5.74c3.02-.8,6.08-2.42,9.45-2.83.92.5,1.83,1.36,2.73,2.31.16.17.33.34.49.52h3.58c-1.73-1.69-3.4-3.71-5.11-5.6-.94-1.04-1.88-2-2.83-2.58Z"/>
      <path class="cls-6" d="M3.61,108.19c-1.26-.51-2.47-1-3.61-1.47v3.33c.37.16.75.32,1.13.48l2.48-2.34Z"/>
      <path class="cls-6" d="M11.16,114.81c6.16,2.67,13.21,5.82,20.74,9.31l2.69-2.53c-7.45-3.4-14.54-6.49-20.88-9.18l-2.55,2.4Z"/>
      <path class="cls-6" d="M50.21,133.38c-.53-.72-1.07-1.49-1.62-2.3-.91-.67-1.82-1.35-2.73-2-.87-.62-1.75-1.24-2.63-1.88l-2,1.89c1.95,1.44,3.87,2.73,5.78,4.05.89.62,1.77,1.29,2.66,1.95.52.86,1.04,1.67,1.54,2.43.6.91,1.19,1.76,1.77,2.53h4.61c-1.29-.45-2.61-1.27-3.97-2.62-1.1-1.07-2.23-2.45-3.41-4.05Z"/>
      <path class="cls-6" d="M72.78,137.22c-3.37.41-6.43,2.03-9.45,2.83h12.67c-.16-.18-.33-.35-.49-.52-.9-.95-1.81-1.81-2.73-2.31Z"/>
      <path class="cls-46" d="M0,110.05v1.54l1.13-1.06c-.38-.16-.76-.32-1.13-.48Z"/>
      <path class="cls-46" d="M8.62,117.2c1.14.51,2.36,1.05,3.63,1.62.64.28,1.3.58,1.96.88.97.44,1.98.9,3.04,1.38.69.31,1.38.63,2.09.96,1.4.64,2.85,1.31,4.34,2,1.11.52,2.23,1.04,3.37,1.58.71.33,1.43.67,2.17,1.02l2.68-2.52c-7.53-3.49-14.58-6.64-20.74-9.31l-2.54,2.39Z"/>
      <path class="cls-46" d="M49.67,135.09c-.89-.66-1.77-1.33-2.66-1.95-1.91-1.32-3.83-2.61-5.78-4.05l-2.35,2.21c.53.25,1.06.52,1.59.8,2.54,1.86,5.04,3.42,7.54,5.1.87.59,1.74,1.24,2.61,1.9.18.32.35.64.53.95h1.83c-.58-.77-1.17-1.62-1.77-2.53-.5-.76-1.02-1.57-1.54-2.43Z"/>
      <path class="cls-42" d="M23.68,124.04c-1.49-.69-2.94-1.36-4.34-2-.71-.33-1.4-.65-2.09-.96-1.06-.48-2.07-.94-3.04-1.38-.66-.3-1.32-.6-1.96-.88-1.27-.57-2.49-1.11-3.63-1.62l-2.53,2.38c5.65,2.57,12.67,5.83,20.45,9.59l2.68-2.53c-.74-.35-1.46-.69-2.17-1.02-1.14-.54-2.26-1.06-3.37-1.58Z"/>
      <path class="cls-42" d="M48.01,137.2c-2.5-1.68-5-3.24-7.54-5.1-.53-.28-1.06-.55-1.59-.8l-2.75,2.58c.84.41,1.68.83,2.53,1.26.93.46,1.85.93,2.79,1.42,1.84,1.24,3.67,2.34,5.51,3.49h4.19c-.18-.31-.35-.63-.53-.95-.87-.66-1.74-1.31-2.61-1.9Z"/>
      <path class="cls-23" d="M3.56,121.97c5.25,2.43,12.28,5.76,20.3,9.72l2.68-2.52c-7.78-3.76-14.8-7.02-20.45-9.59l-2.53,2.39Z"/>
      <path class="cls-23" d="M38.66,135.14c-.85-.43-1.69-.85-2.53-1.26l-2.74,2.58c1.99,1.01,4.02,2.05,6.08,3.12.3.16.6.31.9.47h6.59c-1.84-1.15-3.67-2.25-5.51-3.49-.94-.49-1.86-.96-2.79-1.42Z"/>
      <path class="cls-41" d="M3.55,121.97l-2.53,2.38c4.63,2.19,11.72,5.6,20.16,9.86l2.68-2.52c-8.02-3.96-15.05-7.29-20.3-9.72h-.01Z"/>
      <path class="cls-41" d="M33.39,136.46l-2.76,2.59,1.71.9c.06.03.12.06.18.1h7.85c-.3-.16-.6-.31-.9-.47-2.06-1.07-4.09-2.11-6.08-3.12Z"/>
      <path class="cls-45" d="M0,125.31v2.61c3.67,1.63,10.26,4.63,18.5,8.81l2.68-2.52c-8.44-4.26-15.53-7.67-20.16-9.86l-1.02.96Z"/>
      <path class="cls-45" d="M30.63,139.05l-1.06,1h2.95c-.06-.04-.12-.07-.18-.1l-1.71-.9Z"/>
      <path class="cls-10" d="M.03,139.29s-.01-.03-.01-.05c0-.03-.01-.07-.02-.11v.07c.03.12.05.24.08.36-.01-.09-.03-.18-.05-.27Z"/>
      <path class="cls-10" d="M0,132.27c2.67,1.21,8.15,3.77,15.32,7.45l3.18-2.99c-8.24-4.18-14.83-7.18-18.5-8.81v4.35Z"/>
      <path class="cls-30" d="M.13,139.83c.02.07.03.14.04.22h.01c-.03-.16-.06-.33-.1-.49.02.09.04.18.05.27Z"/>
      <path class="cls-30" d="M0,136.65c1.04.49,3.47,1.65,6.94,3.4h8.03l.35-.33c-7.17-3.68-12.65-6.24-15.32-7.45v4.38Z"/>
      <path class="cls-44" d="M0,139.12h0s.02.09.02.12c0,.02.01.03.01.05.02.09.04.18.05.27.04.16.07.33.1.49h6.76c-3.47-1.75-5.9-2.91-6.94-3.4v2.47Z"/>
    </g>
  </g>
  <g id="Layer_7" data-name="Layer 7">
    <g>
      <path class="cls-2" d="M48.06,40.36c.06-.21.1-.43.11-.67,0-.04,0-.08,0-.12,0-.13,0-.25-.02-.37-.02-.17-.06-.33-.11-.49-.06-.18-.14-.34-.24-.49-.12-.18-.27-.35-.46-.49-.26-.21-.6-.37-.98-.49-.65-.21-1.48-.31-2.47-.31h-4.58v5.43h4.52c2.39,0,3.83-.67,4.22-2Z"/>
      <path class="cls-2" d="M39.32,56.2h5.84c1.23,0,2.28-.16,3.1-.49,1.26-.49,2-1.38,2.07-2.66,0-.07.02-.14.02-.21,0-2.04-1.75-3.02-5.12-3.02h-5.9v6.38Z"/>
      <path class="cls-21" d="M28.41,63.48v.57h.37c-.12-.19-.25-.38-.37-.57Z"/>
      <path class="cls-4" d="M28.41,50.39v13.09c.12.19.25.38.37.57h9.17c-2.83-4.5-6.04-9.07-9.54-13.66Z"/>
      <path class="cls-28" d="M28.41,49.32v1.07c3.5,4.58,6.71,9.15,9.54,13.66h1.52c-3.27-4.84-6.99-9.76-11.06-14.72Z"/>
      <path class="cls-39" d="M28.41,48.26v1.06c4.07,4.96,7.79,9.89,11.06,14.72h1.79c-3.78-5.16-8.1-10.45-12.85-15.79Z"/>
      <path class="cls-38" d="M28.41,47.24v1.02c4.75,5.33,9.07,10.63,12.85,15.79h2.09c-4.35-5.47-9.38-11.12-14.94-16.81Z"/>
      <path class="cls-5" d="M28.41,46.25v.99c5.56,5.69,10.6,11.34,14.94,16.81.89,0,1.7-.01,2.45-.03-5-5.74-10.86-11.74-17.39-17.77Z"/>
      <path class="cls-14" d="M28.41,45.62v.63c6.53,6.03,12.39,12.03,17.39,17.77.17,0,.33,0,.49-.01-5.34-5.76-11.4-11.98-17.88-18.39Z"/>
      <path class="cls-40" d="M41.18,56.2h-1.87v-1.71c-3.48-3.16-7.13-6.46-10.91-9.83v.95c6.49,6.42,12.55,12.64,17.88,18.39,1.2-.04,2.24-.09,3.15-.19-2.6-2.42-5.37-4.97-8.26-7.61Z"/>
      <path class="cls-32" d="M44.42,56.2h-3.24c2.89,2.64,5.66,5.19,8.26,7.61,1.44-.16,2.6-.41,3.71-.79-2.76-2.13-5.67-4.42-8.73-6.82Z"/>
      <path class="cls-32" d="M39.32,54.5v-2.31c-3.46-2.71-7.09-5.54-10.91-8.46v.95c3.78,3.37,7.43,6.66,10.91,9.83Z"/>
      <path class="cls-3" d="M48.26,55.71c-.83.33-1.87.49-3.1.49h-.74c3.06,2.41,5.97,4.69,8.73,6.82.97-.33,1.89-.77,2.91-1.34.36-.19.7-.41,1.02-.63-2.81-1.63-5.75-3.41-8.82-5.34Z"/>
      <path class="cls-3" d="M39.32,52.19v-2.19c-3.49-2.26-7.13-4.65-10.91-7.14v.87c3.82,2.92,7.45,5.76,10.91,8.46Z"/>
      <path class="cls-15" d="M50.33,53.06c-.07,1.28-.81,2.16-2.07,2.66,3.07,1.92,6.02,3.71,8.82,5.34,1.46-1,2.55-2.26,3.25-3.68-3.2-1.27-6.54-2.72-10-4.32Z"/>
      <path class="cls-15" d="M39.32,50v-.17h4.24c-4.81-2.37-9.86-4.98-15.15-7.81v.84c3.78,2.49,7.42,4.88,10.91,7.14Z"/>
      <path class="cls-17" d="M60.91,51.04c-10.06-2.84-20.89-6.49-32.5-9.9v.88c5.29,2.82,10.33,5.44,15.15,7.81h1.66c3.38,0,5.12.99,5.12,3.02,0,.07-.01.13-.02.21,3.47,1.6,6.8,3.04,10,4.32.6-1.23.92-2.56.92-3.95,0-.85-.12-1.64-.34-2.37Z"/>
      <path class="cls-18" d="M60.91,51.04c-.82-2.75-3.16-4.71-7.01-5.76.38-.17.75-.35,1.09-.54-4.98-.73-10.06-1.53-15.23-2.39h-.44v-.07c-3.58-.59-7.22-1.22-10.91-1.86v.72c11.61,3.41,22.45,7.06,32.5,9.9Z"/>
      <path class="cls-27" d="M48.06,40.36c-.39,1.32-1.84,2-4.22,2h-4.08c5.17.86,10.24,1.66,15.23,2.39,1.96-1.12,3.25-2.7,3.79-4.5-3.56.06-7.12.12-10.72.12Z"/>
      <path class="cls-27" d="M39.32,42.29v-2.02c-3.57-.1-7.2-.28-10.91-.59v.75c3.69.65,7.32,1.27,10.91,1.86Z"/>
      <path class="cls-11" d="M48.17,39.69c-.01.24-.04.46-.11.67,3.6,0,7.16-.06,10.72-.12.06-.19.11-.39.15-.59-3.58.02-7.16.04-10.76.04Z"/>
      <path class="cls-11" d="M39.32,40.27v-.63c-3.49-.06-7-.16-10.57-.34-.12,0-.23,0-.34,0v.39c3.71.31,7.34.49,10.91.59Z"/>
      <path class="cls-37" d="M48.15,39.2c.02.12.02.24.02.37,0,.04,0,.08,0,.12,3.6,0,7.18-.03,10.76-.04.03-.16.06-.32.09-.48-3.62.02-7.23.04-10.86.04Z"/>
      <path class="cls-37" d="M39.32,39.63v-.5c-3.26-.06-6.55-.16-9.88-.33-.35-.02-.68-.02-1.02-.03v.51c.11,0,.23,0,.34,0,3.56.19,7.08.29,10.57.34Z"/>
      <path class="cls-13" d="M48.04,38.72c.05.16.09.32.11.49,3.63,0,7.24-.02,10.86-.04.02-.16.04-.32.05-.48-3.66.01-7.33.03-11.02.03Z"/>
      <path class="cls-13" d="M39.32,39.13v-.5c-3.04-.06-6.1-.16-9.2-.32-.58-.03-1.15-.04-1.71-.05v.51c.34.01.68.01,1.02.03,3.33.17,6.62.27,9.88.33Z"/>
      <path class="cls-29" d="M47.81,38.23c.1.15.18.31.24.49,3.69,0,7.35-.02,11.02-.03.01-.16.02-.32.02-.48-3.76.01-7.51.03-11.27.02Z"/>
      <path class="cls-29" d="M39.32,38.63v-.51c-2.81-.06-5.64-.16-8.5-.3-.82-.04-1.61-.04-2.4-.06v.49c.56,0,1.13.02,1.71.05,3.1.16,6.16.26,9.2.32Z"/>
      <path class="cls-20" d="M47.35,37.73c.18.14.33.31.46.49,3.77.01,7.52,0,11.27-.02h0c0-.17-.02-.32-.03-.48-3.9.01-7.79.02-11.7,0Z"/>
      <path class="cls-20" d="M39.32,38.13v-.51c-2.59-.06-5.18-.14-7.81-.28-1.05-.06-2.07-.05-3.1-.07v.49c.79.01,1.59.02,2.4.06,2.86.14,5.69.24,8.5.3Z"/>
      <path class="cls-7" d="M46.37,37.24c.39.13.72.29.98.49,3.92.02,7.81.01,11.7,0-.01-.16-.02-.32-.04-.48-4.21.01-8.41.02-12.65-.02Z"/>
      <path class="cls-7" d="M31.51,37.34c2.62.13,5.22.22,7.81.28v-.5c-2.36-.06-4.72-.14-7.1-.26-1.12-.06-2.2-.04-3.31-.07-.17,0-.33-.01-.5-.01v.49c1.04.02,2.05.01,3.1.07Z"/>
      <path class="cls-35" d="M28.91,36.79c1.11.02,2.18.01,3.31.07,2.38.12,4.75.2,7.1.26v-.19h4.58c1,0,1.82.1,2.47.31,4.23.03,8.44.03,12.65.02-.02-.16-.05-.32-.08-.47-8.6,0-17.18.04-26.02-.41-1.12-.06-2.2-.04-3.3-.07-.4,0-.8-.02-1.21-.02v.5c.17,0,.33,0,.5.01Z"/>
      <path class="cls-8" d="M32.92,36.37c8.84.44,17.42.41,26.02.41-.03-.16-.06-.32-.11-.48-8.33,0-16.66.02-25.2-.41-1.12-.06-2.2-.05-3.31-.07-.63-.02-1.27-.03-1.91-.04v.5c.4,0,.8.02,1.21.02,1.1.03,2.18.02,3.3.07Z"/>
      <path class="cls-25" d="M30.32,35.82c1.11.02,2.19.02,3.31.07,8.55.42,16.87.41,25.2.41-.04-.16-.09-.32-.14-.48-8.05,0-16.1,0-24.35-.41-1.12-.06-2.2-.05-3.31-.08-.87-.02-1.75-.04-2.62-.06v.5c.64.01,1.28.03,1.91.04Z"/>
      <path class="cls-47" d="M31.03,35.34c1.11.03,2.19.02,3.31.08,8.25.4,16.3.4,24.35.41-.06-.16-.12-.32-.19-.47-7.76-.01-15.52-.03-23.44-.41-1.12-.06-2.2-.06-3.31-.08-1.11-.03-2.23-.06-3.34-.08v.5c.87.02,1.75.04,2.62.06Z"/>
      <path class="cls-33" d="M31.75,34.86c1.11.02,2.19.02,3.31.08,7.93.38,15.68.4,23.44.41-.07-.16-.14-.32-.21-.48-7.46-.02-14.91-.04-22.5-.41-1.12-.06-2.21-.06-3.31-.08-1.35-.03-2.7-.06-4.06-.09v.49c1.12.03,2.23.06,3.34.08Z"/>
      <path class="cls-9" d="M32.47,34.38c1.11.03,2.19.03,3.31.08,7.6.37,15.05.39,22.5.41-.09-.16-.18-.32-.27-.48-7.13-.02-14.26-.06-21.51-.41-1.12-.05-2.21-.06-3.31-.08-1.59-.04-3.19-.08-4.79-.12v.5c1.36.03,2.71.06,4.06.09Z"/>
      <path class="cls-36" d="M33.19,33.9c1.11.03,2.19.03,3.31.08,7.25.35,14.38.39,21.51.41-.06-.09-.12-.18-.18-.27-6.83-.09-13.69-.27-20.69-.76-1.1-.03-2.21-.06-3.31-.08-1.8-.05-3.62-.09-5.43-.14v.65c1.6.04,3.2.08,4.79.12Z"/>
      <path class="cls-12" d="M33.84,33.28c1.11.03,2.21.06,3.31.08,7,.49,13.86.67,20.69.76-.1-.15-.2-.3-.32-.44-6.48-.1-12.97-.24-19.53-.56-1.11-.06-2.2-.06-3.31-.09-2.08-.06-4.17-.11-6.28-.17v.27c1.81.05,3.63.09,5.43.14Z"/>
      <path class="cls-43" d="M34.69,33.03c1.11.03,2.19.03,3.31.09,6.56.32,13.05.46,19.53.56-.08-.1-.16-.19-.23-.28-6.15-.13-12.32-.31-18.52-.62-1.11-.06-2.19-.06-3.29-.09-2.34-.06-4.71-.13-7.07-.19v.37c2.1.06,4.2.11,6.28.17Z"/>
      <path class="cls-34" d="M35.48,32.68c1.1.03,2.18.04,3.29.09,6.2.31,12.36.49,18.52.62-.09-.11-.18-.21-.28-.32-5.81-.15-11.62-.36-17.46-.65-1.11-.06-2.19-.07-3.28-.1-2.61-.07-5.23-.14-7.87-.22v.38c2.37.06,4.73.13,7.07.19Z"/>
      <path class="cls-31" d="M36.27,32.33c1.09.03,2.18.04,3.28.1,5.84.29,11.65.49,17.46.65-.11-.11-.22-.22-.33-.33-5.44-.16-10.88-.38-16.33-.65-1.1-.06-2.18-.07-3.27-.11-2.87-.08-5.76-.17-8.67-.26v.38c2.63.07,5.26.14,7.87.22Z"/>
      <path class="cls-1" d="M37.07,31.99c1.09.03,2.17.05,3.27.11,5.45.27,10.9.49,16.33.65-.12-.12-.24-.23-.36-.34-5.05-.17-10.11-.39-15.17-.64-1.09-.06-2.18-.08-3.27-.11-3.13-.09-6.29-.19-9.47-.29v.37c2.9.08,5.8.17,8.67.26Z"/>
      <path class="cls-24" d="M37.88,31.65c1.09.03,2.17.06,3.27.11,5.05.25,10.11.47,15.17.64-.14-.12-.3-.23-.44-.35-4.64-.17-9.29-.38-13.93-.62-1.09-.06-2.17-.08-3.26-.12-3.4-.11-6.83-.22-10.28-.32v.37c3.18.09,6.34.19,9.47.29Z"/>
      <path class="cls-22" d="M38.69,31.31c1.08.03,2.17.06,3.26.12,4.64.23,9.29.45,13.93.62-.16-.12-.32-.24-.48-.35-4.22-.17-8.44-.38-12.64-.59-1.09-.06-2.17-.08-3.25-.12-3.66-.12-7.37-.24-11.1-.36v.36c3.45.11,6.88.22,10.28.32Z"/>
      <path class="cls-26" d="M39.5,30.99c1.08.04,2.16.07,3.25.12,4.2.21,8.42.42,12.64.59-.18-.13-.37-.25-.56-.37-3.76-.16-7.52-.36-11.26-.54-1.08-.05-2.16-.08-3.24-.12-3.93-.13-7.91-.27-11.92-.39v.36c3.73.12,7.44.24,11.1.36Z"/>
      <path class="cls-6" d="M40.33,30.66c1.07.04,2.16.07,3.24.12,3.75.19,7.5.39,11.26.54-.2-.12-.4-.24-.61-.34-3.28-.15-6.56-.33-9.82-.49-1.08-.06-2.16-.09-3.23-.13-4.2-.14-8.47-.29-12.76-.43v.33c4.01.13,7.99.26,11.92.39Z"/>
      <path class="cls-46" d="M41.17,30.37c1.07.04,2.15.07,3.23.13,3.26.16,6.54.34,9.82.49-.21-.11-.42-.21-.64-.31-2.78-.13-5.56-.28-8.33-.42-1.07-.06-2.15-.09-3.21-.13-4.49-.16-9.04-.32-13.63-.48v.29c4.29.14,8.56.29,12.76.43Z"/>
      <path class="cls-42" d="M42.04,30.12c1.06.04,2.15.08,3.21.13,2.77.14,5.55.29,8.33.42-.24-.11-.49-.22-.74-.31-2.25-.12-4.5-.24-6.73-.36-1.07-.05-2.15-.09-3.21-.13-4.76-.18-9.61-.35-14.5-.52v.28c4.59.16,9.14.32,13.63.48Z"/>
      <path class="cls-23" d="M42.91,29.87c1.06.04,2.14.08,3.21.13,2.23.12,4.48.24,6.73.36-.31-.12-.61-.23-.93-.33-1.65-.09-3.3-.18-4.94-.26-1.06-.05-2.14-.1-3.2-.14-5.05-.19-10.19-.38-15.38-.56v.28c4.89.17,9.73.34,14.5.52Z"/>
      <path class="cls-41" d="M43.79,29.64c1.06.04,2.14.09,3.2.14,1.64.08,3.28.17,4.94.26-.53-.17-1.08-.32-1.64-.43-.83-.04-1.65-.09-2.47-.12-1.06-.06-2.12-.1-3.18-.14-2.66-.08-5.36-.17-8.06-.26h-8.16c5.19.18,10.33.37,15.38.56Z"/>
      <path class="cls-45" d="M44.63,29.33c1.06.04,2.12.09,3.18.14.82.03,1.64.08,2.47.12-.16-.03-.32-.07-.48-.09-.91-.17-2.09-.28-3.53-.35-.2-.01-.4-.02-.61-.03-.9-.03-1.88-.05-2.97-.05h-6.12c2.71.08,5.4.17,8.06.26Z"/>
    </g>
    <g>
      <path class="cls-15" d="M107.58,112.34c-5.58-.26-11.8-1.54-18.66-3.69,2.78,3.06,7.84,4.65,14.32,4.65,3.07,0,5.78-.37,8.05-1.05-.44.03-.9.05-1.36.06-.61.01-1.73.03-2.36.03Z"/>
      <path class="cls-17" d="M108.66,104.87c-.61-.03-1.23-.09-1.84-.13-.81.84-2.14,1.38-3.65,1.38-2.04,0-3.58-.89-4.34-2.36-3.53-.58-7.18-1.34-10.94-2.24h-1.36v.73c0,2.58.85,4.72,2.38,6.42,6.86,2.14,13.08,3.43,18.66,3.69.62,0,1.74-.02,2.36-.03.46,0,.92-.03,1.36-.06,4.68-1.42,7.55-4.22,8.01-8.13-2.41.45-5.15.71-8.2.73-.69,0-1.73,0-2.44.01Z"/>
      <path class="cls-18" d="M116.94,97.46c-1.5.04-3.06.06-4.69.06-.77,0-1.73-.01-2.52-.02-5.22-.32-10.52-.79-15.87-1.34,1.29.57,2.76,1.11,4.45,1.61,4.19,1.23,9.32,2.41,9.32,5.1,0,.7-.3,1.33-.8,1.85.61.04,1.23.1,1.84.13.71,0,1.75-.01,2.44-.01,3.05-.02,5.79-.28,8.2-.73.04-.37.07-.76.07-1.16,0-2.16-.62-3.91-2.45-5.5Z"/>
      <path class="cls-18" d="M98.3,101.51h-10.4c3.76.9,7.41,1.66,10.94,2.24-.33-.64-.52-1.39-.54-2.24Z"/>
      <path class="cls-27" d="M112.25,97.52c1.63,0,3.19-.01,4.69-.06-1.9-1.67-5.11-3.16-10.32-4.78-3.61-1.14-5.91-1.93-6.94-3.01-4.13-.08-8.2-.08-12.26-.04.51,2.71,2.58,4.82,6.43,6.54,5.36.55,10.65,1.01,15.87,1.34.8,0,1.75.01,2.52.02Z"/>
      <path class="cls-11" d="M99.68,89.66c-.12-.12-.21-.25-.3-.37-4.05-.11-8.05-.15-12.04-.16.02.17.05.33.08.49,4.06-.04,8.13-.04,12.26.04Z"/>
      <path class="cls-37" d="M99.16,88.83c-3.98-.11-7.92-.14-11.84-.15,0,.15.01.31.03.46,3.99,0,7.99.04,12.04.16-.09-.15-.17-.3-.23-.46Z"/>
      <path class="cls-13" d="M107.28,88.71s.02.07.02.1h1.74c-.06,0-.13-.01-.19-.02-.52-.03-1.05-.06-1.57-.08Z"/>
      <path class="cls-13" d="M99.07,88.37c-3.95-.11-7.88-.14-11.78-.16v.04c0,.14.02.28.02.42,3.92,0,7.86.04,11.84.15-.04-.14-.07-.3-.09-.46Z"/>
      <path class="cls-29" d="M111.64,88.52c-.87-.03-1.75-.12-2.63-.17-.62-.04-1.23-.07-1.85-.1.04.14.08.3.12.46.52.03,1.05.06,1.57.08.06,0,.13.01.19.02h9.96c0-.05,0-.1,0-.15-1.57-.03-3.18-.06-4.85-.09-.82-.02-1.65-.02-2.51-.05Z"/>
      <path class="cls-29" d="M99.05,88.17c0-.08.01-.16.02-.25-3.95-.11-7.86-.15-11.76-.16-.01.16-.02.31-.02.46,3.9.01,7.82.05,11.78.16,0-.07-.02-.13-.02-.21Z"/>
      <path class="cls-20" d="M111.8,88.08c-.86-.03-1.75-.12-2.62-.17-.73-.04-1.45-.08-2.18-.12.06.14.11.3.16.46.62.03,1.23.06,1.85.1.87.05,1.76.13,2.63.17.85.03,1.68.03,2.51.05,1.67.03,3.28.06,4.85.09,0-.15-.01-.3-.02-.44-1.52-.03-3.07-.06-4.69-.09-.81-.01-1.64-.02-2.48-.04Z"/>
      <path class="cls-20" d="M99.19,87.47c-3.97-.11-7.91-.15-11.83-.17-.03.16-.04.31-.06.46,3.89.01,7.8.06,11.76.16.02-.16.07-.31.12-.45Z"/>
      <path class="cls-7" d="M111.96,87.64c-.86-.03-1.74-.12-2.61-.17-.86-.06-1.71-.1-2.56-.14.08.14.14.3.21.46.72.04,1.45.08,2.18.12.87.05,1.75.13,2.62.17.85.03,1.67.03,2.48.04,1.62.03,3.17.06,4.69.09,0-.15-.02-.3-.03-.45-1.46-.03-2.96-.06-4.52-.09-.81-.01-1.62-.02-2.46-.04Z"/>
      <path class="cls-7" d="M99.45,87.02c-4.03-.12-8.02-.16-12-.17-.03.15-.06.3-.08.45,3.92.02,7.85.06,11.83.17.07-.16.15-.3.26-.45Z"/>
      <path class="cls-35" d="M112.13,87.2c-.86-.03-1.74-.12-2.61-.17-1.01-.07-2.03-.12-3.04-.18.11.14.21.3.31.47.85.04,1.7.09,2.56.14.86.05,1.75.13,2.61.17.84.03,1.65.03,2.46.04,1.55.03,3.06.06,4.52.09-.02-.14-.03-.3-.06-.44-1.4-.03-2.84-.06-4.32-.09-.8-.01-1.6-.02-2.43-.04Z"/>
      <path class="cls-35" d="M99.86,86.58c-4.13-.12-8.22-.17-12.29-.19-.04.15-.09.3-.12.46,3.98.01,7.97.06,12,.17.12-.16.26-.3.41-.44Z"/>
      <path class="cls-8" d="M112.29,86.76c-.85-.03-1.73-.12-2.59-.17-1.23-.08-2.45-.15-3.67-.21.16.14.31.3.45.47,1.01.06,2.02.11,3.04.18.87.05,1.74.13,2.61.17.83.03,1.64.03,2.43.04,1.49.03,2.92.06,4.32.09-.02-.15-.05-.3-.08-.44-1.33-.03-2.69-.06-4.1-.08-.79-.02-1.59-.03-2.42-.05Z"/>
      <path class="cls-8" d="M100.49,86.16c-4.29-.14-8.53-.19-12.76-.21-.06.15-.11.3-.16.45,4.07.02,8.16.07,12.29.19.18-.16.4-.3.62-.43Z"/>
      <path class="cls-25" d="M112.46,86.32c-.86-.03-1.73-.12-2.59-.17-1.55-.1-3.1-.18-4.63-.26.3.12.56.28.8.48,1.21.06,2.43.13,3.67.21.86.05,1.74.14,2.59.17.82.02,1.63.03,2.42.05,1.41.03,2.77.06,4.1.08-.03-.15-.05-.3-.09-.44-1.25-.03-2.54-.06-3.87-.08-.79-.02-1.58-.03-2.39-.05Z"/>
      <path class="cls-25" d="M101.52,85.74c-4.58-.16-9.1-.22-13.6-.25-.07.15-.13.3-.19.46,4.22.02,8.47.07,12.76.21.31-.17.66-.31,1.04-.42Z"/>
      <path class="cls-47" d="M103.12,85.53c.83,0,1.53.12,2.12.37,1.54.07,3.08.16,4.63.26.86.05,1.73.14,2.59.17.81.02,1.6.03,2.39.05,1.33.03,2.61.06,3.87.08-.03-.15-.08-.3-.13-.45-1.16-.02-2.36-.05-3.59-.08-.77-.02-1.56-.03-2.37-.05-.85-.03-1.72-.11-2.58-.17-7.44-.49-14.69-.63-21.9-.67-.08.15-.16.3-.23.45,4.5.03,9.02.09,13.6.25.5-.13,1.03-.21,1.59-.21Z"/>
      <path class="cls-33" d="M112.63,85.88c.81.02,1.59.03,2.37.05,1.23.03,2.43.06,3.59.08-.04-.15-.09-.3-.14-.44-1.08-.02-2.17-.05-3.3-.08-.77-.02-1.55-.03-2.34-.05-.85-.02-1.72-.11-2.57-.17-7.41-.49-14.64-.63-21.81-.69-.09.15-.18.3-.27.45,7.21.04,14.46.18,21.9.67.86.06,1.73.14,2.58.17Z"/>
      <path class="cls-9" d="M112.81,85.44c.79.02,1.57.03,2.34.05,1.13.03,2.22.06,3.3.08-.06-.15-.11-.3-.17-.45-.97-.02-1.96-.04-2.97-.07-.76-.02-1.53-.03-2.32-.06-.85-.02-1.71-.11-2.56-.17-7.36-.49-14.55-.64-21.68-.7-.11.15-.22.3-.31.45,7.17.05,14.4.19,21.81.69.85.06,1.72.14,2.57.17Z"/>
      <path class="cls-36" d="M112.98,85c.79.02,1.56.04,2.32.06,1.01.02,2.01.04,2.97.07-.08-.19-.18-.39-.28-.57-1.58-.04-3.21-.08-4.9-.12-.85-.02-1.69-.08-2.56-.16-7.29-.26-14.47-.31-21.63-.35-.06.07-.12.15-.17.22,7.14.06,14.32.21,21.68.7.85.06,1.72.14,2.56.17Z"/>
      <path class="cls-12" d="M113.09,84.42c1.69.04,3.32.08,4.9.12-.04-.08-.09-.16-.14-.25-1.57-.04-3.19-.08-4.87-.12-1.16-.09-2.36-.21-3.45-.25-6.83-.24-13.57-.33-20.29-.41-.11.12-.22.25-.32.38,7.16.04,14.34.09,21.63.35.86.08,1.71.14,2.56.16Z"/>
      <path class="cls-43" d="M112.98,84.18c1.68.04,3.31.08,4.87.12-.07-.11-.13-.23-.21-.34-1.54-.04-3.15-.08-4.83-.12-1.48-.16-3.01-.3-4.36-.32-6.36-.08-12.69-.14-19.02-.22-.07.07-.14.15-.21.23,6.72.08,13.46.17,20.29.41,1.1.04,2.29.16,3.45.25Z"/>
      <path class="cls-34" d="M112.81,83.84c1.68.04,3.29.08,4.83.12-.07-.12-.16-.23-.24-.34-1.52-.04-3.1-.08-4.76-.12-1.8-.23-3.65-.41-5.25-.4-5.9.03-11.8.01-17.7-.06-.08.08-.17.17-.25.26,6.33.08,12.66.14,19.02.22,1.35.02,2.87.16,4.36.32Z"/>
      <path class="cls-31" d="M107.39,83.1c1.6,0,3.45.17,5.25.4,1.65.04,3.24.08,4.76.12-.08-.11-.17-.23-.26-.33-1.48-.04-3.04-.08-4.66-.12-2.12-.3-4.31-.52-6.16-.48-5.42.1-10.86.11-16.32.06-.11.09-.21.19-.31.3,5.9.07,11.8.09,17.7.06Z"/>
      <path class="cls-1" d="M106.32,82.69c1.85-.04,4.04.18,6.16.48,1.63.04,3.18.08,4.66.12-.09-.12-.2-.22-.3-.33-1.43-.04-2.94-.08-4.52-.12-2.45-.37-4.97-.63-7.07-.56-4.94.16-9.91.2-14.89.16-.12.1-.25.21-.36.31,5.46.06,10.9.04,16.32-.06Z"/>
      <path class="cls-24" d="M105.25,82.27c2.1-.07,4.62.19,7.07.56,1.58.04,3.09.08,4.52.12-.11-.11-.21-.22-.32-.33-1.38-.04-2.83-.08-4.36-.12-2.76-.44-5.63-.75-7.98-.64-4.45.19-8.93.26-13.43.24-.14.11-.27.22-.4.33,4.99.04,9.95,0,14.89-.16Z"/>
      <path class="cls-22" d="M112.17,82.5c1.53.04,2.98.08,4.36.12-.12-.11-.23-.22-.35-.33-1.3-.04-2.69-.08-4.16-.12-3.08-.51-6.29-.86-8.88-.72-3.95.22-7.93.31-11.92.31-.15.11-.3.22-.45.33,4.5.02,8.98-.04,13.43-.24,2.35-.11,5.21.2,7.98.64Z"/>
      <path class="cls-26" d="M112.01,82.17c1.47.04,2.86.08,4.16.12-.13-.11-.27-.22-.4-.32-1.21-.04-2.52-.08-3.91-.12-3.4-.58-6.96-1-9.79-.81-3.43.23-6.88.35-10.35.38-.17.11-.34.22-.51.34,3.99,0,7.97-.09,11.92-.31,2.59-.14,5.8.21,8.88.72Z"/>
      <path class="cls-6" d="M111.86,81.86c1.39.04,2.7.08,3.91.12-.13-.1-.26-.2-.4-.3-1.13-.03-2.35-.07-3.65-.12-3.72-.65-7.64-1.13-10.7-.89-2.9.23-5.82.37-8.75.42-.19.11-.38.22-.56.34,3.46-.03,6.92-.14,10.35-.38,2.83-.19,6.39.22,9.79.81Z"/>
      <path class="cls-46" d="M111.72,81.55c1.31.04,2.53.08,3.65.12-.12-.09-.25-.17-.38-.26-1.03-.04-2.17-.08-3.39-.12-4.04-.72-8.32-1.28-11.61-.97-2.37.22-4.75.36-7.14.44-.19.11-.39.21-.58.32,2.92-.06,5.84-.19,8.75-.42,3.06-.24,6.98.24,10.7.89Z"/>
      <path class="cls-42" d="M111.6,81.3c1.23.04,2.36.08,3.39.12-.13-.09-.27-.17-.41-.26-.92-.03-1.96-.07-3.1-.12-4.36-.8-9-1.43-12.53-1.06-1.79.19-3.59.33-5.4.43-.24.11-.47.23-.71.35,2.39-.08,4.77-.22,7.14-.44,3.3-.31,7.58.25,11.61.97Z"/>
      <path class="cls-23" d="M111.49,81.04c1.14.04,2.18.08,3.1.12-.13-.08-.26-.16-.4-.24-.79-.03-1.74-.07-2.81-.12-4.68-.87-9.7-1.6-13.44-1.15-1.15.14-2.3.26-3.45.35-.32.13-.62.26-.92.41,1.8-.09,3.6-.23,5.4-.43,3.53-.37,8.17.26,12.53,1.06Z"/>
      <path class="cls-41" d="M111.38,80.8c1.08.04,2.02.09,2.81.12-.19-.11-.39-.21-.59-.31-.77-.03-1.57-.07-2.36-.12-5-.94-10.29-1.6-14.36-1.23-.18.03-.35.06-.53.09-.64.19-1.26.41-1.86.66,1.15-.09,2.3-.21,3.45-.35,3.74-.45,8.76.28,13.44,1.15Z"/>
      <path class="cls-45" d="M111.24,80.49c.8.06,1.59.09,2.36.12-.17-.08-.33-.17-.51-.25-.58-.02-1.16-.04-1.77-.08-4.68-.84-9.74-1.66-13.62-1.29-.46.11-.91.23-1.36.36.18-.03.35-.06.53-.09,4.07-.37,9.36.29,14.36,1.23Z"/>
      <path class="cls-10" d="M111.33,80.28c.6.04,1.18.06,1.77.08-.25-.11-.49-.22-.75-.33-.32-.02-.63-.02-.96-.04-4-.68-8.29-1.39-11.89-1.35-.61.09-1.2.21-1.79.35,3.88-.37,8.93.45,13.62,1.29Z"/>
      <path class="cls-30" d="M112.35,80.03c-.23-.09-.47-.19-.72-.29-.04-.02-.09-.03-.13-.04h-.04c-3.3-.52-6.79-1.12-9.94-1.29-.68.05-1.35.13-2.01.23,3.6-.04,7.89.67,11.89,1.35.32.02.63.03.96.04Z"/>
      <path class="cls-44" d="M111.49,79.7c-.58-.21-1.17-.4-1.78-.57-1.87-.29-3.78-.58-5.63-.79-.22,0-.43-.01-.65-.01-.65,0-1.29.03-1.92.07,3.15.17,6.65.77,9.94,1.29h.04Z"/>
      <path class="cls-19" d="M104.08,78.35c1.85.21,3.76.5,5.63.79-1.73-.47-3.6-.74-5.63-.79Z"/>
    </g>
  </g>
</svg>