<?xml version="1.0" encoding="UTF-8"?>
<svg id="Layer_2" data-name="Layer 2" xmlns="http://www.w3.org/2000/svg" viewBox="0 0 288 272.13">
  <defs>
    <style>
      .cls-1 {
        fill: #c77189;
      }

      .cls-2 {
        fill: none;
      }

      .cls-3 {
        fill: #385756;
      }

      .cls-4 {
        fill: #271e24;
      }

      .cls-5 {
        fill: #2d3838;
      }

      .cls-6 {
        fill: #c98b6d;
      }

      .cls-7 {
        fill: #7a758c;
      }

      .cls-8 {
        fill: #8d6f91;
      }

      .cls-9 {
        fill: #b15d98;
      }

      .cls-10 {
        fill: #c7ae3e;
      }

      .cls-11 {
        fill: #3a827e;
      }

      .cls-12 {
        fill: #c34f9d;
      }

      .cls-13 {
        fill: #597d84;
      }

      .cls-14 {
        fill: #303f3f;
      }

      .cls-15 {
        fill: #3a5f5e;
      }

      .cls-16 {
        fill: #d46a6a;
      }

      .cls-17 {
        fill: #3c6866;
      }

      .cls-18 {
        fill: #3c706e;
      }

      .cls-19 {
        fill: #b1b362;
      }

      .cls-20 {
        fill: #70788a;
      }

      .cls-21 {
        fill: #32242d;
      }

      .cls-22 {
        fill: #c87f7c;
      }

      .cls-23 {
        fill: #cc9e4e;
      }

      .cls-24 {
        fill: #c77883;
      }

      .cls-25 {
        fill: #966b93;
      }

      .cls-26 {
        fill: #c88575;
      }

      .cls-27 {
        fill: #3c7976;
      }

      .cls-28 {
        fill: #202022;
      }

      .cls-29 {
        fill: #657b87;
      }

      .cls-30 {
        fill: #c0af4a;
      }

      .cls-31 {
        fill: #c66a8e;
      }

      .cls-32 {
        fill: #364f4e;
      }

      .cls-33 {
        fill: #a86296;
      }

      .cls-34 {
        fill: #c56193;
      }

      .cls-35 {
        fill: #84728f;
      }

      .cls-36 {
        fill: #ba569a;
      }

      .cls-37 {
        fill: #4b8081;
      }

      .cls-38 {
        fill: #293031;
      }

      .cls-39 {
        fill: #25282a;
      }

      .cls-40 {
        fill: #334747;
      }

      .cls-41 {
        fill: #cda540;
      }

      .cls-42 {
        fill: #cb985a;
      }

      .cls-43 {
        fill: #c45997;
      }

      .cls-44 {
        fill: #b8b156;
      }

      .cls-45 {
        fill: #ceac31;
      }

      .cls-46 {
        fill: #ca9265;
      }

      .cls-47 {
        fill: #9f6795;
      }
    </style>
  </defs>
  <g id="Layer_7" data-name="Layer 7">
    <g>
      <path class="cls-16" d="M95.13,191.48s-.04.02-.06.03h0s.04-.02.06-.03Z"/>
      <path class="cls-16" d="M.16,271.17c-.06-.23-.1-.47-.16-.7v1.65h.33c-.02-.16-.04-.29-.08-.43-.02-.17-.06-.35-.1-.52Z"/>
      <path class="cls-16" d="M95.42,191.93c.09.1.17.2.25.3.54-.58,1.07-1.2,1.57-1.81,0,0,0,0,0,0-.51.61-1.03,1.21-1.57,1.8-.08-.1-.17-.19-.25-.29Z"/>
      <path class="cls-16" d="M211.83,61.93c1.48.68,2.97,1.46,4.49,2.31-1.52-.87-3.01-1.65-4.49-2.31Z"/>
      <path class="cls-15" d="M29.88,3.48c11.54-.37,23.45-.74,35.85-.93,3.54-.06,7.11-.08,10.67-.17,1.88-.72,3.69-1.52,5.46-2.37H7.85c4.29,1.05,8.74,2.27,13.31,3.63,2.99.06,5.85-.06,8.72-.16Z"/>
      <path class="cls-17" d="M59.24,33.09c12.34.72,24.89,1.48,37.7,2.41,3.65.25,7.33.54,10.98.78,5.05-1.71,9.54-4.04,14.03-6.43.52-.33,1.03-.66,1.55-.99,2.25-1.46,4.35-3.13,6.16-5.29,2.18-28.19,39.48-21,70.42,5.01L230.47,0H81.86c-1.77.85-3.58,1.65-5.46,2.37-3.56.1-7.13.12-10.67.17-12.4.19-24.31.56-35.85.93-2.88.1-5.73.21-8.72.16C16.59,2.27,12.14,1.05,7.85,0H0v18.77c12.69.84,30.51,5.85,49.88,13.64,3.24.35,6.3.51,9.37.68Z"/>
      <path class="cls-17" d="M258.8,0l-42.55,40.05-.68.64c1.48,1.01,2.99,2.1,4.53,3.24,3.07.76,6.02,1.28,8.84,1.52,13.04,1.15,25.65,2.2,37.68,3.24l21.39-20.13V0h-29.2Z"/>
      <path class="cls-18" d="M20.71,38.92c.76.14,1.52.29,2.31.45,3.32.7,6.9,1.61,10.67,2.76.62.17,1.24.37,1.88.58.68.21,1.38.43,2.1.68.74.23,1.48.49,2.25.76.27.08.56.17.87.29v-4.39h120.47c1.3-1.13,2.78-2.02,4.41-2.68.45-.19.89-.37,1.36-.52.02,0,.04,0,.08-.02.39-.12.78-.23,1.19-.35.99-.23,2.04-.43,3.13-.54.41-.04.82-.08,1.22-.12.52-.02,1.09-.04,1.65-.04s1.13.02,1.71.06c.52.02,1.07.08,1.61.14.27.02.54.04.84.1.47.04.95.12,1.44.19.08.02.17.04.25.04.43.08.85.16,1.28.25,1.32.27,2.68.6,4.06,1.01.51.14,1.01.29,1.53.47.02.02.06.02.08.04.54.17,1.11.35,1.67.56.14.06.29.1.45.16l10.84-10.2c-30.93-26.02-68.24-33.21-70.42-5.01-1.81,2.16-3.91,3.83-6.16,5.29-.52.33-1.03.66-1.55.99-4.49,2.39-8.98,4.72-14.03,6.43-3.65-.23-7.33-.52-10.98-.78-12.8-.93-25.36-1.69-37.7-2.41-3.07-.17-6.12-.33-9.37-.68C30.51,24.62,12.69,19.61,0,18.77v16.85c5.17.17,11.27,1.17,18.05,2.86.87.14,1.75.27,2.66.45Z"/>
      <path class="cls-18" d="M220.09,43.93c-1.54-1.15-3.05-2.23-4.53-3.24l-7.91,7.44c10.59,6.1,21.59,15.1,31.52,26.39l8.02-7.56,19.41-18.26c-12.03-1.05-24.64-2.1-37.68-3.24-2.82-.23-5.77-.76-8.84-1.52Z"/>
      <path class="cls-18" d="M256.81,87.98c10.75,2.12,21.16,4.16,31.19,6.12v-38.86l-34.12,32.08c.99.25,1.96.47,2.93.66Z"/>
      <path class="cls-27" d="M253.88,87.32l-1.69,1.59c.19.19.39.41.56.6,2.33,2.12,4.68,4.43,7.03,6.94,3.28,1.38,6.45,2.29,9.56,3.11,6.33,1.55,12.55,3.11,18.65,4.62v-10.08c-10.03-1.96-20.44-4-31.19-6.12-.97-.19-1.94-.41-2.93-.66Z"/>
      <path class="cls-27" d="M37.68,43.39c-.72-.25-1.42-.47-2.1-.68-.64-.21-1.26-.41-1.88-.58-3.77-1.15-7.34-2.06-10.67-2.76-.8-.16-1.55-.31-2.31-.45-.91-.17-1.79-.31-2.66-.45.89.23,1.81.47,2.74.72.78.21,1.55.43,2.35.66.54.16,1.07.31,1.63.47.1.04.21.06.31.1.14.04.29.1.45.14.31.1.62.19.93.29.97.29,1.96.6,2.93.93.82.25,1.63.52,2.47.82.91.31,1.85.64,2.8.97.93.33,1.88.68,2.84,1.03,1.09.41,2.2.82,3.3,1.24v-1.4c-.31-.12-.6-.21-.87-.29-.78-.27-1.52-.52-2.25-.76Z"/>
      <path class="cls-27" d="M187.12,38.06s-.06-.02-.08-.04c-.52-.17-1.03-.33-1.53-.47-1.38-.41-2.74-.74-4.06-1.01-.43-.1-.85-.17-1.28-.25-.08,0-.17-.02-.25-.04-.49-.08-.97-.16-1.44-.19-.29-.06-.56-.08-.84-.1-.54-.06-1.09-.12-1.61-.14-.58-.04-1.15-.06-1.71-.06s-1.13.02-1.65.04c-.41.04-.82.08-1.22.12-1.09.12-2.14.31-3.13.54-.41.12-.8.23-1.19.35-.04.02-.06.02-.08.02-.47.16-.91.33-1.36.52-1.63.66-3.11,1.55-4.41,2.68h11.33c.43-.14.87-.25,1.32-.35.14-.04.29-.08.45-.1.45-.1.93-.17,1.4-.25.31-.04.62-.08.95-.12.37-.04.72-.08,1.09-.1.62-.04,1.24-.06,1.88-.06.58,0,1.19.02,1.79.06.1,0,.19,0,.29.02.19,0,.39.02.58.04.43.02.85.08,1.28.12.04,0,.06,0,.1.02.47.06.93.12,1.4.19.23.04.49.08.72.12.68.12,1.36.23,2.04.41l1.34-1.26c-.16-.06-.31-.1-.45-.16-.56-.21-1.13-.39-1.67-.56Z"/>
      <path class="cls-11" d="M4.14,44.63c.47.04.95.08,1.44.14.85.08,1.73.17,2.64.31,9.09,1.2,20.32,4.35,32.59,9.15v-8.39c-1.11-.43-2.22-.84-3.3-1.24-.95-.35-1.9-.7-2.84-1.03-.95-.33-1.88-.66-2.8-.97-.84-.29-1.65-.56-2.47-.82-.97-.33-1.96-.64-2.93-.93-.31-.1-.62-.19-.93-.29-.16-.04-.31-.1-.45-.14-.1-.04-.21-.06-.31-.1-.56-.16-1.09-.31-1.63-.47-.8-.23-1.57-.45-2.35-.66-.93-.25-1.85-.49-2.74-.72-6.78-1.69-12.88-2.68-18.05-2.86v8.88c.78-.02,1.59,0,2.45.04.56.04,1.11.06,1.69.1Z"/>
      <path class="cls-11" d="M185.13,39.52c-.47-.08-.93-.14-1.4-.19-.04-.02-.06-.02-.1-.02-.43-.04-.85-.1-1.28-.12-.19-.02-.39-.04-.58-.04-.1-.02-.19-.02-.29-.02-.6-.04-1.2-.06-1.79-.06-.64,0-1.26.02-1.88.06-.37.02-.72.06-1.09.1-.33.04-.64.08-.95.12-.47.08-.95.16-1.4.25-.16.02-.31.06-.45.1-.45.1-.89.21-1.32.35h15.29c-.68-.17-1.36-.29-2.04-.41-.23-.04-.49-.08-.72-.12Z"/>
      <path class="cls-11" d="M207.65,48.13l-8.3,7.81c1.32.54,2.66,1.13,4,1.77,2.08.99,4.2,2.1,6.3,3.24.72.29,1.46.62,2.18.97,1.48.66,2.97,1.44,4.49,2.31.76.43,1.53.87,2.29,1.36.1.06.19.12.29.17.66.41,1.34.84,2.02,1.3.78.51,1.55,1.05,2.33,1.59.68.49,1.36.99,2.04,1.5.21.16.43.33.64.49.66.51,1.34,1.03,2,1.57.74.6,1.48,1.2,2.22,1.85.47.39.91.78,1.38,1.19,1.15,1.03,2.31,2.1,3.46,3.19l4.18-3.93c-9.93-11.29-20.93-20.29-31.52-26.39Z"/>
      <path class="cls-11" d="M259.79,96.45c-2.35-2.51-4.7-4.82-7.03-6.94-.17-.19-.37-.41-.56-.6l-4,3.77c2.02,1.96,4.04,3.98,6.08,6.26,2.43,2.31,4.88,4.86,7.33,7.64,1.77.95,3.5,1.79,5.21,2.6,1.61.51,3.23.99,4.82,1.42,5.56,1.5,11.02,2.97,16.38,4.43v-10.84c-6.1-1.52-12.32-3.07-18.65-4.62-3.11-.82-6.28-1.73-9.56-3.11Z"/>
      <path class="cls-37" d="M40.8,63.93v-9.7c-12.26-4.8-23.49-7.95-32.59-9.15-.91-.14-1.79-.23-2.64-.31-.49-.06-.97-.1-1.44-.14-.58-.04-1.13-.06-1.69-.1-.85-.04-1.67-.06-2.45-.04v10.73c9.21-1.15,23.92,2.08,40.8,8.7Z"/>
      <path class="cls-37" d="M230.16,74.07c-.74-.64-1.48-1.24-2.22-1.85-.66-.54-1.34-1.07-2-1.57-.21-.16-.43-.33-.64-.49-.68-.51-1.36-1.01-2.04-1.5-.78-.54-1.55-1.09-2.33-1.59-.68-.47-1.36-.89-2.02-1.3-.1-.06-.19-.12-.29-.17-.76-.49-1.53-.93-2.29-1.36-1.52-.85-3.01-1.63-4.49-2.31-.72-.35-1.46-.68-2.18-.97-2.1-1.15-4.22-2.25-6.3-3.24-1.34-.64-2.68-1.22-4-1.77l-11.27,10.59c1.2.17,2.43.39,3.67.66,2.14.6,4.31,1.32,6.51,2.16,2.2.82,4.39,1.75,6.61,2.78,2.16,1.01,4.33,2.1,6.45,3.21,5.34,1.07,11.46,4.02,17.8,8.61l5.87-5.5c-1.15-1.09-2.31-2.16-3.46-3.19-.47-.41-.91-.8-1.38-1.19Z"/>
      <path class="cls-37" d="M266.8,109.18c-1.71-.82-3.44-1.65-5.21-2.6-2.45-2.78-4.9-5.32-7.33-7.64-2.04-2.27-4.06-4.29-6.08-6.26l-.99.93v7.5c.23.27.47.56.7.84,2.76,2.66,5.48,5.38,8.22,8.53,2.53,2.53,5.05,5.3,7.54,8.36,1.81,1.19,3.58,2.31,5.32,3.42,1.69.54,3.38,1.05,5.05,1.52,4.72,1.34,9.38,2.66,13.97,3.98v-12.73c-5.36-1.46-10.82-2.93-16.38-4.43-1.59-.43-3.21-.91-4.82-1.42Z"/>
      <path class="cls-13" d="M40.8,74.65v-10.73c-16.89-6.63-31.59-9.85-40.8-8.7v14.46c1.22-1.22,2.82-2.12,4.86-2.64,8.32-.97,21.16,1.87,35.95,7.62Z"/>
      <path class="cls-13" d="M204.88,72.13c-2.22-1.03-4.41-1.96-6.61-2.78-2.2-.84-4.37-1.55-6.51-2.16-1.24-.27-2.47-.49-3.67-.66l-17.1,16.09c6.8-1.15,14.32-1.03,22.38.51,2.2.64,4.41,1.4,6.66,2.25,2.23.85,4.49,1.81,6.74,2.86,2.2,1.01,4.39,2.1,6.55,3.17,2.12-.14,4.45.17,6.94.89l8.86-8.36c-6.33-4.59-12.45-7.54-17.8-8.61-2.12-1.11-4.29-2.2-6.45-3.21Z"/>
      <path class="cls-13" d="M268.98,122.26c-1.75-1.11-3.52-2.23-5.32-3.42-2.49-3.05-5.01-5.83-7.54-8.36-2.74-3.15-5.46-5.87-8.22-8.53-.23-.27-.47-.56-.7-.84v10.75c.8.89,1.59,1.83,2.39,2.78,2.84,2.78,5.63,5.67,8.43,9.04,2.58,2.74,5.15,5.77,7.66,9.07,1.83,1.46,3.61,2.86,5.36,4.26,1.75.6,3.5,1.17,5.21,1.67,3.96,1.19,7.89,2.37,11.76,3.54v-14.46c-4.59-1.32-9.25-2.64-13.97-3.98-1.67-.47-3.36-.97-5.05-1.52Z"/>
      <path class="cls-29" d="M3.46,92.66c-.33-4.55.82-7.73,3.03-9.99,1.44-1.44,3.3-2.49,5.77-2.99,7.27-.14,17.23,2.23,28.54,6.55v-11.58c-14.79-5.75-27.63-8.59-35.95-7.62-2.04.52-3.63,1.42-4.86,2.64v22.97c1.26.12,2.43.14,3.46.02Z"/>
      <path class="cls-29" d="M213.33,91.4c-2.16-1.07-4.35-2.16-6.55-3.17-2.25-1.05-4.51-2-6.74-2.86-2.25-.85-4.47-1.61-6.66-2.25-8.06-1.53-15.58-1.65-22.38-.51l-19.08,17.95c3.63.16,7.77.89,11.74.21,1.87-.33,3.75-.62,5.65-.89,7.97-1.11,16.57-1.15,25.76.39,2.23.7,4.51,1.5,6.78,2.37,1.69.66,3.4,1.38,5.11,2.16l13.31-12.51c-2.49-.72-4.82-1.03-6.94-.89Z"/>
      <path class="cls-29" d="M271.04,137c-1.75-1.4-3.54-2.8-5.36-4.26-2.51-3.3-5.07-6.33-7.66-9.07-2.8-3.36-5.6-6.26-8.43-9.04-.8-.95-1.59-1.88-2.39-2.78v12.12c1.34,1.42,2.66,2.91,3.98,4.51,2.9,2.88,5.75,5.97,8.57,9.54,2.6,2.95,5.17,6.24,7.66,9.83,1.81,1.71,3.58,3.4,5.3,5.11,1.81.62,3.58,1.22,5.34,1.79,3.36,1.07,6.66,2.12,9.95,3.17v-15.72c-3.87-1.17-7.79-2.35-11.76-3.54-1.71-.51-3.46-1.07-5.21-1.67Z"/>
      <path class="cls-20" d="M9.58,104.36c.25-4.04,1.81-6.8,4.24-8.72,1.55-1.22,3.44-2.12,5.89-2.47,5.87.47,13.1,2.33,21.1,5.34v-12.28c-11.31-4.31-21.28-6.68-28.54-6.55-2.47.51-4.33,1.55-5.77,2.99-2.22,2.25-3.36,5.44-3.03,9.99-1.03.12-2.2.1-3.46-.02v10.24c.29.08.58.16.87.23,3.38.93,6.31,1.4,8.7,1.24Z"/>
      <path class="cls-20" d="M195.06,100.28c-9.19-1.54-17.8-1.5-25.76-.39-1.9.27-3.79.56-5.65.89-3.96.68-8.1-.06-11.74-.21l-18.26,17.18c.99-.35,2-.68,3.03-.95,2.37-.64,4.78-1.24,7.21-1.96,5.3-.89,12.98,3.54,20.05,3.05,2.02-.14,4.06-.27,6.08-.41,7.38-.52,15.08-.58,23.12.33l13.82-13c-1.71-.78-3.42-1.5-5.11-2.16-2.27-.87-4.55-1.67-6.78-2.37Z"/>
      <path class="cls-20" d="M272.71,152.98c-1.73-1.71-3.5-3.4-5.3-5.11-2.49-3.59-5.05-6.88-7.66-9.83-2.82-3.58-5.67-6.66-8.57-9.54-1.32-1.59-2.64-3.09-3.98-4.51v13.19c1.77,1.77,3.54,3.73,5.27,5.83,2.91,2.99,5.79,6.26,8.61,10.07,2.58,3.17,5.11,6.7,7.54,10.57,1.77,1.96,3.5,3.94,5.17,5.97,1.83.66,3.65,1.3,5.46,1.9,2.95.99,5.87,1.98,8.76,2.93v-16.52c-3.28-1.05-6.59-2.1-9.95-3.17-1.77-.56-3.54-1.17-5.34-1.79Z"/>
      <path class="cls-7" d="M15.33,116.33c.82-3.46,2.74-5.77,5.38-7.36,1.65-1.01,3.58-1.71,5.98-1.9,4.26.76,9,2.14,14.11,4.02v-12.57c-8.01-3.01-15.23-4.88-21.1-5.34-2.45.35-4.33,1.24-5.89,2.47-2.43,1.92-3.98,4.68-4.24,8.72-2.39.16-5.32-.31-8.7-1.24-.29-.08-.58-.16-.87-.23v9.81c2.47.87,4.84,1.61,7.13,2.27,3.13.91,5.89,1.44,8.2,1.36Z"/>
      <path class="cls-7" d="M170.02,117.48c-2.02.14-4.06.27-6.08.41-7.07.49-14.75-3.94-20.05-3.05-2.43.72-4.84,1.32-7.21,1.96-1.03.27-2.04.6-3.03.95l-18.67,17.58c.08-.02.14-.02.21-.02,2.27-.14,4.55-.27,6.88-.35,4.02-2.04,7.99-4.22,12.65-5.21,2.27-.49,4.64-.87,7.07-1.28,6.02.25,14.38,6.61,22.05,6.78,2.14.04,4.29.08,6.43.06,1.42,0,2.84-.02,4.27-.02l18.6-17.49c-8.04-.91-15.74-.85-23.12-.33Z"/>
      <path class="cls-7" d="M273.78,169.61c-1.67-2.02-3.4-4-5.17-5.97-2.43-3.87-4.95-7.4-7.54-10.57-2.82-3.81-5.69-7.07-8.61-10.07-1.73-2.1-3.5-4.06-5.27-5.83v13.87c2.04,1.92,4.06,4.14,6.06,6.59,2.91,3.11,5.79,6.57,8.57,10.59,2.55,3.38,5.01,7.17,7.34,11.31,1.71,2.22,3.36,4.49,4.95,6.8,1.85.72,3.69,1.4,5.54,2.04,2.8.99,5.58,1.98,8.34,2.95v-16.89c-2.9-.95-5.81-1.94-8.76-2.93-1.81-.6-3.63-1.24-5.46-1.9Z"/>
      <path class="cls-35" d="M20.36,128.14c1.32-2.88,3.59-4.7,6.43-5.95,1.73-.76,3.69-1.28,6.06-1.3,2.53.72,5.19,1.61,7.95,2.64v-12.45c-5.11-1.88-9.85-3.26-14.11-4.02-2.41.19-4.33.89-5.98,1.9-2.64,1.59-4.57,3.91-5.38,7.36-2.31.08-5.07-.45-8.2-1.36-2.29-.66-4.66-1.4-7.13-2.27v9.44c4.51,1.81,8.69,3.28,12.63,4.51,2.9.89,5.5,1.46,7.73,1.5Z"/>
      <path class="cls-35" d="M163.84,135.26c-7.68-.17-16.03-6.53-22.05-6.78-2.43.41-4.8.8-7.07,1.28-4.66.99-8.63,3.17-12.65,5.21-2.33.08-4.61.21-6.88.35-.08,0-.14,0-.21.02l-15.19,14.28c5.17,0,9.79-.8,14.51-1.5,2.02-.29,4.06-.6,6.14-.82,3.73-2.14,7.46-4.24,11.99-4.94,2.2-.35,4.51-.52,6.96-.6,5.27,1.15,11.93,6.57,18.52,9.21l16.65-15.68c-1.44,0-2.86.02-4.27.02-2.14.02-4.29-.02-6.43-.06Z"/>
      <path class="cls-35" d="M274.13,186.34c-1.59-2.31-3.24-4.59-4.95-6.8-2.33-4.14-4.8-7.93-7.34-11.31-2.78-4.02-5.65-7.48-8.57-10.59-2-2.45-4.02-4.66-6.06-6.59v14.01c2.12,1.96,4.22,4.26,6.3,6.82,2.91,3.21,5.77,6.84,8.49,11.08,2.49,3.59,4.88,7.62,7.07,12.03,1.63,2.49,3.19,5.03,4.66,7.66,1.88.74,3.75,1.46,5.6,2.14,2.93,1.09,5.83,2.18,8.69,3.24v-16.69c-2.76-.97-5.54-1.96-8.34-2.95-1.85-.64-3.69-1.32-5.54-2.04Z"/>
      <path class="cls-8" d="M24.42,139.26c1.79-2.23,4.35-3.58,7.34-4.43,1.81-.52,3.79-.85,6.14-.72.95.37,1.92.76,2.9,1.19v-11.76c-2.76-1.03-5.42-1.92-7.95-2.64-2.37.02-4.33.54-6.06,1.3-2.84,1.24-5.11,3.07-6.43,5.95-2.23-.04-4.84-.6-7.73-1.5-3.94-1.22-8.12-2.7-12.63-4.51v8.9c6.22,2.76,11.81,4.92,17.12,6.63,2.68.85,5.13,1.44,7.31,1.59Z"/>
      <path class="cls-8" d="M132.42,142.37c-4.53.7-8.26,2.8-11.99,4.94-2.08.21-4.12.52-6.14.82-4.72.7-9.35,1.5-14.51,1.5h-.02l-12.32,11.6c.74.25,1.48.47,2.2.64,1.05.27,2.04.47,3.03.6,7.91,1.19,13.93-.72,20.13-2.39,1.81-.49,3.59-.95,5.46-1.34,3.44-2.23,6.98-4.26,11.37-4.66,2.14-.19,4.41-.16,6.84.12,3.26,1.2,6.98,3.94,10.84,6.74l10.59-9.95c-6.59-2.64-13.25-8.06-18.52-9.21-2.45.08-4.76.25-6.96.6Z"/>
      <path class="cls-8" d="M273.72,202.64c-1.48-2.62-3.03-5.17-4.66-7.66-2.2-4.41-4.59-8.43-7.07-12.03-2.72-4.24-5.58-7.87-8.49-11.08-2.08-2.56-4.18-4.86-6.3-6.82v13.56c2,1.88,4,4.06,5.97,6.51,2.9,3.3,5.73,7.11,8.39,11.56,2.43,3.81,4.72,8.06,6.78,12.73,1.53,2.72,2.97,5.56,4.31,8.47,1.9.78,3.79,1.52,5.67,2.25,3.26,1.26,6.49,2.51,9.68,3.75v-15.87c-2.86-1.07-5.75-2.16-8.69-3.24-1.85-.68-3.71-1.4-5.6-2.14Z"/>
      <path class="cls-25" d="M27.26,149.13c2.2-1.57,5.03-2.39,8.2-2.86,1.63-.23,3.38-.37,5.34-.17v-10.8c-.97-.43-1.94-.82-2.9-1.19-2.35-.14-4.33.19-6.14.72-2.99.85-5.56,2.2-7.34,4.43-2.18-.16-4.62-.74-7.31-1.59-5.3-1.71-10.9-3.87-17.12-6.63v8.18c7.42,3.44,14.09,6.12,20.36,8.22,2.49.84,4.8,1.44,6.9,1.69Z"/>
      <path class="cls-25" d="M129.62,154.06c-4.39.41-7.93,2.43-11.37,4.66-1.87.39-3.65.85-5.46,1.34-6.2,1.67-12.22,3.58-20.13,2.39-.99-.14-1.98-.33-3.03-.6-.72-.17-1.46-.39-2.2-.64l-7.87,7.4c2.47,1.61,4.88,3.13,7.23,4.57.99.35,1.96.66,2.91.89.97.25,1.88.41,2.8.52,7.29.91,12.59-1.69,18.07-3.98,1.59-.68,3.19-1.34,4.86-1.88,3.19-2.31,6.51-4.27,10.78-4.37,2.06-.06,4.27.19,6.7.78,1.83.91,3.75,2.27,5.75,3.89l8.63-8.1c-3.87-2.8-7.58-5.54-10.84-6.74-2.43-.27-4.7-.31-6.84-.12Z"/>
      <path class="cls-25" d="M272.65,217.89c-1.34-2.91-2.78-5.75-4.31-8.47-2.06-4.66-4.35-8.92-6.78-12.73-2.66-4.45-5.5-8.26-8.39-11.56-1.96-2.45-3.96-4.62-5.97-6.51v12.55c1.73,1.65,3.46,3.56,5.15,5.67,2.91,3.4,5.73,7.38,8.34,12.03,2.35,4,4.55,8.49,6.49,13.41,1.42,2.97,2.74,6.06,3.94,9.27,1.92.82,3.83,1.59,5.73,2.35,3.77,1.52,7.5,3.01,11.15,4.49v-14.5c-3.19-1.24-6.41-2.49-9.68-3.75-1.88-.74-3.77-1.48-5.67-2.25Z"/>
      <path class="cls-47" d="M5.87,149.03c2.88,1.28,5.65,2.43,8.37,3.5.91.35,1.81.7,2.7,1.03,1.79.68,3.54,1.3,5.27,1.88,2.31.8,4.51,1.4,6.55,1.75,2.58-.87,5.65-1.17,8.96-1.2.6-.02,1.22-.02,1.87.02.39.02.82.04,1.22.08v-9.99c-1.96-.19-3.71-.06-5.34.17-3.17.47-6,1.28-8.2,2.86-2.1-.25-4.41-.85-6.9-1.69-6.28-2.1-12.94-4.78-20.36-8.22v7.13s.04.04.08.04c1.96.93,3.91,1.83,5.79,2.64Z"/>
      <path class="cls-47" d="M126.22,164.36c-4.27.1-7.6,2.06-10.78,4.37-1.67.54-3.26,1.2-4.86,1.88-5.48,2.29-10.78,4.9-18.07,3.98-.91-.12-1.83-.27-2.8-.52-.95-.23-1.92-.54-2.91-.89-2.35-1.44-4.76-2.95-7.23-4.57l-6.84,6.43c2.22,1.48,4.41,2.91,6.55,4.31,2.35,1.53,4.61,2.91,6.8,4.18.93.33,1.83.62,2.7.84.89.23,1.77.35,2.58.45,6.76.64,11.43-2.68,16.22-5.63,1.4-.87,2.82-1.71,4.31-2.43,2.91-2.41,6.06-4.29,10.22-4.1,2,.1,4.18.56,6.59,1.48.85.52,1.73,1.15,2.6,1.83l7.36-6.94c-2-1.61-3.92-2.97-5.75-3.89-2.43-.58-4.64-.84-6.7-.78Z"/>
      <path class="cls-47" d="M271.11,231.55c-1.2-3.21-2.53-6.3-3.94-9.27-1.94-4.92-4.14-9.4-6.49-13.41-2.6-4.64-5.42-8.63-8.34-12.03-1.69-2.12-3.42-4.02-5.15-5.67v10.82c.66.66,1.32,1.36,2,2.12.66.74,1.34,1.53,2,2.37,2.93,3.48,5.75,7.62,8.32,12.46,2.31,4.2,4.43,8.9,6.26,14.05,1.32,3.23,2.53,6.59,3.58,10.08,1.63.7,3.24,1.38,4.86,2.04,1.28-.19,2.55-.31,3.79-.35,3.44.16,6.8,1.01,10.01,2.58v-8.96c-3.65-1.48-7.38-2.97-11.15-4.49-1.9-.76-3.81-1.53-5.73-2.35Z"/>
      <path class="cls-33" d="M28.8,162.93c2.93-.17,6.22.04,9.66.43.78.1,1.55.19,2.35.33v-7.6c-.41-.04-.84-.06-1.22-.08-.64-.04-1.26-.04-1.87-.02-3.3.04-6.37.33-8.96,1.2-2.04-.35-4.24-.95-6.55-1.75-1.73-.58-3.48-1.2-5.27-1.88-.89-.33-1.79-.68-2.7-1.03-2.72-1.07-5.5-2.22-8.37-3.5-1.88-.82-3.83-1.71-5.79-2.64-.04,0-.06-.02-.08-.04v5.85c7.91,3.56,15.31,6.43,22.54,8.92,2.16.74,4.26,1.36,6.26,1.81Z"/>
      <path class="cls-33" d="M122.12,172.66c-4.16-.19-7.31,1.69-10.22,4.1-1.5.72-2.91,1.55-4.31,2.43-4.8,2.95-9.46,6.28-16.22,5.63-.82-.1-1.69-.21-2.58-.45-.87-.21-1.77-.51-2.7-.84-2.2-1.26-4.45-2.64-6.8-4.18-2.14-1.4-4.33-2.84-6.55-4.31l-5.3,4.99c6.18,2.18,12.44,4.45,18.71,6.78,2.47.89,4.95,1.87,7.58,3.19.45.49.91.99,1.36,1.5.02,0,.04-.02.06-.03.73-.31,1.44-.66,2.12-1.07h0s0,0,0,0c.6-.72,1.19-1.44,1.79-2.14,1.05-1.26,2.12-2.49,3.26-3.54,1.87-2,3.98-3.48,6.68-3.71,2.31-1.83,4.92-2.99,8.28-2.58,1.92.23,4.08.91,6.51,2.18.47.33.95.7,1.42,1.09l6.12-5.75c-.87-.68-1.75-1.3-2.6-1.83-2.41-.91-4.59-1.38-6.59-1.48Z"/>
      <path class="cls-33" d="M249.92,213.46c2.97,3.58,5.83,7.87,8.37,12.88,2.29,4.39,4.37,9.31,6.12,14.71.95,2.66,1.79,5.44,2.56,8.3.97-.95,1.96-2.02,2.97-3.23,1.44-.47,2.86-.78,4.26-1.01-1.61-.66-3.23-1.34-4.86-2.04-1.05-3.5-2.25-6.86-3.58-10.08-1.83-5.15-3.94-9.85-6.26-14.05-2.56-4.84-5.38-8.98-8.32-12.46-.66-.84-1.34-1.63-2-2.37-.68-.76-1.34-1.46-2-2.12v8.41c.47.47.91.95,1.36,1.48.47.51.91,1.03,1.36,1.57Z"/>
      <path class="cls-9" d="M27.2,165.76c3.28.52,6.8,1.26,10.4,2.1,1.05.23,2.12.49,3.21.78v-4.95c-.8-.14-1.57-.23-2.35-.33-3.44-.39-6.72-.6-9.66-.43-2-.45-4.1-1.07-6.26-1.81-7.23-2.49-14.63-5.36-22.54-8.92v4c7.11,2.8,14.15,5.32,21.2,7.69,2.02.68,4.02,1.32,6,1.87Z"/>
      <path class="cls-9" d="M95.42,191.93c.08.1.17.19.25.29.53-.58,1.06-1.18,1.57-1.8h0c-.68.4-1.39.75-2.12,1.06-.02,0-.04.02-.06.03.11.13.23.28.35.42Z"/>
      <path class="cls-9" d="M117.26,178.45c-3.36-.41-5.97.76-8.28,2.58.8-.06,1.63-.02,2.55.16,1.9.37,4.04,1.26,6.47,2.86.82.64,1.61,1.36,2.45,2.14l4.74-4.47c-.47-.39-.95-.76-1.42-1.09-2.43-1.26-4.59-1.94-6.51-2.18Z"/>
      <path class="cls-9" d="M257.22,230.56c2.33,4.59,4.41,9.72,6.12,15.35.54,1.71,1.05,3.5,1.53,5.29.7-.54,1.4-1.17,2.1-1.85-.78-2.86-1.61-5.63-2.56-8.3-1.75-5.4-3.83-10.32-6.12-14.71-2.55-5.01-5.4-9.31-8.37-12.88-.45-.54-.89-1.07-1.36-1.57-.45-.52-.89-1.01-1.36-1.48v5.25c.49.52.97,1.05,1.44,1.61,3.07,3.65,5.98,8.1,8.59,13.29Z"/>
      <path class="cls-36" d="M111.53,181.19c-.91-.17-1.75-.21-2.55-.16-2.7.23-4.82,1.71-6.68,3.71-1.15,1.05-2.22,2.27-3.26,3.54-.6.7-1.19,1.42-1.79,2.14-.51.6-1.03,1.22-1.57,1.81,1.26,1.46,2.49,2.97,3.69,4.55,2.64-3.38,5.48-6.2,9.7-5.85.17,0,.35.02.52.06.21.02.43.06.66.12.47.1.97.23,1.48.43.19.06.39.14.58.21.47.17.97.41,1.48.7h.02l6.65-6.26c-.84-.78-1.63-1.5-2.45-2.14-2.43-1.59-4.57-2.49-6.47-2.86Z"/>
      <path class="cls-36" d="M40.8,168.64c-1.09-.29-2.16-.54-3.21-.78-3.59-.84-7.11-1.57-10.4-2.1-1.98-.54-3.98-1.19-6-1.87-7.05-2.37-14.09-4.9-21.2-7.69v1.4c12.61,3.94,26.39,8.37,40.8,13.23v-2.2Z"/>
      <path class="cls-36" d="M249.55,227.1c.41.49.82.97,1.2,1.48.41.51.8,1.03,1.19,1.57.39.52.78,1.09,1.15,1.65.41.6.82,1.22,1.2,1.87.33.54.66,1.11.99,1.69.23.41.47.82.7,1.22.02.04.04.08.06.12.27.51.54,1.01.82,1.54.31.6.64,1.24.93,1.88.47.95.93,1.94,1.36,2.95.45,1.01.87,2.04,1.28,3.09.41,1.03.82,2.1,1.19,3.17.02.04.04.1.04.14.39,1.07.76,2.14,1.11,3.24.7-.45,1.4-.93,2.12-1.52-.49-1.79-.99-3.58-1.53-5.29-1.71-5.63-3.79-10.76-6.12-15.35-2.6-5.19-5.52-9.64-8.59-13.29-.47-.56-.95-1.09-1.44-1.61v8.92c.78.76,1.55,1.59,2.31,2.47.02.02.02.04.04.06Z"/>
      <path class="cls-12" d="M23.39,171.42c5.42,1.83,10.98,3.73,16.65,5.73.25.1.51.17.76.27v-6.59c-14.42-4.86-28.19-9.29-40.8-13.23v6.08c4.78,1.53,9.75,3.17,14.86,4.86,2.8.93,5.63,1.88,8.53,2.88Z"/>
      <path class="cls-12" d="M72.28,200.41c1.32.95,2.6,1.85,3.87,2.62,2.74,1.71,5.32,3.05,7.69,3.69,7.71,2.1,11.37-4.62,15.53-9.95-1.2-1.57-2.43-3.09-3.69-4.55-.08-.11-.17-.2-.25-.3-.12-.14-.24-.28-.35-.42h0c-.45-.51-.91-1.01-1.36-1.5-2.62-1.32-5.11-2.29-7.58-3.19-6.28-2.33-12.53-4.61-18.71-6.78l-9.85,9.27c2.97,2.51,5.75,4.7,8.41,6.68,2.18,1.63,4.27,3.09,6.3,4.41Z"/>
      <path class="cls-12" d="M274.2,245.12c-1.4.23-2.82.54-4.26,1.01-1.01,1.2-2,2.27-2.97,3.23-.7.68-1.4,1.3-2.1,1.85-.72.58-1.42,1.07-2.12,1.52,1.65,5.13,3.03,10.61,4.04,16.34,2.06.95,4.12,1.88,6.14,2.78.21.1.45.19.66.29h14.4v-24.77c-3.21-1.57-6.57-2.43-10.01-2.58-1.24.04-2.51.16-3.79.35Z"/>
      <path class="cls-12" d="M171.3,233.4c4.74.51,9.44.27,14.22-.25,2.39.84,4.78,1.65,7.17,2.47,2.37.84,4.76,1.67,7.13,2.55,2.35.85,4.7,1.75,7.05,2.18,1.46-3.17,2.93-5.93,4.43-8.26h-48.23c.47.12.93.21,1.4.31,2.27.45,4.55.78,6.82,1.01Z"/>
      <path class="cls-43" d="M40.8,178.43v-1.01c-.25-.1-.51-.17-.76-.27-5.67-2-11.23-3.91-16.65-5.73-2.9-.99-5.73-1.94-8.53-2.88-5.11-1.69-10.08-3.32-14.86-4.86v6.12c11.19,3.73,23.53,7.97,36.55,12.63l4.26-4Z"/>
      <path class="cls-43" d="M111.73,191.53c-.51-.19-1.01-.33-1.48-.43-.23-.06-.45-.1-.66-.12-.17-.04-.35-.06-.52-.06-4.22-.35-7.05,2.47-9.7,5.85-4.16,5.32-7.81,12.05-15.53,9.95-2.37-.64-4.95-1.98-7.69-3.69-1.26-.78-2.55-1.67-3.87-2.62-2.02-1.32-4.12-2.78-6.3-4.41-2.66-1.98-5.44-4.18-8.41-6.68l-2.39,2.25c5.42,4.78,10.28,8.78,14.81,12.16,2.12,1.57,4.16,3.03,6.14,4.35,1.3,1.03,2.56,2,3.81,2.88,2.7,1.92,5.27,3.46,7.66,4.31.51.17,1.01.33,1.48.43l24.72-23.26c-.51-.29-1.01-.52-1.48-.7-.19-.08-.39-.16-.58-.21Z"/>
      <path class="cls-43" d="M157.66,238.28c3.24,1.22,6.47,2.16,9.7,2.88,2.23.49,4.47.87,6.72,1.19,4.64.64,9.31.29,14.03-.43,2.33.64,4.64,1.26,6.96,1.9,2.33.62,4.66,1.28,6.98,2.02,2.31.72,4.61,1.54,6.92,1.98,1.59-2.84,3.17-5.23,4.78-7.13,1.3-1.61,2.62-2.99,3.96-4.22,1.88-1.73,3.81-3.21,5.79-4.39h-12.18c-1.5,2.33-2.97,5.09-4.43,8.26-2.35-.43-4.7-1.32-7.05-2.18-2.37-.87-4.76-1.71-7.13-2.55-2.39-.82-4.78-1.63-7.17-2.47-4.78.52-9.48.76-14.22.25-2.27-.23-4.55-.56-6.82-1.01-.47-.1-.93-.19-1.4-.31h-17.22c1.32,1.09,2.66,1.98,4.02,2.66,2.62,1.28,5.21,2.58,7.77,3.54Z"/>
      <path class="cls-43" d="M266.8,269.06c-1.01-5.73-2.39-11.21-4.04-16.34-.35-1.11-.72-2.18-1.11-3.24,0-.04-.02-.1-.04-.14-.37-1.07-.78-2.14-1.19-3.17-.41-1.05-.84-2.08-1.28-3.09-.43-1.01-.89-2-1.36-2.95-.29-.64-.62-1.28-.93-1.88-.27-.52-.54-1.03-.82-1.54-.02-.04-.04-.08-.06-.12-.23-.41-.47-.82-.7-1.22-.33-.58-.66-1.15-.99-1.69-.39-.64-.8-1.26-1.2-1.87-.37-.56-.76-1.13-1.15-1.65-.39-.54-.78-1.07-1.19-1.57-.39-.51-.8-.99-1.2-1.48-.02-.02-.02-.04-.04-.06-.76-.87-1.54-1.71-2.31-2.47v7.5h-1.11c.7.47,1.4.99,2.1,1.55,8.34,7.09,14.51,22.07,18.15,38.49h7.27c-.21-.1-.45-.19-.66-.29-2.02-.89-4.08-1.83-6.14-2.78Z"/>
      <path class="cls-34" d="M36.55,182.43c-13.02-4.66-25.36-8.9-36.55-12.63v6.12c9.64,3.34,20.27,7.09,31.54,11.23l5.01-4.72Z"/>
      <path class="cls-34" d="M79.94,210.96c-1.24-.87-2.51-1.85-3.81-2.88-1.98-1.32-4.02-2.78-6.14-4.35-4.53-3.38-9.38-7.38-14.81-12.16l-3.38,3.19c1.28.49,2.56,1.03,3.91,1.65,6.72,6.12,12.61,11,18.11,15.1,2.04,1.52,4.02,2.97,5.98,4.29,1.26,1.13,2.51,2.18,3.73,3.15.39.31.76.6,1.15.89l4.39-4.14c-.47-.1-.97-.25-1.48-.43-2.39-.85-4.95-2.39-7.66-4.31Z"/>
      <path class="cls-34" d="M248.19,233.63c-.7-.56-1.4-1.09-2.1-1.55h-22.6c-1.98,1.19-3.91,2.66-5.79,4.39-1.34,1.22-2.66,2.6-3.96,4.22-1.61,1.9-3.19,4.29-4.78,7.13-2.31-.45-4.61-1.26-6.92-1.98-2.31-.74-4.64-1.4-6.98-2.02-2.31-.64-4.62-1.26-6.96-1.9-4.72.72-9.38,1.07-14.03.43-2.25-.31-4.49-.7-6.72-1.19-3.23-.72-6.45-1.65-9.7-2.88-2.56-.95-5.15-2.25-7.77-3.54-1.36-.68-2.7-1.57-4.02-2.66h-5.17c3.98,4.88,7.99,9.17,12.22,11.29,2.55,1.28,5.07,2.56,7.58,3.56,3.17,1.24,6.33,2.22,9.48,2.99,2.22.54,4.41.97,6.63,1.36,4.59.8,9.19.31,13.87-.6,2.27.47,4.53.87,6.8,1.32,2.27.43,4.57.91,6.84,1.52,2.25.58,4.51,1.3,6.8,1.79,1.67-2.51,3.36-4.53,5.03-6,1.34-1.22,2.68-2.25,4.06-3.15,9.64-6.43,20.6-9.73,30.25-2.18,6.47,5.38,11.06,16.15,14.32,28.15h1.75c-3.63-16.42-9.81-31.4-18.15-38.49Z"/>
      <path class="cls-31" d="M31.54,187.16c-11.27-4.14-21.9-7.89-31.54-11.23v6.14c8.14,2.93,17.08,6.18,26.58,9.75l4.95-4.66Z"/>
      <path class="cls-31" d="M79.8,215.8c-1.96-1.32-3.94-2.78-5.98-4.29-5.5-4.1-11.39-8.98-18.11-15.1-1.34-.62-2.62-1.17-3.91-1.65l-5.07,4.76c2.35.91,4.74,1.85,7.13,2.8,2,.8,4.02,1.59,6.1,2.58,6.39,5.79,12.09,10.43,17.45,14.42,1.5,1.11,2.97,2.18,4.41,3.21l2.86-2.68c-.39-.29-.76-.58-1.15-.89-1.22-.97-2.47-2.02-3.73-3.15Z"/>
      <path class="cls-31" d="M107.65,232.08h-7.62l-1.94,1.83c3.59.84,6.66-.17,9.56-1.83Z"/>
      <path class="cls-31" d="M250.27,243.97c-9.66-7.56-20.62-4.26-30.25,2.18-1.38.89-2.72,1.92-4.06,3.15-1.67,1.48-3.36,3.5-5.03,6-2.29-.49-4.55-1.2-6.8-1.79-2.27-.6-4.57-1.09-6.84-1.52-2.27-.45-4.53-.85-6.8-1.32-4.68.91-9.29,1.4-13.87.6-2.22-.39-4.41-.82-6.63-1.36-3.15-.78-6.31-1.75-9.48-2.99-2.51-.99-5.03-2.27-7.58-3.56-4.24-2.12-8.24-6.41-12.22-11.29h-4.18c6.35,7.67,12.42,16.48,19.18,19.96,2.49,1.26,4.94,2.53,7.36,3.52,3.11,1.26,6.2,2.29,9.29,3.15,2.18.58,4.33,1.07,6.51,1.52,4.51.95,9.07.33,13.74-.78,2.23.27,4.45.47,6.68.72,2.23.25,4.49.54,6.72,1.01,2.23.45,4.45,1.07,6.7,1.61,1.77-2.18,3.5-3.83,5.23-4.9,1.34-.84,2.7-1.5,4.08-2.08,9.58-4.1,20.64-8.43,29.98-1.52,4.51,3.63,7.77,10.18,10.34,17.84h2.25c-3.26-12.01-7.85-22.77-14.32-28.15Z"/>
      <path class="cls-1" d="M26.58,191.82c-9.5-3.58-18.44-6.82-26.58-9.75v6.24c6.66,2.47,13.93,5.19,21.67,8.14l4.92-4.62Z"/>
      <path class="cls-1" d="M59.96,204.9c-2.08-.99-4.1-1.79-6.1-2.58-2.39-.95-4.78-1.88-7.13-2.8l-5.05,4.76c5.29,2.1,10.71,4.27,16.22,6.55,1.96.82,3.94,1.63,6,2.62,5.25,4.72,10.07,8.63,14.69,12.11l3.23-3.03c-1.44-1.03-2.91-2.1-4.41-3.21-5.36-3.98-11.06-8.63-17.45-14.42Z"/>
      <path class="cls-1" d="M252,254.29c-9.35-6.92-20.4-2.58-29.98,1.52-1.38.58-2.74,1.24-4.08,2.08-1.73,1.07-3.46,2.72-5.23,4.9-2.25-.54-4.47-1.17-6.7-1.61-2.23-.47-4.49-.76-6.72-1.01-2.23-.25-4.45-.45-6.68-.72-4.66,1.11-9.23,1.73-13.74.78-2.18-.45-4.33-.93-6.51-1.52-3.09-.85-6.18-1.88-9.29-3.15-2.43-.99-4.88-2.25-7.36-3.52-6.76-3.48-12.82-12.28-19.18-19.96h-28.87c-2.9,1.65-5.97,2.66-9.56,1.83l-4.59,4.31c1.3,1.13,2.58,2.1,3.83,2.9,14.24,9.15,21.8-10.28,36.06-5.73,1.96,1.48,3.98,3.67,6,6.08,6.2,7.31,12.07,15.72,18.75,19.2,2.43,1.26,4.8,2.51,7.19,3.52,3.03,1.28,6.04,2.37,9.07,3.26,2.12.64,4.26,1.17,6.37,1.69,4.43,1.11,8.98.35,13.62-.97,2.2.1,4.39.1,6.59.16,2.23.06,4.45.17,6.66.51,2.22.31,4.41.84,6.63,1.42,1.83-1.85,3.61-3.13,5.34-3.77,1.32-.45,2.66-.76,4-1.03,9.38-1.81,20.6-7.13,29.71-.85,2.27,1.79,4.16,4.39,5.73,7.54h3.26c-2.56-7.66-5.83-14.2-10.34-17.84Z"/>
      <path class="cls-24" d="M21.67,196.44c-7.73-2.95-15-5.67-21.67-8.14v6.3c5.17,1.96,10.78,4.14,16.75,6.47l4.92-4.62Z"/>
      <path class="cls-24" d="M57.9,210.82c-5.52-2.27-10.94-4.45-16.22-6.55l-.87.82-4.18,3.92c7.99,3.24,16.36,6.7,24.97,10.38,1.94.82,3.91,1.67,5.91,2.66,2.72,2.37,5.32,4.55,7.85,6.55l3.24-3.05c-4.62-3.48-9.44-7.38-14.69-12.11-2.06-.99-4.04-1.81-6-2.62Z"/>
      <path class="cls-24" d="M253.34,264.59c-9.11-6.28-20.32-.95-29.71.85-1.34.27-2.68.58-4,1.03-1.73.64-3.52,1.92-5.34,3.77-2.22-.58-4.41-1.11-6.63-1.42-2.22-.33-4.43-.45-6.66-.51-2.2-.06-4.39-.06-6.59-.16-4.64,1.32-9.19,2.08-13.62.97-2.12-.52-4.26-1.05-6.37-1.69-3.03-.89-6.04-1.98-9.07-3.26-2.39-1.01-4.76-2.25-7.19-3.52-6.68-3.48-12.55-11.89-18.75-19.2-2.02-2.41-4.04-4.61-6-6.08-14.26-4.55-21.82,14.88-36.06,5.73-1.24-.8-2.53-1.77-3.83-2.9l-2.7,2.55c.68.8,1.34,1.55,2,2.27,2.49,2.72,4.86,5.03,7.13,6.72,13.87,10.38,22.79-6.45,36.61-3.96,1.88,1.32,3.81,3.34,5.71,5.56,5.93,6.8,11.54,14.51,18.03,17.93,1.87.99,3.69,1.96,5.54,2.84h93.25c-1.57-3.15-3.46-5.75-5.73-7.54Z"/>
      <path class="cls-22" d="M16.75,201.07c-5.97-2.33-11.58-4.51-16.75-6.47v6.35c3.69,1.46,7.68,3.03,11.85,4.72l4.9-4.61Z"/>
      <path class="cls-22" d="M61.59,219.39c-8.61-3.67-16.98-7.13-24.97-10.38l-5.01,4.72c10.41,4.31,21.67,9.11,33.36,14.26,1.92.84,3.85,1.69,5.81,2.68.43.35.84.72,1.24,1.05l3.32-3.13c-2.53-2-5.13-4.18-7.85-6.55-2-.99-3.96-1.85-5.91-2.66Z"/>
      <path class="cls-22" d="M142.25,251.35c-1.9-2.22-3.83-4.24-5.71-5.56-13.82-2.49-22.73,14.34-36.61,3.96-2.27-1.69-4.64-4-7.13-6.72-.66-.72-1.32-1.48-2-2.27l-3.13,2.93c1.46,1.05,2.91,2.14,4.35,3.19,1.13,1.5,2.22,2.9,3.3,4.22,2.39,2.91,4.68,5.42,6.9,7.31,13.41,11.58,23.45-2.6,36.98-2.18,1.85,1.13,3.67,2.99,5.5,5.01,3.32,3.67,6.57,7.6,9.93,10.88h11.19c-1.85-.87-3.67-1.85-5.54-2.84-6.49-3.42-12.11-11.13-18.03-17.93Z"/>
      <path class="cls-26" d="M11.85,205.67c-4.18-1.69-8.16-3.26-11.85-4.72v6.41c2.22.91,4.57,1.87,7.01,2.86l4.84-4.55Z"/>
      <path class="cls-26" d="M64.98,228c-11.7-5.15-22.95-9.95-33.36-14.26l-4.97,4.68c12.32,5.23,26.1,11.23,40.57,17.84l4.45-4.18.37-.35c-.41-.33-.82-.7-1.24-1.05-1.96-.99-3.89-1.85-5.81-2.68Z"/>
      <path class="cls-26" d="M139.2,256.23c-13.52-.43-23.57,13.76-36.98,2.18-2.21-1.88-4.51-4.39-6.9-7.31-1.09-1.32-2.18-2.72-3.3-4.22-1.44-1.05-2.9-2.14-4.35-3.19l-3.67,3.46c1.71,1.24,3.42,2.45,5.11,3.65,1.77,1.26,3.54,2.58,5.3,3.89,1.07,1.57,2.12,3.07,3.15,4.47,2.29,3.11,4.49,5.79,6.63,7.87,2.64,2.62,5.21,4.22,7.71,5.09h11.15c5.87-1.55,11.81-4.7,18.36-5.5,1.79.97,3.56,2.64,5.3,4.49.31.33.64.66.95,1.01h6.96c-3.36-3.28-6.61-7.21-9.93-10.88-1.83-2.02-3.65-3.89-5.5-5.01Z"/>
      <path class="cls-6" d="M7.01,210.22c-2.45-.99-4.8-1.94-7.01-2.86v6.47c.72.31,1.46.62,2.2.93l4.82-4.55Z"/>
      <path class="cls-6" d="M21.68,223.08c11.97,5.19,25.67,11.31,40.3,18.09l5.23-4.92c-14.48-6.61-28.25-12.61-40.57-17.84l-4.95,4.66Z"/>
      <path class="cls-6" d="M97.56,259.16c-1.03-1.4-2.08-2.9-3.15-4.47-1.77-1.3-3.54-2.62-5.3-3.89-1.69-1.2-3.4-2.41-5.11-3.65l-3.89,3.67c3.79,2.8,7.52,5.3,11.23,7.87,1.73,1.2,3.44,2.51,5.17,3.79,1.01,1.67,2.02,3.24,2.99,4.72,1.17,1.77,2.31,3.42,3.44,4.92h8.96c-2.51-.87-5.07-2.47-7.71-5.09-2.14-2.08-4.33-4.76-6.63-7.87Z"/>
      <path class="cls-6" d="M141.42,266.63c-6.55.8-12.49,3.94-18.36,5.5h24.62c-.31-.35-.64-.68-.95-1.01-1.75-1.85-3.52-3.52-5.3-4.49Z"/>
      <path class="cls-46" d="M0,213.83v2.99l2.2-2.06c-.74-.31-1.48-.62-2.2-.93Z"/>
      <path class="cls-46" d="M16.75,227.73c2.22.99,4.59,2.04,7.05,3.15,1.24.54,2.53,1.13,3.81,1.71,1.88.85,3.85,1.75,5.91,2.68,1.34.6,2.68,1.22,4.06,1.87,2.72,1.24,5.54,2.55,8.43,3.89,2.16,1.01,4.33,2.02,6.55,3.07,1.38.64,2.78,1.3,4.22,1.98l5.21-4.9c-14.63-6.78-28.33-12.9-40.3-18.09l-4.94,4.64Z"/>
      <path class="cls-46" d="M96.51,262.49c-1.73-1.28-3.44-2.58-5.17-3.79-3.71-2.56-7.44-5.07-11.23-7.87l-4.57,4.29c1.03.49,2.06,1.01,3.09,1.55,4.94,3.61,9.79,6.65,14.65,9.91,1.69,1.15,3.38,2.41,5.07,3.69.35.62.68,1.24,1.03,1.85h3.56c-1.13-1.5-2.27-3.15-3.44-4.92-.97-1.48-1.98-3.05-2.99-4.72Z"/>
      <path class="cls-42" d="M46.01,241.02c-2.9-1.34-5.71-2.64-8.43-3.89-1.38-.64-2.72-1.26-4.06-1.87-2.06-.93-4.02-1.83-5.91-2.68-1.28-.58-2.56-1.17-3.81-1.71-2.47-1.11-4.84-2.16-7.05-3.15l-4.92,4.62c10.98,4.99,24.62,11.33,39.74,18.63l5.21-4.92c-1.44-.68-2.84-1.34-4.22-1.98-2.21-1.05-4.39-2.06-6.55-3.07Z"/>
      <path class="cls-42" d="M93.29,266.59c-4.86-3.26-9.72-6.3-14.65-9.91-1.03-.54-2.06-1.07-3.09-1.55l-5.34,5.01c1.63.8,3.26,1.61,4.92,2.45,1.81.89,3.59,1.81,5.42,2.76,3.58,2.41,7.13,4.55,10.71,6.78h8.14c-.35-.6-.68-1.22-1.03-1.85-1.69-1.28-3.38-2.55-5.07-3.69Z"/>
      <path class="cls-23" d="M6.92,236.99c10.2,4.72,23.86,11.19,39.44,18.89l5.21-4.9c-15.12-7.31-28.76-13.64-39.74-18.63l-4.92,4.64Z"/>
      <path class="cls-23" d="M75.12,262.58c-1.65-.84-3.28-1.65-4.92-2.45l-5.32,5.01c3.87,1.96,7.81,3.98,11.81,6.06.58.31,1.17.6,1.75.91h12.8c-3.58-2.23-7.13-4.37-10.71-6.78-1.83-.95-3.61-1.87-5.42-2.76Z"/>
      <path class="cls-41" d="M6.9,236.99l-4.92,4.62c9,4.26,22.77,10.88,39.17,19.16l5.21-4.9c-15.58-7.69-29.24-14.16-39.44-18.89h-.02Z"/>
      <path class="cls-41" d="M64.88,265.15l-5.36,5.03,3.32,1.75c.12.06.23.12.35.19h15.25c-.58-.31-1.17-.6-1.75-.91-4-2.08-7.95-4.1-11.81-6.06Z"/>
      <path class="cls-45" d="M0,243.48v5.07c7.13,3.17,19.94,9,35.95,17.12l5.21-4.9c-16.4-8.28-30.18-14.9-39.17-19.16l-1.98,1.87Z"/>
      <path class="cls-45" d="M59.52,270.18l-2.06,1.94h5.73c-.12-.08-.23-.14-.35-.19l-3.32-1.75Z"/>
      <path class="cls-10" d="M.06,270.65s-.02-.06-.02-.1c0-.06-.02-.14-.04-.21v.14c.06.23.1.47.16.7-.02-.17-.06-.35-.1-.52Z"/>
      <path class="cls-10" d="M0,257.01c5.19,2.35,15.84,7.33,29.77,14.48l6.18-5.81c-16.01-8.12-28.82-13.95-35.95-17.12v8.45Z"/>
      <path class="cls-30" d="M.25,271.7c.04.14.06.27.08.43h.02c-.06-.31-.12-.64-.19-.95.04.17.08.35.1.52Z"/>
      <path class="cls-30" d="M0,265.52c2.02.95,6.74,3.21,13.48,6.61h15.6l.68-.64c-13.93-7.15-24.58-12.12-29.77-14.48v8.51Z"/>
      <path class="cls-44" d="M0,270.32v.02c.02.08.04.16.04.21,0,.04.02.06.02.1.04.17.08.35.1.52.08.31.14.64.19.95h13.14c-6.74-3.4-11.46-5.65-13.48-6.61v4.8Z"/>
    </g>
    <g>
      <path class="cls-2" d="M95.35,73.84c.16-.53.25-1.09.27-1.7,0-.1.01-.2.01-.31,0-.33-.01-.64-.05-.94-.05-.44-.15-.85-.27-1.25-.15-.45-.36-.87-.6-1.25-.32-.47-.7-.89-1.16-1.26-.67-.53-1.52-.94-2.51-1.26-1.67-.54-3.77-.8-6.32-.8h-11.69v13.87h11.53c6.1,0,9.78-1.72,10.78-5.1Z"/>
      <path class="cls-2" d="M73.03,114.28h14.92c3.14,0,5.81-.41,7.92-1.25,3.21-1.26,5.1-3.52,5.27-6.79.01-.18.04-.35.04-.53,0-5.2-4.47-7.72-13.08-7.72h-15.07v16.28Z"/>
      <path class="cls-21" d="M45.18,132.87v1.45h.95c-.32-.48-.63-.97-.95-1.45Z"/>
      <path class="cls-4" d="M45.18,99.45v33.42c.32.48.63.97.95,1.45h23.41c-7.23-11.5-15.43-23.17-24.36-34.87Z"/>
      <path class="cls-28" d="M45.18,96.72v2.73c8.93,11.7,17.12,23.37,24.36,34.87h3.89c-8.36-12.35-17.85-24.93-28.25-37.59Z"/>
      <path class="cls-39" d="M45.18,94.01v2.71c10.4,12.66,19.89,25.24,28.25,37.59h4.56c-9.64-13.17-20.67-26.69-32.81-40.3Z"/>
      <path class="cls-38" d="M45.18,91.4v2.61c12.14,13.61,23.17,27.13,32.81,40.3h5.34c-11.1-13.95-23.95-28.39-38.15-42.92Z"/>
      <path class="cls-5" d="M45.18,88.87v2.53c14.21,14.52,27.06,28.96,38.15,42.92,2.26,0,4.34-.03,6.25-.07-12.77-14.65-27.73-29.98-44.4-45.37Z"/>
      <path class="cls-14" d="M45.18,87.25v1.62c16.67,15.39,31.63,30.72,44.4,45.37.42,0,.84-.01,1.26-.03-13.63-14.69-29.1-30.58-45.66-46.96Z"/>
      <path class="cls-40" d="M77.8,114.28h-4.77v-4.36c-8.89-8.08-18.21-16.48-27.85-25.08v2.41c16.56,16.38,32.03,32.27,45.66,46.96,3.05-.1,5.71-.24,8.04-.5-6.64-6.19-13.7-12.69-21.08-19.43Z"/>
      <path class="cls-32" d="M86.06,114.28h-8.26c7.38,6.74,14.44,13.24,21.08,19.43,3.69-.4,6.64-1.05,9.47-2.02-7.04-5.44-14.47-11.27-22.29-17.42Z"/>
      <path class="cls-32" d="M73.03,109.93v-5.89c-8.82-6.91-18.11-14.15-27.85-21.61v2.41c9.64,8.6,18.96,17.01,27.85,25.08Z"/>
      <path class="cls-3" d="M95.87,113.03c-2.11.84-4.78,1.25-7.92,1.25h-1.89c7.82,6.15,15.25,11.98,22.29,17.42,2.47-.85,4.82-1.97,7.44-3.42.92-.5,1.78-1.05,2.6-1.62-7.16-4.16-14.67-8.72-22.52-13.63Z"/>
      <path class="cls-3" d="M73.03,104.03v-5.59c-8.92-5.78-18.21-11.88-27.85-18.23v2.21c9.74,7.45,19.03,14.69,27.85,21.61Z"/>
      <path class="cls-15" d="M101.14,106.25c-.18,3.27-2.07,5.52-5.27,6.79,7.85,4.91,15.36,9.47,22.52,13.63,3.73-2.56,6.51-5.78,8.29-9.4-8.18-3.25-16.69-6.94-25.54-11.02Z"/>
      <path class="cls-15" d="M73.03,98.44v-.44h10.82c-12.29-6.05-25.18-12.72-38.67-19.93v2.14c9.64,6.35,18.93,12.45,27.85,18.23Z"/>
      <path class="cls-17" d="M128.16,101.11c-25.67-7.25-53.34-16.58-82.98-25.28v2.24c13.49,7.21,26.38,13.88,38.67,19.93h4.25c8.62,0,13.08,2.53,13.08,7.72,0,.17-.03.34-.04.53,8.85,4.07,17.36,7.77,25.54,11.02,1.53-3.14,2.34-6.54,2.34-10.09,0-2.17-.3-4.19-.86-6.06Z"/>
      <path class="cls-18" d="M128.16,101.11c-2.1-7.03-8.07-12.02-17.9-14.69.97-.43,1.9-.89,2.78-1.39-12.73-1.86-25.67-3.9-38.88-6.09h-1.12v-.18c-9.15-1.52-18.43-3.11-27.85-4.76v1.83c29.63,8.7,57.3,18.03,82.98,25.28Z"/>
      <path class="cls-27" d="M95.35,73.84c-1,3.38-4.69,5.1-10.78,5.1h-10.41c13.21,2.19,26.15,4.23,38.88,6.09,5-2.87,8.29-6.9,9.67-11.5-9.08.16-18.18.3-27.36.31Z"/>
      <path class="cls-27" d="M73.03,78.75v-5.15c-9.12-.26-18.38-.72-27.85-1.5v1.9c9.42,1.65,18.7,3.24,27.85,4.76Z"/>
      <path class="cls-11" d="M95.62,72.14c-.03.61-.11,1.18-.27,1.7,9.18-.01,18.27-.16,27.36-.31.15-.5.29-1.01.38-1.5-9.14.04-18.29.11-27.47.11Z"/>
      <path class="cls-11" d="M73.03,73.6v-1.62c-8.9-.14-17.88-.4-26.97-.88-.3-.01-.59,0-.88-.01v1.01c9.47.78,18.73,1.25,27.85,1.5Z"/>
      <path class="cls-37" d="M95.58,70.89c.04.3.05.61.05.94,0,.11-.01.21-.01.31,9.18,0,18.33-.07,27.47-.11.08-.41.16-.82.22-1.24-9.23.04-18.45.1-27.73.1Z"/>
      <path class="cls-37" d="M73.03,71.98v-1.28c-8.33-.16-16.73-.41-25.23-.85-.89-.04-1.74-.04-2.62-.07v1.31c.29.01.58,0,.88.01,9.1.48,18.07.74,26.97.88Z"/>
      <path class="cls-13" d="M95.31,69.64c.12.4.22.81.27,1.25,9.27,0,18.49-.06,27.73-.1.05-.4.1-.81.12-1.22-9.36.03-18.71.09-28.12.07Z"/>
      <path class="cls-13" d="M73.03,70.7v-1.28c-7.75-.16-15.58-.41-23.48-.81-1.48-.09-2.93-.11-4.37-.13v1.29c.88.03,1.73.03,2.62.07,8.51.44,16.9.7,25.23.85Z"/>
      <path class="cls-29" d="M94.71,68.39c.25.38.45.79.6,1.25,9.41.01,18.77-.04,28.12-.07.03-.41.05-.81.05-1.22-9.59.03-19.17.07-28.78.04Z"/>
      <path class="cls-29" d="M73.03,69.42v-1.29c-7.18-.16-14.41-.4-21.71-.77-2.08-.1-4.11-.11-6.14-.14v1.26c1.44.01,2.89.04,4.37.13,7.9.4,15.73.65,23.48.81Z"/>
      <path class="cls-20" d="M93.54,67.12c.47.37.85.79,1.16,1.26,9.62.03,19.19-.01,28.78-.04v-.03c0-.4-.04-.79-.07-1.19-9.95.03-19.88.06-29.88,0Z"/>
      <path class="cls-20" d="M73.03,68.13v-1.29c-6.6-.16-13.23-.37-19.93-.71-2.69-.14-5.27-.13-7.92-.17v1.26c2.03.03,4.05.04,6.14.14,7.3.37,14.53.61,21.71.77Z"/>
      <path class="cls-7" d="M91.03,65.86c.99.33,1.84.74,2.51,1.26,10,.06,19.93.03,29.88,0-.03-.41-.04-.82-.1-1.22-10.74.03-21.48.04-32.29-.04Z"/>
      <path class="cls-7" d="M53.1,66.13c6.7.34,13.33.55,19.93.71v-1.28c-6.01-.16-12.06-.35-18.14-.67-2.86-.14-5.62-.11-8.44-.17-.42-.01-.85-.03-1.27-.03v1.26c2.64.04,5.23.03,7.92.17Z"/>
      <path class="cls-35" d="M46.46,64.72c2.82.06,5.58.03,8.44.17,6.08.31,12.12.51,18.14.67v-.5h11.69c2.55,0,4.64.26,6.32.8,10.81.09,21.55.07,32.29.04-.05-.41-.14-.81-.21-1.21-21.95.01-43.86.1-66.43-1.04-2.85-.14-5.62-.11-8.42-.18-1.03-.01-2.05-.04-3.08-.06v1.28c.42,0,.85.01,1.27.03Z"/>
      <path class="cls-8" d="M56.69,63.66c22.56,1.14,44.48,1.05,66.43,1.04-.08-.41-.16-.82-.27-1.22-21.27,0-42.52.04-64.35-1.04-2.85-.14-5.62-.13-8.44-.18-1.62-.04-3.25-.09-4.88-.11v1.28c1.03.01,2.05.04,3.08.06,2.81.07,5.58.04,8.42.18Z"/>
      <path class="cls-25" d="M50.06,62.25c2.82.06,5.59.04,8.44.18,21.82,1.08,43.07,1.04,64.35,1.04-.11-.41-.22-.82-.36-1.22-20.56-.01-41.11-.01-62.17-1.04-2.85-.14-5.62-.13-8.44-.2-2.23-.06-4.47-.1-6.7-.16v1.28c1.63.03,3.26.07,4.88.11Z"/>
      <path class="cls-47" d="M51.88,61.02c2.82.07,5.59.06,8.44.2,21.06,1.02,41.6,1.02,62.17,1.04-.15-.41-.32-.81-.48-1.21-19.81-.03-39.62-.07-59.85-1.05-2.85-.14-5.62-.14-8.44-.2-2.84-.07-5.69-.14-8.53-.21v1.28c2.23.06,4.47.1,6.7.16Z"/>
      <path class="cls-33" d="M53.72,59.8c2.82.06,5.59.06,8.44.2,20.23.98,40.04,1.02,59.85,1.05-.18-.41-.36-.82-.55-1.22-19.04-.04-38.06-.11-57.45-1.05-2.86-.14-5.63-.14-8.45-.21-3.45-.09-6.9-.16-10.37-.24v1.26c2.85.07,5.7.14,8.53.21Z"/>
      <path class="cls-9" d="M55.55,58.56c2.82.07,5.59.07,8.45.21,19.4.94,38.41,1.01,57.45,1.05-.22-.41-.45-.82-.68-1.22-18.21-.06-36.4-.16-54.92-1.05-2.85-.13-5.63-.14-8.45-.21-4.05-.1-8.14-.2-12.22-.3v1.28c3.47.09,6.92.16,10.37.24Z"/>
      <path class="cls-36" d="M57.4,57.34c2.82.07,5.6.09,8.45.21,18.52.89,36.71.99,54.92,1.05-.15-.24-.3-.47-.45-.7-17.44-.23-34.96-.7-52.82-1.94-2.81-.07-5.63-.14-8.45-.21-4.6-.13-9.23-.24-13.86-.37v1.66c4.08.1,8.16.2,12.22.3Z"/>
      <path class="cls-12" d="M59.05,55.75c2.82.07,5.64.14,8.45.21,17.86,1.25,35.38,1.72,52.82,1.94-.26-.38-.52-.77-.81-1.14-16.55-.26-33.12-.61-49.86-1.42-2.84-.14-5.62-.16-8.44-.23-5.32-.14-10.66-.28-16.03-.43v.68c4.63.13,9.26.24,13.86.37Z"/>
      <path class="cls-43" d="M61.21,55.13c2.82.07,5.6.09,8.44.23,16.74.81,33.32,1.16,49.86,1.42-.19-.26-.4-.48-.59-.72-15.71-.33-31.45-.79-47.28-1.58-2.84-.14-5.6-.16-8.41-.24-5.99-.16-12.01-.33-18.06-.48v.95c5.37.14,10.71.28,16.03.43Z"/>
      <path class="cls-34" d="M63.24,54.23c2.81.09,5.58.1,8.41.24,15.82.78,31.56,1.25,47.28,1.58-.23-.27-.47-.54-.71-.81-14.82-.38-29.66-.91-44.56-1.65-2.82-.14-5.59-.17-8.38-.26-6.66-.18-13.36-.37-20.08-.55v.97c6.04.16,12.07.33,18.06.48Z"/>
      <path class="cls-31" d="M65.27,53.34c2.79.09,5.56.11,8.38.26,14.9.74,29.74,1.26,44.56,1.65-.27-.28-.56-.57-.85-.85-13.88-.41-27.78-.97-41.7-1.66-2.81-.14-5.58-.18-8.36-.27-7.33-.21-14.71-.44-22.12-.65v.98c6.73.18,13.43.37,20.08.55Z"/>
      <path class="cls-1" d="M67.31,52.46c2.78.09,5.55.13,8.36.27,13.92.7,27.82,1.25,41.7,1.66-.32-.3-.62-.6-.93-.88-12.9-.43-25.82-.99-38.73-1.63-2.79-.14-5.56-.2-8.34-.28-8-.24-16.07-.5-24.18-.74v.95c7.41.21,14.8.44,22.12.65Z"/>
      <path class="cls-24" d="M69.36,51.59c2.78.09,5.55.14,8.34.28,12.9.64,25.82,1.21,38.73,1.63-.37-.31-.75-.6-1.12-.89-11.85-.43-23.73-.98-35.56-1.58-2.78-.14-5.55-.21-8.32-.3-8.67-.27-17.44-.55-26.25-.82v.94c8.11.24,16.18.5,24.18.74Z"/>
      <path class="cls-22" d="M71.43,50.74c2.77.09,5.53.16,8.32.3,11.84.6,23.71,1.15,35.56,1.58-.4-.31-.81-.61-1.23-.89-10.77-.43-21.54-.97-32.26-1.5-2.78-.14-5.55-.21-8.3-.31-9.34-.3-18.81-.61-28.33-.91v.92c8.81.27,17.58.55,26.25.82Z"/>
      <path class="cls-26" d="M73.51,49.9c2.75.1,5.52.17,8.3.31,10.73.54,21.49,1.08,32.26,1.5-.47-.33-.95-.64-1.44-.94-9.6-.4-19.19-.91-28.75-1.39-2.75-.13-5.52-.21-8.26-.31-10.04-.34-20.21-.68-30.44-1.01v.92c9.52.3,18.99.61,28.33.91Z"/>
      <path class="cls-6" d="M75.62,49.08c2.74.1,5.51.18,8.26.31,9.56.48,19.15.99,28.75,1.39-.51-.31-1.01-.61-1.55-.88-8.38-.38-16.75-.84-25.08-1.25-2.75-.14-5.52-.23-8.25-.33-10.73-.37-21.62-.75-32.58-1.11v.85c10.23.33,20.4.67,30.44,1.01Z"/>
      <path class="cls-46" d="M77.76,48.33c2.73.1,5.49.18,8.25.33,8.33.41,16.7.87,25.08,1.25-.53-.28-1.08-.54-1.63-.79-7.11-.34-14.21-.72-21.27-1.08-2.73-.14-5.49-.24-8.21-.34-11.45-.41-23.08-.81-34.8-1.22v.75c10.96.35,21.85.74,32.58,1.11Z"/>
      <path class="cls-42" d="M79.98,47.69c2.71.1,5.48.2,8.21.34,7.07.35,14.16.74,21.27,1.08-.62-.28-1.25-.55-1.88-.79-5.75-.3-11.49-.61-17.19-.91-2.73-.13-5.48-.24-8.19-.34-12.16-.45-24.54-.89-37.02-1.32v.72c11.71.41,23.34.81,34.8,1.22Z"/>
      <path class="cls-23" d="M82.2,47.06c2.71.1,5.47.21,8.19.34,5.7.3,11.44.61,17.19.91-.78-.31-1.56-.58-2.37-.84-4.22-.23-8.42-.45-12.6-.65-2.71-.13-5.47-.26-8.16-.35-12.89-.48-26.01-.97-39.26-1.43v.71c12.48.43,24.85.87,37.02,1.32Z"/>
      <path class="cls-41" d="M84.44,46.47c2.7.1,5.45.23,8.16.35,4.18.2,8.38.43,12.6.65-1.36-.44-2.77-.81-4.19-1.11-2.11-.11-4.21-.23-6.3-.31-2.7-.14-5.42-.26-8.12-.37-6.79-.21-13.67-.44-20.59-.65h-20.82c13.25.47,26.37.95,39.26,1.43Z"/>
      <path class="cls-45" d="M86.6,45.69c2.7.11,5.42.23,8.12.37,2.1.09,4.19.2,6.3.31-.41-.09-.82-.17-1.23-.24-2.32-.43-5.33-.72-9.01-.89-.52-.03-1.03-.04-1.55-.07-2.29-.09-4.79-.13-7.59-.13h-15.63c6.92.21,13.8.44,20.59.65Z"/>
    </g>
    <g>
      <path class="cls-15" d="M212.74,226.28c-14.72-.68-31.1-4.07-49.2-9.72,7.33,8.06,20.66,12.26,37.76,12.26,8.11,0,15.24-.97,21.24-2.78-1.16.07-2.36.13-3.58.15-1.62.03-4.57.07-6.21.09Z"/>
      <path class="cls-17" d="M215.59,206.57c-1.6-.09-3.23-.24-4.85-.35-2.13,2.2-5.65,3.63-9.62,3.63-5.39,0-9.43-2.34-11.44-6.23-9.31-1.53-18.93-3.52-28.84-5.9h-3.58v1.92c0,6.8,2.23,12.45,6.29,16.92,18.09,5.65,34.48,9.05,49.2,9.72,1.64-.01,4.6-.06,6.21-.09,1.22-.01,2.42-.07,3.58-.15,12.35-3.74,19.9-11.13,21.12-21.43-6.36,1.17-13.58,1.87-21.63,1.92-1.82,0-4.55.01-6.43.03Z"/>
      <path class="cls-18" d="M237.4,187.05c-3.95.12-8.08.16-12.37.15-2.04-.01-4.55-.03-6.65-.04-13.78-.85-27.73-2.07-41.85-3.52,3.39,1.51,7.28,2.94,11.73,4.24,11.06,3.25,24.58,6.36,24.58,13.45,0,1.84-.78,3.51-2.1,4.89,1.62.12,3.25.26,4.85.35,1.88-.01,4.61-.03,6.43-.03,8.05-.06,15.27-.75,21.63-1.92.12-.98.19-2.01.19-3.05,0-5.7-1.63-10.31-6.45-14.51Z"/>
      <path class="cls-18" d="M188.26,197.72h-27.42c9.91,2.38,19.53,4.38,28.84,5.9-.87-1.69-1.37-3.67-1.42-5.9Z"/>
      <path class="cls-27" d="M225.03,187.2c4.29.01,8.41-.03,12.37-.15-5.01-4.39-13.48-8.33-27.2-12.62-9.52-3-15.58-5.08-18.3-7.95-10.9-.22-21.63-.22-32.32-.1,1.34,7.15,6.8,12.7,16.95,17.24,14.13,1.45,28.08,2.67,41.85,3.52,2.1.01,4.61.03,6.65.04Z"/>
      <path class="cls-11" d="M191.9,166.49c-.31-.32-.56-.65-.78-.98-10.68-.29-21.24-.4-31.75-.41.06.44.13.87.21,1.29,10.69-.12,21.43-.12,32.32.1Z"/>
      <path class="cls-37" d="M190.52,164.29c-10.5-.28-20.88-.38-31.22-.4.01.4.03.81.07,1.2,10.52.01,21.07.12,31.75.41-.25-.4-.46-.79-.6-1.22Z"/>
      <path class="cls-13" d="M211.95,163.97c.01.09.04.18.06.26h4.58c-.16-.01-.34-.03-.5-.04-1.38-.07-2.76-.15-4.14-.22Z"/>
      <path class="cls-13" d="M190.29,163.09c-10.43-.28-20.77-.38-31.05-.41v.12c0,.37.04.73.06,1.1,10.34.01,20.72.12,31.22.4-.12-.38-.19-.78-.24-1.2Z"/>
      <path class="cls-29" d="M223.45,163.47c-2.29-.09-4.63-.31-6.93-.44-1.63-.1-3.25-.18-4.88-.26.12.38.22.78.31,1.2,1.38.07,2.76.15,4.14.22.16.01.34.03.5.04h26.26c0-.13-.01-.26-.01-.4-4.13-.09-8.39-.16-12.78-.23-2.17-.04-4.36-.04-6.61-.13Z"/>
      <path class="cls-29" d="M190.24,162.54c0-.22.03-.43.06-.65-10.43-.28-20.74-.4-31-.43-.03.41-.04.81-.06,1.2,10.28.03,20.62.13,31.05.41-.01-.18-.04-.35-.04-.54Z"/>
      <path class="cls-20" d="M223.86,162.31c-2.28-.09-4.61-.31-6.9-.44-1.92-.12-3.83-.22-5.74-.32.15.38.29.79.43,1.22,1.63.09,3.25.16,4.88.26,2.31.13,4.64.35,6.93.44,2.25.09,4.44.09,6.61.13,4.39.07,8.65.15,12.78.23-.01-.4-.03-.78-.06-1.16-3.99-.09-8.11-.16-12.37-.25-2.14-.03-4.32-.04-6.55-.12Z"/>
      <path class="cls-20" d="M190.63,160.71c-10.47-.29-20.85-.4-31.18-.44-.07.41-.12.81-.15,1.2,10.27.03,20.57.15,31,.43.06-.41.18-.81.32-1.19Z"/>
      <path class="cls-7" d="M224.29,161.15c-2.26-.09-4.6-.31-6.87-.44-2.26-.15-4.51-.26-6.76-.38.21.37.38.78.56,1.22,1.91.1,3.82.21,5.74.32,2.29.13,4.63.35,6.9.44,2.23.07,4.41.09,6.55.12,4.26.09,8.37.16,12.37.25-.01-.4-.06-.79-.09-1.17-3.85-.07-7.81-.15-11.91-.24-2.13-.03-4.27-.04-6.49-.12Z"/>
      <path class="cls-7" d="M191.3,159.53c-10.63-.31-21.15-.43-31.63-.46-.09.4-.16.79-.22,1.19,10.32.04,20.71.15,31.18.44.18-.41.4-.79.68-1.17Z"/>
      <path class="cls-35" d="M224.73,159.99c-2.28-.09-4.58-.31-6.87-.44-2.67-.18-5.35-.32-8-.47.28.38.56.79.81,1.25,2.25.12,4.49.23,6.76.38,2.28.13,4.61.35,6.87.44,2.22.07,4.36.09,6.49.12,4.1.09,8.06.16,11.91.24-.04-.38-.09-.78-.15-1.16-3.69-.07-7.48-.15-11.4-.24-2.1-.03-4.23-.04-6.42-.12Z"/>
      <path class="cls-35" d="M192.39,158.37c-10.88-.32-21.66-.46-32.4-.5-.12.4-.23.79-.32,1.2,10.49.03,21,.15,31.63.46.31-.41.68-.79,1.09-1.16Z"/>
      <path class="cls-8" d="M225.15,158.83c-2.25-.07-4.57-.31-6.83-.44-3.25-.22-6.46-.4-9.66-.56.43.37.82.78,1.19,1.25,2.66.15,5.33.29,8,.47,2.29.13,4.6.35,6.87.44,2.19.07,4.32.09,6.42.12,3.92.09,7.71.16,11.4.24-.06-.4-.13-.78-.21-1.16-3.5-.07-7.09-.15-10.81-.22-2.09-.04-4.2-.07-6.37-.13Z"/>
      <path class="cls-8" d="M194.03,157.24c-11.31-.37-22.5-.51-33.63-.56-.16.4-.29.79-.41,1.19,10.74.04,21.51.18,32.4.5.48-.41,1.04-.79,1.64-1.13Z"/>
      <path class="cls-25" d="M225.61,157.67c-2.26-.07-4.57-.31-6.83-.44-4.1-.26-8.17-.48-12.22-.68.78.32,1.47.75,2.1,1.28,3.2.16,6.42.34,9.66.56,2.26.13,4.58.37,6.83.44,2.17.06,4.29.09,6.37.13,3.72.07,7.31.15,10.81.22-.07-.4-.13-.79-.23-1.16-3.3-.07-6.7-.15-10.19-.22-2.07-.04-4.17-.07-6.3-.13Z"/>
      <path class="cls-25" d="M196.76,156.14c-12.07-.41-24-.59-35.86-.66-.18.4-.35.79-.5,1.2,11.13.04,22.32.19,33.63.56.82-.46,1.73-.82,2.73-1.1Z"/>
      <path class="cls-47" d="M200.96,155.58c2.19,0,4.04.31,5.6.97,4.05.19,8.12.41,12.22.68,2.26.13,4.57.37,6.83.44,2.13.06,4.23.09,6.3.13,3.5.07,6.89.15,10.19.22-.09-.4-.22-.78-.34-1.17-3.07-.06-6.23-.13-9.47-.21-2.04-.04-4.11-.07-6.24-.13-2.25-.07-4.54-.29-6.8-.44-19.62-1.29-38.74-1.66-57.74-1.78-.21.4-.41.79-.6,1.19,11.87.07,23.79.25,35.86.66,1.31-.35,2.72-.56,4.2-.56Z"/>
      <path class="cls-33" d="M226.05,156.51c2.13.06,4.2.09,6.24.13,3.25.07,6.4.15,9.47.21-.12-.4-.23-.78-.38-1.16-2.83-.06-5.73-.13-8.69-.21-2.03-.04-4.08-.07-6.17-.13-2.25-.06-4.54-.29-6.78-.44-19.53-1.29-38.59-1.67-57.51-1.81-.25.4-.48.79-.72,1.19,19,.12,38.12.48,57.74,1.78,2.26.15,4.55.37,6.8.44Z"/>
      <path class="cls-9" d="M226.52,155.35c2.09.06,4.14.09,6.17.13,2.97.07,5.86.15,8.69.21-.15-.4-.28-.79-.46-1.17-2.56-.06-5.17-.12-7.84-.18-2-.04-4.04-.09-6.11-.15-2.23-.06-4.51-.29-6.76-.44-19.41-1.29-38.36-1.69-57.17-1.84-.29.4-.57.79-.82,1.19,18.92.13,37.98.51,57.51,1.81,2.25.15,4.54.38,6.78.44Z"/>
      <path class="cls-36" d="M226.97,154.19c2.07.06,4.11.1,6.11.15,2.67.06,5.29.12,7.84.18-.22-.51-.47-1.03-.75-1.51-4.16-.1-8.46-.21-12.91-.32-2.23-.04-4.46-.21-6.74-.43-19.22-.69-38.14-.81-57.03-.93-.16.19-.31.4-.46.59,18.81.15,37.76.54,57.17,1.84,2.25.15,4.52.38,6.76.44Z"/>
      <path class="cls-12" d="M227.27,152.68c4.45.12,8.75.22,12.91.32-.12-.22-.24-.43-.37-.65-4.13-.1-8.42-.21-12.85-.31-3.07-.24-6.21-.54-9.11-.65-18-.63-35.79-.88-53.5-1.09-.29.32-.59.66-.85,1.01,18.89.12,37.8.23,57.03.93,2.28.22,4.51.38,6.74.43Z"/>
      <path class="cls-43" d="M226.96,152.04c4.44.1,8.72.21,12.85.31-.18-.29-.35-.6-.56-.9-4.07-.1-8.31-.21-12.73-.32-3.91-.41-7.93-.79-11.48-.84-16.77-.22-33.45-.38-50.14-.59-.19.19-.37.4-.54.6,17.71.21,35.5.46,53.5,1.09,2.89.1,6.04.41,9.11.65Z"/>
      <path class="cls-34" d="M226.52,151.13c4.42.12,8.66.22,12.73.32-.19-.31-.41-.6-.63-.9-4.01-.1-8.18-.21-12.54-.32-4.74-.6-9.63-1.07-13.85-1.06-15.55.07-31.1.03-46.67-.16-.22.22-.44.46-.66.69,16.68.21,33.37.37,50.14.59,3.55.04,7.58.43,11.48.84Z"/>
      <path class="cls-31" d="M212.23,149.18c4.21-.01,9.11.46,13.85,1.06,4.36.12,8.53.22,12.54.32-.22-.29-.44-.6-.68-.88-3.91-.1-8-.22-12.29-.32-5.6-.79-11.37-1.37-16.24-1.26-14.29.26-28.64.29-43.03.15-.28.25-.56.51-.82.78,15.57.19,31.12.23,46.67.16Z"/>
      <path class="cls-1" d="M209.41,148.09c4.88-.1,10.65.47,16.24,1.26,4.29.1,8.39.22,12.29.32-.25-.31-.53-.59-.79-.88-3.77-.1-7.75-.21-11.91-.32-6.45-.98-13.1-1.66-18.64-1.48-13.03.43-26.13.53-39.27.43-.32.26-.65.54-.95.82,14.39.15,28.74.12,43.03-.15Z"/>
      <path class="cls-24" d="M206.6,146.99c5.54-.18,12.19.5,18.64,1.48,4.16.12,8.14.22,11.91.32-.28-.29-.56-.59-.84-.87-3.63-.1-7.46-.21-11.48-.32-7.28-1.16-14.85-1.97-21.03-1.69-11.73.51-23.54.68-35.41.63-.37.28-.72.57-1.06.87,13.14.1,26.24,0,39.27-.43Z"/>
      <path class="cls-22" d="M224.83,147.61c4.02.12,7.86.22,11.48.32-.31-.29-.62-.59-.93-.87-3.44-.1-7.09-.21-10.97-.32-8.12-1.35-16.58-2.28-23.41-1.89-10.41.57-20.9.81-31.43.82-.4.29-.79.59-1.19.88,11.87.04,23.67-.12,35.41-.63,6.18-.28,13.75.53,21.03,1.69Z"/>
      <path class="cls-26" d="M224.42,146.74c3.88.12,7.53.22,10.97.32-.34-.29-.7-.57-1.06-.85-3.2-.1-6.65-.21-10.31-.31-8.96-1.54-18.36-2.63-25.82-2.13-9.05.62-18.15.91-27.29,1-.46.29-.9.59-1.34.9,10.53-.01,21.02-.25,31.43-.82,6.83-.38,15.29.54,23.41,1.89Z"/>
      <path class="cls-6" d="M224.02,145.91c3.66.1,7.11.21,10.31.31-.34-.26-.69-.53-1.04-.79-2.97-.09-6.18-.19-9.63-.31-9.81-1.72-20.13-2.98-28.21-2.35-7.65.62-15.35.97-23.06,1.12-.5.29-1,.59-1.47.9,9.13-.09,18.24-.38,27.29-1,7.46-.5,16.86.59,25.82,2.13Z"/>
      <path class="cls-46" d="M223.65,145.11c3.45.12,6.67.22,9.63.31-.32-.23-.66-.46-1-.68-2.72-.1-5.71-.21-8.94-.31-10.65-1.91-21.93-3.38-30.62-2.57-6.24.59-12.51.95-18.81,1.16-.51.28-1.03.56-1.53.85,7.71-.15,15.41-.5,23.06-1.12,8.08-.63,18.4.63,28.21,2.35Z"/>
      <path class="cls-42" d="M223.35,144.44c3.23.1,6.23.21,8.94.31-.35-.23-.72-.46-1.07-.68-2.42-.09-5.17-.19-8.18-.31-11.5-2.1-23.73-3.77-33.03-2.79-4.73.51-9.47.88-14.23,1.13-.63.29-1.25.6-1.87.93,6.3-.21,12.57-.57,18.81-1.16,8.69-.81,19.97.66,30.62,2.57Z"/>
      <path class="cls-23" d="M223.04,143.76c3.01.12,5.76.22,8.18.31-.35-.21-.69-.43-1.06-.63-2.09-.07-4.58-.19-7.42-.31-12.34-2.29-25.57-4.21-35.44-3.03-3.03.38-6.07.68-9.09.93-.84.34-1.64.69-2.44,1.07,4.76-.25,9.5-.62,14.23-1.13,9.3-.98,21.53.69,33.03,2.79Z"/>
      <path class="cls-41" d="M222.74,143.13c2.83.12,5.33.23,7.42.31-.5-.28-1.03-.54-1.56-.81-2.04-.07-4.13-.18-6.23-.32-13.19-2.48-27.12-4.23-37.86-3.25-.47.09-.93.15-1.4.24-1.69.51-3.33,1.09-4.91,1.73,3.03-.25,6.07-.54,9.09-.93,9.87-1.19,23.1.73,35.44,3.03Z"/>
      <path class="cls-45" d="M222.38,142.31c2.1.15,4.19.25,6.23.32-.44-.22-.88-.44-1.34-.66-1.54-.06-3.07-.12-4.66-.22-12.35-2.22-25.69-4.38-35.91-3.41-1.22.28-2.41.6-3.58.95.47-.09.93-.15,1.4-.24,10.74-.98,24.67.76,37.86,3.25Z"/>
      <path class="cls-10" d="M222.61,141.75c1.59.1,3.11.16,4.66.22-.65-.29-1.29-.59-1.97-.87-.85-.04-1.67-.06-2.53-.12-10.56-1.79-21.87-3.67-31.35-3.57-1.6.25-3.17.56-4.71.93,10.22-.97,23.56,1.19,35.91,3.41Z"/>
      <path class="cls-30" d="M225.3,141.1c-.62-.25-1.25-.51-1.91-.76-.12-.04-.24-.07-.34-.12h-.12c-8.69-1.38-17.9-2.95-26.21-3.41-1.79.13-3.55.34-5.3.6,9.49-.1,20.8,1.78,31.35,3.57.85.06,1.67.07,2.53.12Z"/>
      <path class="cls-44" d="M223.05,140.22c-1.53-.56-3.08-1.06-4.7-1.5-4.93-.76-9.97-1.53-14.85-2.07-.57-.01-1.13-.03-1.72-.03-1.7,0-3.39.07-5.07.19,8.31.46,17.52,2.03,26.21,3.41h.12Z"/>
      <path class="cls-19" d="M203.5,136.65c4.88.54,9.91,1.31,14.85,2.07-4.57-1.23-9.5-1.94-14.85-2.07Z"/>
    </g>
  </g>
</svg>